SplineFontDB: 3.0
FontName: Exo-Medium
FullName: Exo Medium
FamilyName: Exo
Weight: Medium
Copyright: Copyright (c) 2011 Natanael Gama (exo@ndiscovered.com), with Reserved Font Name "Exo"
Version: 1.00
ItalicAngle: 0
UnderlinePosition: -50
UnderlineWidth: 50
Ascent: 800
Descent: 200
sfntRevision: 0x00010000
LayerCount: 2
Layer: 0 1 "Back"  1
Layer: 1 1 "Fore"  0
XUID: [1021 733 89199389 7584048]
FSType: 0
OS2Version: 4
OS2_WeightWidthSlopeOnly: 0
OS2_UseTypoMetrics: 1
CreationTime: 1317847027
ModificationTime: 1328305026
PfmFamily: 17
TTFWeight: 500
TTFWidth: 5
LineGap: 0
VLineGap: 0
Panose: 2 0 6 3 0 0 0 0 0 0
OS2TypoAscent: 202
OS2TypoAOffset: 1
OS2TypoDescent: -127
OS2TypoDOffset: 1
OS2TypoLinegap: 0
OS2WinAscent: 0
OS2WinAOffset: 1
OS2WinDescent: 54
OS2WinDOffset: 1
HheadAscent: 0
HheadAOffset: 1
HheadDescent: -54
HheadDOffset: 1
OS2SubXSize: 650
OS2SubYSize: 700
OS2SubXOff: 0
OS2SubYOff: 140
OS2SupXSize: 650
OS2SupYSize: 700
OS2SupXOff: 0
OS2SupYOff: 480
OS2StrikeYSize: 49
OS2StrikeYPos: 258
OS2Vendor: 'PfEd'
OS2CodePages: 20000093.00000000
OS2UnicodeRanges: a00000ef.4000204b.00000000.00000000
Lookup: 4 0 0 "'ordn' Ordinals lookup 0"  {"'ordn' Ordinals lookup 0 subtable"  } ['ordn' ('DFLT' <'dflt' > 'grek' <'dflt' > 'latn' <'dflt' > ) ]
Lookup: 1 0 0 "'smcp' Lowercase to Small Capitals lookup 1"  {"'smcp' Lowercase to Small Capitals lookup 1 subtable"  } ['smcp' ('DFLT' <'dflt' > 'grek' <'dflt' > 'latn' <'FRA ' 'dflt' > ) ]
Lookup: 1 0 0 "'c2sc' Capitals to Small Capitals in Latin lookup 2"  {"'c2sc' Capitals to Small Capitals in Latin lookup 2 subtable"  } ['c2sc' ('latn' <'dflt' > ) ]
Lookup: 4 0 0 "'dlig' Discretionary Ligatures lookup 3"  {"'dlig' Discretionary Ligatures lookup 3 subtable"  } ['dlig' ('DFLT' <'dflt' > 'grek' <'dflt' > 'latn' <'dflt' > ) ]
Lookup: 4 0 1 "'liga' Standard Ligatures lookup 4"  {"'liga' Standard Ligatures lookup 4 subtable"  } ['liga' ('DFLT' <'dflt' > 'grek' <'dflt' > 'latn' <'FRA ' 'dflt' > ) ]

StartChar: .notdef
Encoding: 0 -1 0
AltUni2: 000000.ffffffff.0
Width: 744
Flags: W
LayerCount: 2
Fore
SplineSet
637 506 m 1,0,-1
 385 266 l 1,1,-1
 637 25 l 1,2,-1
 637 506 l 1,0,-1
120 13 m 1,3,-1
 627 13 l 1,4,-1
 374 256 l 1,5,-1
 120 13 l 1,3,-1
107 22 m 1,6,-1
 363 266 l 1,7,-1
 107 507 l 1,8,-1
 107 22 l 1,6,-1
628 518 m 1,9,-1
 117 518 l 1,10,-1
 374 276 l 1,11,-1
 628 518 l 1,9,-1
93 0 m 1,12,-1
 93 531 l 1,13,-1
 651 531 l 1,14,-1
 651 0 l 1,15,-1
 93 0 l 1,12,-1
EndSplineSet
EndChar

StartChar: exclam
Encoding: 33 33 4
Width: 270
GlyphClass: 2
Flags: W
LayerCount: 2
Fore
SplineSet
78 23 m 2,0,-1
 78 89 l 2,1,2
 78 114 78 114 102 114 c 2,3,-1
 166 114 l 2,4,5
 177 114 177 114 183 107 c 128,-1,6
 189 100 189 100 189 89 c 2,7,-1
 189 23 l 2,8,9
 189 0 189 0 166 0 c 2,10,-1
 102 0 l 2,11,12
 91 0 91 0 84.5 6.5 c 128,-1,13
 78 13 78 13 78 23 c 2,0,-1
82 731 m 1,14,-1
 185 731 l 1,15,-1
 176 196 l 1,16,-1
 90 196 l 1,17,-1
 82 731 l 1,14,-1
EndSplineSet
Substitution2: "'smcp' Lowercase to Small Capitals lookup 1 subtable" exclam.smcp
EndChar

StartChar: quotedbl
Encoding: 34 34 5
Width: 397
GlyphClass: 2
Flags: W
LayerCount: 2
Fore
SplineSet
171 732 m 1,0,-1
 171 665 l 1,1,-1
 161 531 l 1,2,-1
 91 531 l 1,3,-1
 79 665 l 1,4,-1
 79 732 l 1,5,-1
 171 732 l 1,0,-1
227 732 m 1,6,-1
 318 732 l 1,7,-1
 318 665 l 1,8,-1
 308 531 l 1,9,-1
 238 531 l 1,10,-1
 227 665 l 1,11,-1
 227 732 l 1,6,-1
EndSplineSet
Substitution2: "'smcp' Lowercase to Small Capitals lookup 1 subtable" quotedbl.smcp
EndChar

StartChar: numbersign
Encoding: 35 35 6
Width: 696
GlyphClass: 2
Flags: W
LayerCount: 2
Fore
SplineSet
19 226 m 1,0,-1
 28 290 l 1,1,-1
 186 290 l 1,2,-1
 210 443 l 1,3,-1
 53 443 l 1,4,-1
 63 507 l 1,5,-1
 221 507 l 1,6,-1
 258 732 l 1,7,-1
 322 732 l 1,8,-1
 285 507 l 1,9,-1
 439 507 l 1,10,-1
 475 732 l 1,11,-1
 539 732 l 1,12,-1
 503 507 l 1,13,-1
 679 507 l 1,14,-1
 668 443 l 1,15,-1
 492 443 l 1,16,-1
 468 289 l 1,17,-1
 644 289 l 1,18,-1
 634 225 l 1,19,-1
 457 225 l 1,20,-1
 420 0 l 1,21,-1
 356 0 l 1,22,-1
 393 225 l 1,23,-1
 238 226 l 1,24,-1
 201 0 l 1,25,-1
 137 0 l 1,26,-1
 174 226 l 1,27,-1
 19 226 l 1,0,-1
250 290 m 1,28,-1
 404 289 l 1,29,-1
 428 443 l 1,30,-1
 274 443 l 1,31,-1
 250 290 l 1,28,-1
EndSplineSet
Substitution2: "'smcp' Lowercase to Small Capitals lookup 1 subtable" numbersign.smcp
EndChar

StartChar: dollar
Encoding: 36 36 7
Width: 573
GlyphClass: 2
Flags: W
LayerCount: 2
Fore
SplineSet
495 641 m 1,0,-1
 260 650 l 2,1,2
 252 650 252 650 239.5 650 c 128,-1,3
 227 650 227 650 210.5 647.5 c 128,-1,4
 194 645 194 645 177 636 c 0,5,6
 143 617 143 617 143 554 c 2,7,-1
 143 496 l 2,8,9
 143 406 143 406 241 406 c 2,10,-1
 361 406 l 2,11,12
 472 406 472 406 506 325 c 0,13,14
 522 285 522 285 522 228 c 2,15,-1
 522 165 l 2,16,17
 522 61 522 61 454 22 c 0,18,19
 400 -8 400 -8 326 -8 c 0,20,21
 317 -8 317 -8 308 -8 c 1,22,-1
 308 -90 l 1,23,-1
 242 -90 l 1,24,-1
 242 -4 l 1,25,26
 142 5 142 5 74 18 c 1,27,-1
 74 88 l 1,28,29
 80 88 80 88 168.5 84.5 c 128,-1,30
 257 81 257 81 312 81 c 0,31,32
 430 81 430 81 430 164 c 2,33,-1
 430 224 l 2,34,35
 430 267 430 267 413 290.5 c 128,-1,36
 396 314 396 314 352 314 c 2,37,-1
 232 314 l 2,38,39
 111 314 111 314 71 397 c 0,40,41
 51 438 51 438 51 492 c 2,42,-1
 51 557 l 1,43,44
 53 660 53 660 108 700 c 0,45,46
 157 736 157 736 242 738 c 1,47,-1
 242 824 l 1,48,-1
 308 824 l 1,49,-1
 308 735 l 1,50,51
 375 731 375 731 495 713 c 1,52,-1
 495 641 l 1,0,-1
EndSplineSet
Substitution2: "'smcp' Lowercase to Small Capitals lookup 1 subtable" dollar.smcp
EndChar

StartChar: percent
Encoding: 37 37 8
Width: 956
GlyphClass: 2
Flags: W
LayerCount: 2
Fore
SplineSet
39 476 m 2,0,-1
 39 606 l 2,1,2
 39 672 39 672 68 702 c 128,-1,3
 97 732 97 732 170 732 c 2,4,-1
 271 732 l 2,5,6
 342 732 342 732 370.5 702 c 128,-1,7
 399 672 399 672 399 606 c 2,8,-1
 399 476 l 2,9,10
 399 409 399 409 370.5 379 c 128,-1,11
 342 349 342 349 269 349 c 2,12,-1
 168 349 l 2,13,14
 96 349 96 349 67.5 379 c 128,-1,15
 39 409 39 409 39 476 c 2,0,-1
113 480 m 2,16,17
 113 446 113 446 125.5 434.5 c 128,-1,18
 138 423 138 423 172 423 c 2,19,-1
 265 423 l 2,20,21
 304 423 304 423 314.5 435 c 128,-1,22
 325 447 325 447 325 480 c 2,23,-1
 325 601 l 2,24,25
 325 635 325 635 313 646.5 c 128,-1,26
 301 658 301 658 267 658 c 2,27,-1
 174 658 l 2,28,29
 135 658 135 658 124 646.5 c 128,-1,30
 113 635 113 635 113 601 c 2,31,-1
 113 480 l 2,16,17
222 0 m 1,32,-1
 662 732 l 1,33,-1
 741 732 l 1,34,-1
 302 0 l 1,35,-1
 222 0 l 1,32,-1
558 129 m 2,36,-1
 558 259 l 2,37,38
 558 324 558 324 585 354 c 0,39,40
 614 385 614 385 688 385 c 2,41,-1
 789 385 l 2,42,43
 861 385 861 385 889.5 355 c 128,-1,44
 918 325 918 325 918 259 c 2,45,-1
 918 129 l 2,46,47
 918 62 918 62 889.5 32 c 128,-1,48
 861 2 861 2 787 2 c 2,49,-1
 686 2 l 2,50,51
 615 2 615 2 586.5 32.5 c 128,-1,52
 558 63 558 63 558 129 c 2,36,-1
632 133 m 2,53,54
 632 100 632 100 644 88 c 128,-1,55
 656 76 656 76 690 76 c 2,56,-1
 783 76 l 2,57,58
 822 76 822 76 833 88 c 128,-1,59
 844 100 844 100 844 133 c 2,60,-1
 844 254 l 2,61,62
 844 288 844 288 831.5 299.5 c 128,-1,63
 819 311 819 311 785 311 c 2,64,-1
 692 311 l 2,65,66
 654 311 654 311 643 299.5 c 128,-1,67
 632 288 632 288 632 254 c 2,68,-1
 632 133 l 2,53,54
EndSplineSet
Substitution2: "'smcp' Lowercase to Small Capitals lookup 1 subtable" percent.smcp
EndChar

StartChar: ampersand
Encoding: 38 38 9
Width: 648
GlyphClass: 2
Flags: W
LayerCount: 2
Fore
SplineSet
278 735 m 0,0,1
 369 735 369 735 476 710 c 1,2,-1
 476 646 l 1,3,-1
 284 646 l 2,4,5
 201 646 201 646 201 604 c 0,6,7
 201 577 201 577 235 530 c 2,8,-1
 451 236 l 1,9,-1
 568 354 l 1,10,-1
 598 320 l 1,11,-1
 544 213 l 1,12,-1
 504 168 l 1,13,-1
 626 0 l 1,14,-1
 518 0 l 1,15,-1
 439 107 l 1,16,-1
 368 42 l 2,17,18
 317 -5 317 -5 242 -5 c 0,19,20
 203 -5 203 -5 156 13.5 c 128,-1,21
 109 32 109 32 70 87 c 128,-1,22
 31 142 31 142 31 204 c 0,23,24
 31 297 31 297 113 367 c 2,25,-1
 194 436 l 1,26,-1
 134 518 l 2,27,28
 102 563 102 563 102 611 c 0,29,30
 102 669 102 669 154 708 c 0,31,32
 179 727 179 727 210 731 c 128,-1,33
 241 735 241 735 278 735 c 0,0,1
173 305 m 2,34,35
 120 261 120 261 120 217.5 c 128,-1,36
 120 174 120 174 145 141.5 c 128,-1,37
 170 109 170 109 195.5 96 c 128,-1,38
 221 83 221 83 236.5 83 c 128,-1,39
 252 83 252 83 257 84 c 0,40,41
 289 86 289 86 313 109 c 2,42,-1
 385 177 l 1,43,-1
 244 365 l 1,44,-1
 173 305 l 2,34,35
EndSplineSet
AlternateSubs2: "'salt' Stylistic Alternatives in Latin lookup 16 subtable" ampersand.salt
Substitution2: "'smcp' Lowercase to Small Capitals lookup 1 subtable" ampersand.smcp
EndChar

StartChar: quotesingle
Encoding: 39 39 10
Width: 195
GlyphClass: 2
Flags: W
LayerCount: 2
Fore
SplineSet
51 732 m 1,0,-1
 144 732 l 1,1,-1
 144 665 l 1,2,-1
 134 531 l 1,3,-1
 62 531 l 1,4,-1
 51 665 l 1,5,-1
 51 732 l 1,0,-1
EndSplineSet
Substitution2: "'smcp' Lowercase to Small Capitals lookup 1 subtable" quotesingle.smcp
EndChar

StartChar: parenleft
Encoding: 40 40 11
Width: 346
GlyphClass: 2
Flags: W
LayerCount: 2
Fore
SplineSet
87.5 144 m 128,-1,1
 70 234 70 234 70 320.5 c 128,-1,2
 70 407 70 407 87 491.5 c 128,-1,3
 104 576 104 576 128 639 c 0,4,5
 177 770 177 770 217 833 c 2,6,-1
 234 860 l 1,7,-1
 328 860 l 1,8,9
 305 824 305 824 273.5 758 c 128,-1,10
 242 692 242 692 220 632 c 128,-1,11
 198 572 198 572 180 487.5 c 128,-1,12
 162 403 162 403 162 333.5 c 128,-1,13
 162 264 162 264 171 201 c 128,-1,14
 180 138 180 138 195 87 c 128,-1,15
 210 36 210 36 227.5 -11.5 c 128,-1,16
 245 -59 245 -59 263 -95 c 0,17,18
 300 -168 300 -168 319 -196 c 2,19,-1
 328 -210 l 1,20,-1
 234 -210 l 1,21,22
 211 -181 211 -181 179.5 -121.5 c 128,-1,23
 148 -62 148 -62 126.5 -4 c 128,-1,0
 105 54 105 54 87.5 144 c 128,-1,1
EndSplineSet
Substitution2: "'case' Case-Sensitive Forms lookup 18 subtable" parenleft.alt
Substitution2: "'c2sc' Capitals to Small Capitals in Latin lookup 2 subtable" parenleft.smcp
Substitution2: "'smcp' Lowercase to Small Capitals lookup 1 subtable" parenleft.smcp
EndChar

StartChar: parenright
Encoding: 41 41 12
Width: 346
GlyphClass: 2
Flags: W
LayerCount: 2
Fore
SplineSet
167 153.5 m 128,-1,1
 185 241 185 241 185 344.5 c 128,-1,2
 185 448 185 448 143.5 581.5 c 128,-1,3
 102 715 102 715 60 788 c 2,4,-1
 19 860 l 1,5,-1
 113 860 l 1,6,7
 136 826 136 826 167 761.5 c 128,-1,8
 198 697 198 697 219.5 637.5 c 128,-1,9
 241 578 241 578 259 492.5 c 128,-1,10
 277 407 277 407 277 320.5 c 128,-1,11
 277 234 277 234 260 145 c 128,-1,12
 243 56 243 56 219 -5 c 0,13,14
 169 -132 169 -132 130 -187 c 1,15,-1
 113 -210 l 1,16,-1
 19 -210 l 1,17,18
 42 -178 42 -178 73.5 -115 c 128,-1,19
 105 -52 105 -52 127 7 c 128,-1,0
 149 66 149 66 167 153.5 c 128,-1,1
EndSplineSet
Substitution2: "'case' Case-Sensitive Forms lookup 18 subtable" parenright.alt
Substitution2: "'c2sc' Capitals to Small Capitals in Latin lookup 2 subtable" parenright.smcp
Substitution2: "'smcp' Lowercase to Small Capitals lookup 1 subtable" parenright.smcp
EndChar

StartChar: asterisk
Encoding: 42 42 13
Width: 436
GlyphClass: 2
Flags: W
LayerCount: 2
Fore
SplineSet
47 566 m 1,0,-1
 47 610 l 1,1,-1
 186 638 l 1,2,-1
 191 561 l 1,3,-1
 47 566 l 1,0,-1
112 415 m 1,4,-1
 136 550 l 1,5,-1
 211 532 l 1,6,-1
 153 401 l 1,7,-1
 112 415 l 1,4,-1
173 718 m 1,8,-1
 216 735 l 1,9,-1
 289 615 l 1,10,-1
 218 584 l 1,11,-1
 173 718 l 1,8,-1
203 473 m 1,12,-1
 246 538 l 1,13,-1
 356 447 l 1,14,-1
 332 412 l 1,15,-1
 203 473 l 1,12,-1
248 571 m 1,16,-1
 368 648 l 1,17,-1
 390 609 l 1,18,-1
 298 512 l 1,19,-1
 248 571 l 1,16,-1
EndSplineSet
Substitution2: "'smcp' Lowercase to Small Capitals lookup 1 subtable" asterisk.smcp
EndChar

StartChar: plus
Encoding: 43 43 14
Width: 507
GlyphClass: 2
Flags: W
LayerCount: 2
Fore
SplineSet
46 313 m 1,0,-1
 46 399 l 1,1,-1
 210 399 l 1,2,-1
 210 564 l 1,3,-1
 296 564 l 1,4,-1
 296 399 l 1,5,-1
 462 399 l 1,6,-1
 462 313 l 1,7,-1
 296 313 l 1,8,-1
 296 148 l 1,9,-1
 210 148 l 1,10,-1
 210 313 l 1,11,-1
 46 313 l 1,0,-1
EndSplineSet
EndChar

StartChar: comma
Encoding: 44 44 15
Width: 267
GlyphClass: 2
Flags: W
LayerCount: 2
Fore
SplineSet
188 -11 m 2,0,1
 188 -90 188 -90 106 -90 c 0,2,3
 100 -90 100 -90 95 -90 c 2,4,-1
 84 -88 l 1,5,-1
 84 -52 l 1,6,7
 98 -52 98 -52 106 -46 c 0,8,9
 115 -39 115 -39 115 -22 c 2,10,-1
 115 0 l 1,11,-1
 104 0 l 2,12,13
 93 0 93 0 86 6.5 c 128,-1,14
 79 13 79 13 79 25 c 2,15,-1
 79 88 l 2,16,17
 79 115 79 115 104 115 c 2,18,-1
 164 115 l 2,19,20
 188 115 188 115 188 88 c 2,21,-1
 188 -11 l 2,0,1
EndSplineSet
EndChar

StartChar: hyphen
Encoding: 45 45 16
Width: 354
GlyphClass: 2
Flags: W
LayerCount: 2
Fore
SplineSet
20 247 m 1,0,-1
 20 333 l 1,1,-1
 334 333 l 1,2,-1
 334 247 l 1,3,-1
 20 247 l 1,0,-1
EndSplineSet
Substitution2: "'case' Case-Sensitive Forms lookup 18 subtable" hyphen.alt
Substitution2: "'c2sc' Capitals to Small Capitals in Latin lookup 2 subtable" hyphen.smcp
Substitution2: "'smcp' Lowercase to Small Capitals lookup 1 subtable" hyphen.smcp
EndChar

StartChar: period
Encoding: 46 46 17
Width: 269
GlyphClass: 2
Flags: W
LayerCount: 2
Fore
SplineSet
79 23 m 2,0,-1
 79 89 l 2,1,2
 79 114 79 114 103 114 c 2,3,-1
 165 114 l 2,4,5
 190 114 190 114 190 89 c 2,6,-1
 190 23 l 2,7,8
 190 0 190 0 165 0 c 2,9,-1
 103 0 l 2,10,11
 93 0 93 0 86 6.5 c 128,-1,12
 79 13 79 13 79 23 c 2,0,-1
EndSplineSet
EndChar

StartChar: slash
Encoding: 47 47 18
Width: 415
GlyphClass: 2
Flags: W
LayerCount: 2
Fore
SplineSet
19 -72 m 1,0,-1
 300 770 l 1,1,-1
 397 770 l 1,2,-1
 116 -72 l 1,3,-1
 19 -72 l 1,0,-1
EndSplineSet
Substitution2: "'numr' Numerators in Latin lookup 13 subtable" fraction
Substitution2: "'frac' Diagonal Fractions lookup 6 subtable" fraction
EndChar

StartChar: zero
Encoding: 48 48 19
Width: 639
GlyphClass: 2
Flags: W
LayerCount: 2
Fore
SplineSet
65 166 m 2,0,-1
 65 564 l 2,1,2
 65 645 65 645 114 688.5 c 128,-1,3
 163 732 163 732 241 732 c 2,4,-1
 405 732 l 2,5,6
 533 732 533 732 565 629 c 0,7,8
 574 600 574 600 574 566 c 2,9,-1
 574 166 l 2,10,11
 574 81 574 81 529.5 40.5 c 128,-1,12
 485 0 485 0 404 0 c 2,13,-1
 240 0 l 2,14,15
 162 0 162 0 113.5 40.5 c 128,-1,16
 65 81 65 81 65 166 c 2,0,-1
157 173 m 2,17,18
 157 128 157 128 183.5 108.5 c 128,-1,19
 210 89 210 89 249 89 c 2,20,-1
 395 89 l 2,21,22
 482 89 482 89 482 172 c 2,23,-1
 482 560 l 2,24,25
 482 643 482 643 396 643 c 2,26,-1
 248 643 l 2,27,28
 201 643 201 643 179 619 c 128,-1,29
 157 595 157 595 157 560 c 2,30,-1
 157 173 l 2,17,18
EndSplineSet
Substitution2: "'dnom' Denominators in Latin lookup 19 subtable" zero.denominator
Substitution2: "'sups' Superscript lookup 17 subtable" zerosuperior
Substitution2: "'onum' Oldstyle Figures in Latin lookup 15 subtable" zero.oldstyle
Substitution2: "'tnum' Tabular Numbers in Latin lookup 14 subtable" zero.tnum
Substitution2: "'numr' Numerators in Latin lookup 13 subtable" zero.numerator
Substitution2: "'zero' Slashed Zero lookup 12 subtable" uni0338
Substitution2: "'sinf' Scientific Inferiors lookup 11 subtable" zeroinferior
Substitution2: "'frac' Diagonal Fractions lookup 5 subtable" zero.numerator
Substitution2: "'smcp' Lowercase to Small Capitals lookup 1 subtable" zero.smcp
EndChar

StartChar: one
Encoding: 49 49 20
Width: 364
GlyphClass: 2
Flags: W
LayerCount: 2
Fore
SplineSet
290 732 m 1,0,-1
 290 0 l 1,1,-1
 198 0 l 1,2,-1
 198 633 l 1,3,-1
 37 584 l 1,4,-1
 37 648 l 1,5,-1
 198 732 l 1,6,-1
 290 732 l 1,0,-1
EndSplineSet
Substitution2: "'dnom' Denominators in Latin lookup 19 subtable" one.denominator
Substitution2: "'sups' Superscript lookup 17 subtable" onesuperior
Substitution2: "'onum' Oldstyle Figures in Latin lookup 15 subtable" one.oldstyle
Substitution2: "'tnum' Tabular Numbers in Latin lookup 14 subtable" one.tnum
Substitution2: "'numr' Numerators in Latin lookup 13 subtable" one.numerator
Substitution2: "'sinf' Scientific Inferiors lookup 11 subtable" oneinferior
Substitution2: "'frac' Diagonal Fractions lookup 5 subtable" one.numerator
Substitution2: "'smcp' Lowercase to Small Capitals lookup 1 subtable" one.smcp
EndChar

StartChar: two
Encoding: 50 50 21
Width: 594
GlyphClass: 2
Flags: W
LayerCount: 2
Fore
SplineSet
37 652 m 1,0,-1
 37 720 l 1,1,2
 192 742 192 742 341 742 c 0,3,4
 463 742 463 742 517 649 c 0,5,6
 548 597 548 597 548 536 c 128,-1,7
 548 475 548 475 519 414.5 c 128,-1,8
 490 354 490 354 451.5 307 c 128,-1,9
 413 260 413 260 361 211 c 0,10,11
 286 141 286 141 213 89 c 1,12,-1
 548 89 l 1,13,-1
 548 0 l 1,14,-1
 44 0 l 1,15,-1
 44 83 l 1,16,17
 141 148 141 148 218 213.5 c 128,-1,18
 295 279 295 279 341.5 327 c 128,-1,19
 388 375 388 375 421.5 430.5 c 128,-1,20
 455 486 455 486 455 535.5 c 128,-1,21
 455 585 455 585 424 618.5 c 128,-1,22
 393 652 393 652 328 652 c 2,23,-1
 37 652 l 1,0,-1
EndSplineSet
Substitution2: "'dnom' Denominators in Latin lookup 19 subtable" two.denominator
Substitution2: "'sups' Superscript lookup 17 subtable" twosuperior
Substitution2: "'onum' Oldstyle Figures in Latin lookup 15 subtable" two.oldstyle
Substitution2: "'tnum' Tabular Numbers in Latin lookup 14 subtable" two.tnum
Substitution2: "'numr' Numerators in Latin lookup 13 subtable" two.numerator
Substitution2: "'sinf' Scientific Inferiors lookup 11 subtable" twoinferior
Substitution2: "'frac' Diagonal Fractions lookup 5 subtable" two.numerator
Substitution2: "'smcp' Lowercase to Small Capitals lookup 1 subtable" two.smcp
EndChar

StartChar: three
Encoding: 51 51 22
Width: 591
GlyphClass: 2
Flags: W
LayerCount: 2
Fore
SplineSet
341 -7 m 2,0,-1
 282 -7 l 2,1,2
 270 -7 270 -7 264 -7 c 128,-1,3
 258 -7 258 -7 231 -6.5 c 128,-1,4
 204 -6 204 -6 194 -5.5 c 128,-1,5
 184 -5 184 -5 161.5 -3.5 c 128,-1,6
 139 -2 139 -2 126.5 0 c 128,-1,7
 114 2 114 2 96 5 c 0,8,9
 66 10 66 10 34 21 c 1,10,-1
 35 83 l 1,11,-1
 321 83 l 2,12,13
 402 83 402 83 419 123 c 1,14,15
 428 141 428 141 428 169 c 2,16,-1
 428 221 l 2,17,18
 428 315 428 315 327 318 c 2,19,-1
 96 326 l 1,20,-1
 96 398 l 1,21,-1
 327 408 l 2,22,23
 430 413 430 413 430 500 c 2,24,-1
 430 560 l 2,25,26
 430 590 430 590 414 610 c 0,27,28
 387 645 387 645 327 645 c 2,29,-1
 28 645 l 1,30,-1
 28 706 l 1,31,32
 109 735 109 735 243 735 c 0,33,34
 292 735 292 735 348 734 c 0,35,36
 428 733 428 733 474.5 686.5 c 128,-1,37
 521 640 521 640 521 566 c 2,38,-1
 521 501 l 2,39,40
 521 391 521 391 453 364 c 1,41,42
 521 325 521 325 521 218 c 2,43,-1
 521 164 l 2,44,45
 521 -7 521 -7 341 -7 c 2,0,-1
EndSplineSet
Substitution2: "'dnom' Denominators in Latin lookup 19 subtable" three.denominator
Substitution2: "'sups' Superscript lookup 17 subtable" threesuperior
Substitution2: "'onum' Oldstyle Figures in Latin lookup 15 subtable" three.oldstyle
Substitution2: "'tnum' Tabular Numbers in Latin lookup 14 subtable" three.tnum
Substitution2: "'numr' Numerators in Latin lookup 13 subtable" three.numerator
Substitution2: "'sinf' Scientific Inferiors lookup 11 subtable" threeinferior
Substitution2: "'frac' Diagonal Fractions lookup 5 subtable" three.numerator
Substitution2: "'smcp' Lowercase to Small Capitals lookup 1 subtable" three.smcp
EndChar

StartChar: four
Encoding: 52 52 23
Width: 607
GlyphClass: 2
Flags: W
LayerCount: 2
Fore
SplineSet
412 272 m 1,0,-1
 412 469 l 1,1,-1
 447 544 l 1,2,-1
 504 544 l 1,3,-1
 504 272 l 1,4,-1
 589 272 l 1,5,-1
 589 200 l 1,6,-1
 504 180 l 1,7,-1
 504 2 l 1,8,-1
 412 2 l 1,9,-1
 412 180 l 1,10,-1
 53 180 l 1,11,-1
 19 224 l 1,12,-1
 323 732 l 1,13,-1
 429 732 l 1,14,-1
 156 272 l 1,15,-1
 412 272 l 1,0,-1
EndSplineSet
Substitution2: "'dnom' Denominators in Latin lookup 19 subtable" four.denominator
Substitution2: "'sups' Superscript lookup 17 subtable" foursuperior
Substitution2: "'onum' Oldstyle Figures in Latin lookup 15 subtable" four.oldstyle
Substitution2: "'tnum' Tabular Numbers in Latin lookup 14 subtable" four.tnum
Substitution2: "'numr' Numerators in Latin lookup 13 subtable" four.numerator
Substitution2: "'sinf' Scientific Inferiors lookup 11 subtable" fourinferior
Substitution2: "'frac' Diagonal Fractions lookup 5 subtable" four.numerator
Substitution2: "'smcp' Lowercase to Small Capitals lookup 1 subtable" four.smcp
EndChar

StartChar: five
Encoding: 53 53 24
Width: 601
GlyphClass: 2
Flags: W
LayerCount: 2
Fore
SplineSet
170 422 m 1,0,1
 200 453 200 453 293 453 c 0,2,3
 320 453 320 453 347.5 452 c 128,-1,4
 375 451 375 451 400 450.5 c 128,-1,5
 425 450 425 450 457 437 c 128,-1,6
 489 424 489 424 508 401 c 0,7,8
 546 356 546 356 546 280 c 2,9,-1
 546 169 l 2,10,11
 546 120 546 120 529.5 84.5 c 128,-1,12
 513 49 513 49 486 31 c 0,13,14
 435 -4 435 -4 377 -4 c 0,15,16
 275 -4 275 -4 220.5 0 c 128,-1,17
 166 4 166 4 71 20 c 1,18,-1
 71 90 l 1,19,-1
 369 90 l 2,20,21
 415 90 415 90 434.5 115.5 c 128,-1,22
 454 141 454 141 454 177 c 2,23,-1
 454 275 l 2,24,25
 454 308 454 308 449 319.5 c 128,-1,26
 444 331 444 331 438 339 c 128,-1,27
 432 347 432 347 423 352 c 0,28,29
 403 363 403 363 371 363 c 2,30,-1
 233 363 l 2,31,32
 201 363 201 363 179 345.5 c 128,-1,33
 157 328 157 328 157 293 c 1,34,-1
 73 293 l 1,35,-1
 95 732 l 1,36,-1
 523 732 l 1,37,-1
 523 643 l 1,38,-1
 181 643 l 1,39,-1
 170 422 l 1,0,1
EndSplineSet
Substitution2: "'dnom' Denominators in Latin lookup 19 subtable" five.denominator
Substitution2: "'sups' Superscript lookup 17 subtable" fivesuperior
Substitution2: "'onum' Oldstyle Figures in Latin lookup 15 subtable" five.oldstyle
Substitution2: "'tnum' Tabular Numbers in Latin lookup 14 subtable" five.tnum
Substitution2: "'numr' Numerators in Latin lookup 13 subtable" five.numerator
Substitution2: "'sinf' Scientific Inferiors lookup 11 subtable" fiveinferior
Substitution2: "'frac' Diagonal Fractions lookup 5 subtable" five.numerator
Substitution2: "'smcp' Lowercase to Small Capitals lookup 1 subtable" five.smcp
EndChar

StartChar: six
Encoding: 54 54 25
Width: 619
GlyphClass: 2
Flags: W
LayerCount: 2
Fore
SplineSet
70 223.5 m 128,-1,1
 61 292 61 292 61 385.5 c 128,-1,2
 61 479 61 479 75.5 550 c 128,-1,3
 90 621 90 621 116 660 c 0,4,5
 165 736 165 736 233 737 c 0,6,7
 254 738 254 738 274 738 c 0,8,9
 406 738 406 738 539 718 c 1,10,-1
 539 649 l 1,11,-1
 261 649 l 2,12,13
 217 649 217 649 193 605 c 0,14,15
 169 562 169 562 163 522 c 0,16,17
 154 458 154 458 153 412 c 1,18,19
 297 432 297 432 399 432 c 0,20,21
 491 432 491 432 533 386 c 0,22,23
 563 352 563 352 563 278 c 2,24,-1
 563 152 l 2,25,26
 563 -1 563 -1 398 -1 c 2,27,-1
 250 -1 l 2,28,29
 215 -1 215 -1 188 9 c 128,-1,30
 161 19 161 19 136 44.5 c 128,-1,31
 111 70 111 70 95 112.5 c 128,-1,0
 79 155 79 155 70 223.5 c 128,-1,1
153 345 m 1,32,33
 153 230 153 230 169 180 c 0,34,35
 188 118 188 118 218 100 c 0,36,37
 237 88 237 88 262 88 c 2,38,-1
 391 88 l 2,39,40
 429 88 429 88 445 98 c 0,41,42
 472 116 472 116 472 164 c 2,43,-1
 472 273 l 2,44,45
 472 314 472 314 450.5 329.5 c 128,-1,46
 429 345 429 345 392 345 c 2,47,-1
 153 345 l 1,32,33
EndSplineSet
Substitution2: "'dnom' Denominators in Latin lookup 19 subtable" six.denominator
Substitution2: "'sups' Superscript lookup 17 subtable" sixsuperior
Substitution2: "'onum' Oldstyle Figures in Latin lookup 15 subtable" six.oldstyle
Substitution2: "'tnum' Tabular Numbers in Latin lookup 14 subtable" six.tnum
Substitution2: "'numr' Numerators in Latin lookup 13 subtable" six.numerator
Substitution2: "'sinf' Scientific Inferiors lookup 11 subtable" sixinferior
Substitution2: "'frac' Diagonal Fractions lookup 5 subtable" six.numerator
Substitution2: "'smcp' Lowercase to Small Capitals lookup 1 subtable" six.smcp
EndChar

StartChar: seven
Encoding: 55 55 26
Width: 548
GlyphClass: 2
Flags: W
LayerCount: 2
Fore
SplineSet
28 643 m 1,0,-1
 28 732 l 1,1,-1
 490 732 l 1,2,-1
 520 680 l 1,3,-1
 261 0 l 1,4,-1
 155 0 l 1,5,-1
 404 643 l 1,6,-1
 28 643 l 1,0,-1
EndSplineSet
Substitution2: "'dnom' Denominators in Latin lookup 19 subtable" seven.denominator
Substitution2: "'sups' Superscript lookup 17 subtable" sevensuperior
Substitution2: "'onum' Oldstyle Figures in Latin lookup 15 subtable" seven.oldstyle
Substitution2: "'tnum' Tabular Numbers in Latin lookup 14 subtable" seven.tnum
Substitution2: "'numr' Numerators in Latin lookup 13 subtable" seven.numerator
Substitution2: "'sinf' Scientific Inferiors lookup 11 subtable" seveninferior
Substitution2: "'frac' Diagonal Fractions lookup 5 subtable" seven.numerator
Substitution2: "'smcp' Lowercase to Small Capitals lookup 1 subtable" seven.smcp
EndChar

StartChar: eight
Encoding: 56 56 27
Width: 631
GlyphClass: 2
Flags: W
LayerCount: 2
Fore
SplineSet
70 158 m 2,0,-1
 70 249 l 2,1,2
 70 333 70 333 153 358 c 1,3,4
 122 369 122 369 103 393 c 0,5,6
 70 434 70 434 70 499 c 2,7,-1
 70 564 l 2,8,9
 70 659 70 659 117 698 c 128,-1,10
 164 737 164 737 249 737 c 2,11,-1
 397 737 l 2,12,13
 480 737 480 737 521 696 c 128,-1,14
 562 655 562 655 562 564 c 2,15,-1
 562 502 l 1,16,17
 563 476 563 476 554 449 c 0,18,19
 536 396 536 396 487 386 c 1,20,21
 506 382 506 382 521.5 367 c 128,-1,22
 537 352 537 352 546 332 c 1,23,24
 562 291 562 291 562 253 c 2,25,-1
 562 159 l 2,26,27
 562 52 562 52 484 17 c 0,28,29
 445 0 445 0 396 0 c 2,30,-1
 249 0 l 2,31,32
 199 0 199 0 163.5 13 c 128,-1,33
 128 26 128 26 110.5 42.5 c 128,-1,34
 93 59 93 59 83 84 c 0,35,36
 70 117 70 117 70 158 c 2,0,-1
162 160 m 2,37,38
 162 88 162 88 256 88 c 2,39,-1
 387 88 l 2,40,41
 422 88 422 88 446 106.5 c 128,-1,42
 470 125 470 125 470 160 c 2,43,-1
 470 255 l 2,44,45
 470 292 470 292 447 311.5 c 128,-1,46
 424 331 424 331 390 331 c 2,47,-1
 246 331 l 2,48,49
 209 331 209 331 185.5 313 c 128,-1,50
 162 295 162 295 162 255 c 2,51,-1
 162 160 l 2,37,38
162 494 m 2,52,53
 162 465 162 465 177 446 c 0,54,55
 201 416 201 416 246 416 c 2,56,-1
 389 416 l 2,57,58
 470 416 470 416 470 494 c 2,59,-1
 470 556 l 2,60,61
 470 607 470 607 450 628.5 c 128,-1,62
 430 650 430 650 388 650 c 2,63,-1
 256 650 l 2,64,65
 206 650 206 650 184 632 c 128,-1,66
 162 614 162 614 162 556 c 2,67,-1
 162 494 l 2,52,53
EndSplineSet
Substitution2: "'dnom' Denominators in Latin lookup 19 subtable" eight.denominator
Substitution2: "'sups' Superscript lookup 17 subtable" eightsuperior
Substitution2: "'onum' Oldstyle Figures in Latin lookup 15 subtable" eight.oldstyle
Substitution2: "'tnum' Tabular Numbers in Latin lookup 14 subtable" eight.tnum
Substitution2: "'numr' Numerators in Latin lookup 13 subtable" eight.numerator
Substitution2: "'sinf' Scientific Inferiors lookup 11 subtable" eightinferior
Substitution2: "'frac' Diagonal Fractions lookup 5 subtable" eight.numerator
Substitution2: "'smcp' Lowercase to Small Capitals lookup 1 subtable" eight.smcp
EndChar

StartChar: nine
Encoding: 57 57 28
Width: 619
GlyphClass: 2
Flags: W
LayerCount: 2
Fore
SplineSet
56 459 m 2,0,-1
 56 584 l 2,1,2
 56 737 56 737 222 737 c 2,3,-1
 369 737 l 2,4,5
 404 737 404 737 431.5 727.5 c 128,-1,6
 459 718 459 718 483.5 692 c 128,-1,7
 508 666 508 666 524 624 c 0,8,9
 559 532 559 532 559 352 c 0,10,11
 559 89 559 89 449 19 c 0,12,13
 420 0 420 0 388 -1 c 128,-1,14
 356 -2 356 -2 327 -2 c 0,15,16
 176 -2 176 -2 80 18 c 1,17,-1
 80 87 l 1,18,-1
 359 87 l 2,19,20
 385 87 385 87 404.5 104.5 c 128,-1,21
 424 122 424 122 435.5 147 c 128,-1,22
 447 172 447 172 454 206 c 0,23,24
 465 260 465 260 467 325 c 1,25,26
 323 304 323 304 247 304 c 128,-1,27
 171 304 171 304 137 316 c 128,-1,28
 103 328 103 328 86 351 c 0,29,30
 56 392 56 392 56 459 c 2,0,-1
147 463 m 2,31,32
 147 423 147 423 168.5 407 c 128,-1,33
 190 391 190 391 228 391 c 2,34,-1
 467 391 l 1,35,36
 467 578 467 578 413 627 c 0,37,38
 390 648 390 648 358 648 c 2,39,-1
 228 648 l 2,40,41
 190 648 190 648 174 638 c 0,42,43
 147 620 147 620 147 572 c 2,44,-1
 147 463 l 2,31,32
EndSplineSet
Substitution2: "'dnom' Denominators in Latin lookup 19 subtable" nine.denominator
Substitution2: "'sups' Superscript lookup 17 subtable" ninesuperior
Substitution2: "'onum' Oldstyle Figures in Latin lookup 15 subtable" nine.oldstyle
Substitution2: "'tnum' Tabular Numbers in Latin lookup 14 subtable" nine.tnum
Substitution2: "'numr' Numerators in Latin lookup 13 subtable" nine.numerator
Substitution2: "'sinf' Scientific Inferiors lookup 11 subtable" nineinferior
Substitution2: "'frac' Diagonal Fractions lookup 5 subtable" nine.numerator
Substitution2: "'smcp' Lowercase to Small Capitals lookup 1 subtable" nine.smcp
EndChar

StartChar: colon
Encoding: 58 58 29
Width: 269
GlyphClass: 2
Flags: W
LayerCount: 2
Fore
SplineSet
79 23 m 2,0,-1
 79 89 l 2,1,2
 79 114 79 114 103 114 c 2,3,-1
 165 114 l 2,4,5
 190 114 190 114 190 89 c 2,6,-1
 190 23 l 2,7,8
 190 0 190 0 165 0 c 2,9,-1
 103 0 l 2,10,11
 93 0 93 0 86 6.5 c 128,-1,12
 79 13 79 13 79 23 c 2,0,-1
79 441 m 2,13,-1
 79 507 l 2,14,15
 79 532 79 532 103 532 c 2,16,-1
 165 532 l 2,17,18
 190 532 190 532 190 507 c 2,19,-1
 190 441 l 2,20,21
 190 418 190 418 165 418 c 2,22,-1
 103 418 l 2,23,24
 89 418 89 418 84 426 c 128,-1,25
 79 434 79 434 79 441 c 2,13,-1
EndSplineSet
EndChar

StartChar: semicolon
Encoding: 59 59 30
Width: 271
GlyphClass: 2
Flags: W
LayerCount: 2
Fore
SplineSet
188 -11 m 2,0,1
 188 -90 188 -90 106 -90 c 0,2,3
 100 -90 100 -90 95 -90 c 2,4,-1
 84 -88 l 1,5,-1
 84 -52 l 1,6,7
 98 -52 98 -52 106 -46 c 0,8,9
 115 -39 115 -39 115 -22 c 2,10,-1
 115 0 l 1,11,-1
 104 0 l 2,12,13
 94 0 94 0 86.5 7.5 c 128,-1,14
 79 15 79 15 79 25 c 2,15,-1
 79 88 l 2,16,17
 79 104 79 104 88 109.5 c 128,-1,18
 97 115 97 115 104 115 c 2,19,-1
 164 115 l 2,20,21
 188 115 188 115 188 88 c 2,22,-1
 188 -11 l 2,0,1
81 442 m 2,23,-1
 81 508 l 2,24,25
 81 533 81 533 105 533 c 2,26,-1
 167 533 l 2,27,28
 192 533 192 533 192 508 c 2,29,-1
 192 442 l 2,30,31
 192 419 192 419 167 419 c 2,32,-1
 105 419 l 2,33,34
 91 419 91 419 86 427 c 128,-1,35
 81 435 81 435 81 442 c 2,23,-1
EndSplineSet
EndChar

StartChar: less
Encoding: 60 60 31
Width: 468
GlyphClass: 2
Flags: W
LayerCount: 2
Fore
SplineSet
47 307 m 1,0,-1
 47 400 l 1,1,-1
 422 558 l 1,2,-1
 422 464 l 1,3,-1
 159 354 l 1,4,-1
 422 234 l 1,5,-1
 422 138 l 1,6,-1
 47 307 l 1,0,-1
EndSplineSet
EndChar

StartChar: equal
Encoding: 61 61 32
Width: 467
GlyphClass: 2
Flags: W
LayerCount: 2
Fore
SplineSet
20 204 m 1,0,-1
 20 290 l 1,1,-1
 447 290 l 1,2,-1
 447 204 l 1,3,-1
 20 204 l 1,0,-1
20 415 m 1,4,-1
 20 501 l 1,5,-1
 447 501 l 1,6,-1
 447 415 l 1,7,-1
 20 415 l 1,4,-1
EndSplineSet
EndChar

StartChar: greater
Encoding: 62 62 33
Width: 468
GlyphClass: 2
Flags: W
LayerCount: 2
Fore
SplineSet
47 138 m 1,0,-1
 47 234 l 1,1,-1
 309 354 l 1,2,-1
 47 464 l 1,3,-1
 47 558 l 1,4,-1
 422 400 l 1,5,-1
 422 307 l 1,6,-1
 47 138 l 1,0,-1
EndSplineSet
EndChar

StartChar: question
Encoding: 63 63 34
Width: 541
GlyphClass: 2
Flags: W
LayerCount: 2
Fore
SplineSet
199.5 739 m 128,-1,1
 212 739 212 739 226.5 739.5 c 128,-1,2
 241 740 241 740 256 740 c 128,-1,3
 271 740 271 740 313.5 739.5 c 128,-1,4
 356 739 356 739 396.5 723.5 c 128,-1,5
 437 708 437 708 460 681 c 0,6,7
 504 629 504 629 504 551 c 2,8,-1
 504 457 l 2,9,10
 504 360 504 360 440 319 c 0,11,12
 392 289 392 289 320 289 c 0,13,14
 295 289 295 289 266 293 c 1,15,-1
 266 195 l 1,16,-1
 180 195 l 1,17,-1
 180 366 l 1,18,-1
 315 366 l 1,19,20
 372 368 372 368 398 406 c 0,21,22
 413 427 413 427 413 458 c 2,23,-1
 413 546 l 2,24,25
 413 601 413 601 382.5 625 c 128,-1,26
 352 649 352 649 284 649 c 2,27,-1
 19 649 l 1,28,-1
 19 717 l 1,29,30
 25 718 25 718 50 722 c 128,-1,31
 75 726 75 726 81.5 727 c 128,-1,32
 88 728 88 728 109.5 730.5 c 128,-1,33
 131 733 131 733 140 734 c 128,-1,34
 149 735 149 735 168 737 c 128,-1,0
 187 739 187 739 199.5 739 c 128,-1,1
168 23 m 2,35,-1
 168 89 l 2,36,37
 168 114 168 114 192 114 c 2,38,-1
 255 114 l 2,39,40
 279 114 279 114 279 89 c 2,41,-1
 279 23 l 2,42,43
 279 0 279 0 255 0 c 2,44,-1
 192 0 l 2,45,46
 181 0 181 0 174.5 6.5 c 128,-1,47
 168 13 168 13 168 23 c 2,35,-1
EndSplineSet
Substitution2: "'smcp' Lowercase to Small Capitals lookup 1 subtable" question.smcp
EndChar

StartChar: at
Encoding: 64 64 35
Width: 850
GlyphClass: 2
Flags: W
LayerCount: 2
Fore
SplineSet
239 512 m 2,0,-1
 448 512 l 2,1,2
 510 512 510 512 555 484 c 0,3,4
 607 452 607 452 607 368 c 2,5,-1
 607 0 l 1,6,-1
 542 0 l 1,7,-1
 526 62 l 1,8,9
 526 62 526 62 516.5 55 c 128,-1,10
 507 48 507 48 490.5 37.5 c 128,-1,11
 474 27 474 27 454 16 c 0,12,13
 405 -9 405 -9 355 -9 c 0,14,15
 353 -9 353 -9 351 -9 c 0,16,17
 297 -9 297 -9 261.5 25.5 c 128,-1,18
 226 60 226 60 227 112 c 1,19,-1
 227 162 l 2,20,21
 227 225 227 225 261.5 261 c 128,-1,22
 296 297 296 297 360 297 c 2,23,-1
 524 297 l 1,24,25
 525 330 525 330 525 347 c 128,-1,26
 525 364 525 364 524 364 c 1,27,28
 524 401 524 401 505.5 414.5 c 128,-1,29
 487 428 487 428 446 428 c 2,30,-1
 239 428 l 2,31,32
 170 428 170 428 153 385 c 0,33,34
 145 366 145 366 145 338 c 2,35,-1
 145 6 l 2,36,37
 145 -98 145 -98 239 -98 c 2,38,-1
 584 -98 l 2,39,40
 660 -98 660 -98 678 -52 c 0,41,42
 687 -30 687 -30 687 6 c 2,43,-1
 687 503 l 2,44,45
 687 559 687 559 659 588.5 c 128,-1,46
 631 618 631 618 584 618 c 2,47,-1
 180 618 l 1,48,-1
 180 675 l 1,49,50
 310 702 310 702 459 702 c 0,51,52
 466 702 466 702 472 702 c 2,53,-1
 584 702 l 1,54,55
 669 701 669 701 720 651 c 128,-1,56
 771 601 771 601 771 503 c 2,57,-1
 771 6 l 2,58,59
 771 -184 771 -184 585 -184 c 2,60,-1
 239 -184 l 2,61,62
 158 -184 158 -184 109.5 -136.5 c 128,-1,63
 61 -89 61 -89 61 3 c 2,64,-1
 61 339 l 2,65,66
 61 421 61 421 104 466 c 0,67,68
 122 485 122 485 157 498.5 c 128,-1,69
 192 512 192 512 239 512 c 2,0,-1
368 75 m 0,70,71
 369 75 369 75 370 75 c 128,-1,72
 371 75 371 75 372 75 c 0,73,74
 433 75 433 75 524 126 c 1,75,-1
 524 238 l 1,76,-1
 368 223 l 2,77,78
 341 220 341 220 326.5 203.5 c 128,-1,79
 312 187 312 187 313 162 c 1,80,81
 312 161 312 161 312 141.5 c 128,-1,82
 312 122 312 122 313 122 c 1,83,84
 313 105 313 105 329.5 90 c 128,-1,85
 346 75 346 75 368 75 c 0,70,71
EndSplineSet
Substitution2: "'case' Case-Sensitive Forms lookup 18 subtable" at.alt
Substitution2: "'smcp' Lowercase to Small Capitals lookup 1 subtable" at.smcp
EndChar

StartChar: A
Encoding: 65 65 36
Width: 676
GlyphClass: 2
Flags: W
LayerCount: 2
Fore
SplineSet
42 0 m 1,0,-1
 305 732 l 1,1,-1
 402 732 l 1,2,-1
 654 0 l 1,3,-1
 549 0 l 1,4,-1
 489 193 l 1,5,-1
 212 193 l 1,6,-1
 149 0 l 1,7,-1
 42 0 l 1,0,-1
241 280 m 1,8,-1
 461 280 l 1,9,-1
 353 600 l 1,10,-1
 241 280 l 1,8,-1
EndSplineSet
Substitution2: "'c2sc' Capitals to Small Capitals in Latin lookup 2 subtable" a.smcp
EndChar

StartChar: B
Encoding: 66 66 37
Width: 598
GlyphClass: 2
Flags: W
LayerCount: 2
Fore
SplineSet
362 732 m 2,0,1
 415 732 415 732 454.5 715 c 128,-1,2
 494 698 494 698 515 669 c 0,3,4
 557 613 557 613 557 540 c 0,5,6
 557 406 557 406 462 380 c 1,7,8
 503 371 503 371 533 326.5 c 128,-1,9
 563 282 563 282 563 207 c 0,10,11
 563 118 563 118 521 62 c 0,12,13
 475 0 475 0 363 0 c 2,14,-1
 75 0 l 1,15,-1
 75 732 l 1,16,-1
 362 732 l 2,0,1
168 88 m 1,17,-1
 361 88 l 2,18,19
 471 88 471 88 471 210 c 0,20,21
 471 266 471 266 443.5 303 c 128,-1,22
 416 340 416 340 361 340 c 2,23,-1
 168 340 l 1,24,-1
 168 88 l 1,17,-1
168 426 m 1,25,-1
 360 426 l 2,26,27
 411 426 411 426 438 454 c 128,-1,28
 465 482 465 482 465 537 c 0,29,30
 465 622 465 622 397 640 c 0,31,32
 380 644 380 644 360 644 c 2,33,-1
 168 644 l 1,34,-1
 168 426 l 1,25,-1
EndSplineSet
Substitution2: "'c2sc' Capitals to Small Capitals in Latin lookup 2 subtable" b.smcp
EndChar

StartChar: C
Encoding: 67 67 38
Width: 576
GlyphClass: 2
Flags: W
LayerCount: 2
Fore
SplineSet
51 362 m 0,0,1
 51 442 51 442 57.5 497 c 128,-1,2
 64 552 64 552 80.5 599.5 c 128,-1,3
 97 647 97 647 124 677 c 0,4,5
 183 740 183 740 297 740 c 0,6,7
 347 740 347 740 418.5 732 c 128,-1,8
 490 724 490 724 544 713 c 1,9,-1
 544 640 l 1,10,11
 544 640 544 640 538.5 640.5 c 128,-1,12
 533 641 533 641 524 641.5 c 128,-1,13
 515 642 515 642 502.5 643 c 128,-1,14
 490 644 490 644 475 644.5 c 128,-1,15
 460 645 460 645 443.5 646 c 128,-1,16
 427 647 427 647 409 648 c 128,-1,17
 391 649 391 649 373 650 c 0,18,19
 336 651 336 651 297.5 651 c 128,-1,20
 259 651 259 651 230 640 c 128,-1,21
 201 629 201 629 180.5 597.5 c 128,-1,22
 160 566 160 566 151.5 510.5 c 128,-1,23
 143 455 143 455 143 392.5 c 128,-1,24
 143 330 143 330 145.5 299 c 128,-1,25
 148 268 148 268 153.5 238.5 c 128,-1,26
 159 209 159 209 167 185.5 c 128,-1,27
 175 162 175 162 188 142.5 c 128,-1,28
 201 123 201 123 218 110 c 0,29,30
 253 83 253 83 303 83 c 0,31,32
 399 83 399 83 508 88 c 1,33,-1
 544 90 l 1,34,-1
 544 17 l 1,35,36
 494 7 494 7 423.5 0.5 c 128,-1,37
 353 -6 353 -6 326 -6 c 128,-1,38
 299 -6 299 -6 297 -6 c 0,39,40
 161 -6 161 -6 104 99 c 0,41,42
 51 197 51 197 51 362 c 0,0,1
EndSplineSet
Substitution2: "'c2sc' Capitals to Small Capitals in Latin lookup 2 subtable" c.smcp
EndChar

StartChar: D
Encoding: 68 68 39
Width: 658
GlyphClass: 2
Flags: W
LayerCount: 2
Fore
SplineSet
75 0 m 1,0,-1
 75 732 l 1,1,-1
 357 732 l 2,2,3
 421 732 421 732 469 708 c 128,-1,4
 517 684 517 684 544 648 c 128,-1,5
 571 612 571 612 588 561 c 0,6,7
 616 476 616 476 616 363 c 0,8,9
 616 177 616 177 530 76 c 0,10,11
 501 41 501 41 456.5 20.5 c 128,-1,12
 412 0 412 0 357 0 c 2,13,-1
 75 0 l 1,0,-1
167 90 m 1,14,-1
 354 90 l 2,15,16
 413 90 413 90 452 128 c 0,17,18
 524 197 524 197 524 356 c 128,-1,19
 524 515 524 515 481 579.5 c 128,-1,20
 438 644 438 644 354 644 c 2,21,-1
 167 644 l 1,22,-1
 167 90 l 1,14,-1
EndSplineSet
Substitution2: "'c2sc' Capitals to Small Capitals in Latin lookup 2 subtable" d.smcp
EndChar

StartChar: E
Encoding: 69 69 40
Width: 567
GlyphClass: 2
Flags: W
LayerCount: 2
Fore
SplineSet
202 732 m 0,0,1
 205 732 205 732 357 725 c 128,-1,2
 509 718 509 718 527 716 c 1,3,-1
 527 642 l 1,4,-1
 218 642 l 2,5,6
 181 642 181 642 172 624 c 0,7,8
 166 610 166 610 166 586 c 2,9,-1
 166 410 l 1,10,-1
 485 399 l 1,11,-1
 485 325 l 1,12,-1
 166 315 l 1,13,-1
 166 139 l 1,14,15
 167 101 167 101 187 93 c 0,16,17
 203 87 203 87 228 87 c 2,18,-1
 527 87 l 1,19,-1
 527 14 l 1,20,-1
 219 -3 l 2,21,22
 211 -3 211 -3 203 -3 c 0,23,24
 74 -3 74 -3 74 129 c 2,25,-1
 74 596 l 2,26,27
 74 670 74 670 111.5 701 c 128,-1,28
 149 732 149 732 202 732 c 0,0,1
EndSplineSet
Substitution2: "'c2sc' Capitals to Small Capitals in Latin lookup 2 subtable" e.smcp
EndChar

StartChar: F
Encoding: 70 70 41
Width: 567
GlyphClass: 2
Flags: W
LayerCount: 2
Fore
SplineSet
202 732 m 0,0,1
 205 732 205 732 357 725 c 128,-1,2
 509 718 509 718 527 716 c 1,3,-1
 527 642 l 1,4,-1
 218 642 l 2,5,6
 181 642 181 642 172 624 c 0,7,8
 166 610 166 610 166 586 c 2,9,-1
 166 410 l 1,10,-1
 485 399 l 1,11,-1
 485 325 l 1,12,-1
 166 315 l 1,13,-1
 166 0 l 1,14,-1
 74 0 l 1,15,-1
 74 595 l 2,16,17
 74 668 74 668 111.5 700 c 128,-1,18
 149 732 149 732 202 732 c 0,0,1
EndSplineSet
Substitution2: "'c2sc' Capitals to Small Capitals in Latin lookup 2 subtable" f.smcp
EndChar

StartChar: G
Encoding: 71 71 42
Width: 614
GlyphClass: 2
Flags: W
LayerCount: 2
Fore
SplineSet
473 49 m 1,0,1
 389 -5 389 -5 283 -5 c 0,2,3
 172 -5 172 -5 116 64 c 0,4,5
 68 124 68 124 56 249 c 0,6,7
 51 300 51 300 51 368 c 128,-1,8
 51 436 51 436 56.5 487 c 128,-1,9
 62 538 62 538 77 587.5 c 128,-1,10
 92 637 92 637 118 669 c 0,11,12
 174 740 174 740 287 740 c 0,13,14
 339 740 339 740 414 732 c 128,-1,15
 489 724 489 724 548 712 c 1,16,-1
 548 639 l 1,17,18
 547 639 547 639 530 640.5 c 128,-1,19
 513 642 513 642 486 644 c 128,-1,20
 459 646 459 646 428 648 c 0,21,22
 353 653 353 653 305.5 653 c 128,-1,23
 258 653 258 653 231.5 641.5 c 128,-1,24
 205 630 205 630 187.5 609 c 128,-1,25
 170 588 170 588 161 552 c 1,26,27
 143 489 143 489 143 348 c 128,-1,28
 143 207 143 207 176 146 c 0,29,30
 210 84 210 84 299 84 c 0,31,32
 331 84 331 84 374 95 c 128,-1,33
 417 106 417 106 444 118 c 2,34,-1
 471 130 l 1,35,-1
 471 311 l 1,36,-1
 321 311 l 1,37,-1
 321 372 l 1,38,39
 399 397 399 397 495 397 c 0,40,41
 527 397 527 397 563 394 c 1,42,-1
 563 0 l 1,43,-1
 495 0 l 1,44,-1
 473 49 l 1,0,1
EndSplineSet
Substitution2: "'c2sc' Capitals to Small Capitals in Latin lookup 2 subtable" g.smcp
EndChar

StartChar: H
Encoding: 72 72 43
Width: 637
GlyphClass: 2
Flags: W
LayerCount: 2
Fore
SplineSet
75 0 m 1,0,-1
 75 732 l 1,1,-1
 167 732 l 1,2,-1
 167 398 l 1,3,-1
 490 398 l 1,4,-1
 490 732 l 1,5,-1
 582 732 l 1,6,-1
 582 0 l 1,7,-1
 490 0 l 1,8,-1
 490 310 l 1,9,-1
 167 310 l 1,10,-1
 167 0 l 1,11,-1
 75 0 l 1,0,-1
EndSplineSet
Substitution2: "'c2sc' Capitals to Small Capitals in Latin lookup 2 subtable" h.smcp
EndChar

StartChar: I
Encoding: 73 73 44
Width: 222
GlyphClass: 2
Flags: W
LayerCount: 2
Fore
SplineSet
75 0 m 1,0,-1
 75 732 l 1,1,-1
 167 732 l 1,2,-1
 167 0 l 1,3,-1
 75 0 l 1,0,-1
EndSplineSet
Substitution2: "'c2sc' Capitals to Small Capitals in Latin lookup 2 subtable" i.smcp
EndChar

StartChar: J
Encoding: 74 74 45
Width: 358
GlyphClass: 2
Flags: W
LayerCount: 2
Fore
SplineSet
250 18 m 0,0,1
 212 -6 212 -6 143.5 -6 c 128,-1,2
 75 -6 75 -6 33 22 c 1,3,-1
 36 91 l 1,4,5
 39 90 39 90 50.5 88 c 128,-1,6
 62 86 62 86 71 84 c 128,-1,7
 80 82 80 82 96 80 c 128,-1,8
 112 78 112 78 121.5 78.5 c 128,-1,9
 131 79 131 79 145 80.5 c 128,-1,10
 159 82 159 82 166.5 86.5 c 128,-1,11
 174 91 174 91 183.5 98.5 c 128,-1,12
 193 106 193 106 198 118 c 0,13,14
 210 145 210 145 210 182 c 2,15,-1
 210 732 l 1,16,-1
 302 732 l 1,17,-1
 302 165 l 2,18,19
 302 133 302 133 300 111.5 c 128,-1,20
 298 90 298 90 285.5 61.5 c 128,-1,21
 273 33 273 33 250 18 c 0,0,1
EndSplineSet
Substitution2: "'c2sc' Capitals to Small Capitals in Latin lookup 2 subtable" j.smcp
EndChar

StartChar: K
Encoding: 75 75 46
Width: 601
GlyphClass: 2
Flags: W
LayerCount: 2
Fore
SplineSet
75 0 m 1,0,-1
 75 732 l 1,1,-1
 165 732 l 1,2,-1
 165 410 l 1,3,-1
 241 410 l 1,4,-1
 459 732 l 1,5,-1
 569 732 l 1,6,-1
 324 367 l 1,7,-1
 569 0 l 1,8,-1
 459 0 l 1,9,-1
 241 322 l 1,10,-1
 166 322 l 1,11,-1
 166 0 l 1,12,-1
 75 0 l 1,0,-1
EndSplineSet
Substitution2: "'c2sc' Capitals to Small Capitals in Latin lookup 2 subtable" k.smcp
EndChar

StartChar: L
Encoding: 76 76 47
Width: 552
GlyphClass: 2
Flags: W
LayerCount: 2
Fore
SplineSet
75 130 m 2,0,-1
 75 732 l 1,1,-1
 167 732 l 1,2,-1
 167 141 l 2,3,4
 167 103 167 103 188 95 c 0,5,6
 203 89 203 89 229 89 c 2,7,-1
 520 89 l 1,8,-1
 520 0 l 1,9,-1
 215 0 l 2,10,11
 113 0 113 0 86 63 c 0,12,13
 75 90 75 90 75 130 c 2,0,-1
EndSplineSet
Substitution2: "'c2sc' Capitals to Small Capitals in Latin lookup 2 subtable" l.smcp
EndChar

StartChar: M
Encoding: 77 77 48
Width: 813
GlyphClass: 2
Flags: W
LayerCount: 2
Fore
SplineSet
51 0 m 1,0,-1
 104 732 l 1,1,-1
 231 732 l 1,2,-1
 406 153 l 1,3,-1
 577 732 l 1,4,-1
 703 732 l 1,5,-1
 763 0 l 1,6,-1
 671 0 l 1,7,-1
 625 568 l 1,8,-1
 456 0 l 1,9,-1
 358 0 l 1,10,-1
 184 568 l 1,11,-1
 143 0 l 1,12,-1
 51 0 l 1,0,-1
EndSplineSet
AlternateSubs2: "'salt' Stylistic Alternatives in Latin lookup 16 subtable" M.salt
Substitution2: "'c2sc' Capitals to Small Capitals in Latin lookup 2 subtable" m.smcp
EndChar

StartChar: N
Encoding: 78 78 49
Width: 679
GlyphClass: 2
Flags: W
LayerCount: 2
Fore
SplineSet
75 0 m 1,0,-1
 75 732 l 1,1,-1
 169 732 l 1,2,-1
 532 171 l 1,3,-1
 532 732 l 1,4,-1
 624 732 l 1,5,-1
 624 0 l 1,6,-1
 532 0 l 1,7,-1
 168 560 l 1,8,-1
 168 0 l 1,9,-1
 75 0 l 1,0,-1
EndSplineSet
AlternateSubs2: "'salt' Stylistic Alternatives in Latin lookup 16 subtable" N.salt
Substitution2: "'c2sc' Capitals to Small Capitals in Latin lookup 2 subtable" n.smcp
EndChar

StartChar: O
Encoding: 79 79 50
Width: 674
GlyphClass: 2
Flags: W
LayerCount: 2
Fore
SplineSet
61 376 m 0,0,1
 61 461 61 461 75.5 531.5 c 128,-1,2
 90 602 90 602 112.5 641.5 c 128,-1,3
 135 681 135 681 175 703 c 128,-1,4
 215 725 215 725 252.5 731 c 128,-1,5
 290 737 290 737 339.5 737 c 128,-1,6
 389 737 389 737 418.5 734 c 128,-1,7
 448 731 448 731 479.5 722 c 128,-1,8
 511 713 511 713 532.5 697 c 128,-1,9
 554 681 554 681 574.5 653 c 128,-1,10
 595 625 595 625 607 586 c 0,11,12
 633 499 633 499 633 361 c 0,13,14
 633 199 633 199 598 123 c 1,15,16
 581 83 581 83 558.5 57.5 c 128,-1,17
 536 32 536 32 501 19 c 0,18,19
 442 -4 442 -4 348 -4 c 0,20,21
 211 -4 211 -4 159 35 c 0,22,23
 106 74 106 74 86 143 c 0,24,25
 61 227 61 227 61 376 c 0,0,1
154.5 437.5 m 128,-1,27
 153 403 153 403 153 355.5 c 128,-1,28
 153 308 153 308 156 269.5 c 128,-1,29
 159 231 159 231 165 201 c 128,-1,30
 171 171 171 171 182.5 151 c 128,-1,31
 194 131 194 131 208 117.5 c 128,-1,32
 222 104 222 104 244 97 c 0,33,34
 283 85 283 85 334.5 85 c 128,-1,35
 386 85 386 85 412.5 89 c 128,-1,36
 439 93 439 93 462 104.5 c 128,-1,37
 485 116 485 116 499 135 c 128,-1,38
 513 154 513 154 523 185 c 0,39,40
 541 241 541 241 541 361 c 0,41,42
 541 450 541 450 534.5 487.5 c 128,-1,43
 528 525 528 525 523.5 546 c 128,-1,44
 519 567 519 567 510 582.5 c 128,-1,45
 501 598 501 598 493 609 c 128,-1,46
 485 620 485 620 471 627.5 c 128,-1,47
 457 635 457 635 446.5 639 c 128,-1,48
 436 643 436 643 417 645 c 0,49,50
 389 648 389 648 357 648 c 128,-1,51
 325 648 325 648 311.5 647.5 c 128,-1,52
 298 647 298 647 279 645 c 128,-1,53
 260 643 260 643 249.5 639 c 128,-1,54
 239 635 239 635 225 628 c 128,-1,55
 211 621 211 621 203 610 c 128,-1,56
 195 599 195 599 185.5 583.5 c 128,-1,57
 176 568 176 568 171 547 c 128,-1,58
 166 526 166 526 161 499 c 128,-1,26
 156 472 156 472 154.5 437.5 c 128,-1,27
EndSplineSet
Substitution2: "'c2sc' Capitals to Small Capitals in Latin lookup 2 subtable" o.smcp
EndChar

StartChar: P
Encoding: 80 80 51
Width: 586
GlyphClass: 2
Flags: W
LayerCount: 2
Fore
SplineSet
58 0 m 1,0,-1
 58 732 l 1,1,-1
 362 732 l 2,2,3
 545 732 545 732 545 516 c 0,4,5
 545 327 545 327 432 298 c 0,6,7
 404 290 404 290 385 290 c 128,-1,8
 366 290 366 290 350 290.5 c 128,-1,9
 334 291 334 291 244 299.5 c 128,-1,10
 154 308 154 308 150 310 c 1,11,-1
 150 0 l 1,12,-1
 58 0 l 1,0,-1
359 644 m 2,13,-1
 150 644 l 1,14,-1
 150 378 l 1,15,-1
 359 378 l 2,16,17
 400 378 400 378 424 401 c 0,18,19
 452 429 452 429 452 516 c 1,20,21
 451 600 451 600 418 625 c 0,22,23
 392 644 392 644 359 644 c 2,13,-1
EndSplineSet
Substitution2: "'c2sc' Capitals to Small Capitals in Latin lookup 2 subtable" p.smcp
EndChar

StartChar: Q
Encoding: 81 81 52
Width: 674
GlyphClass: 2
Flags: W
LayerCount: 2
Fore
SplineSet
61 366 m 128,-1,1
 61 433 61 433 68 489.5 c 128,-1,2
 75 546 75 546 87 585.5 c 128,-1,3
 99 625 99 625 119.5 653 c 128,-1,4
 140 681 140 681 161.5 697 c 128,-1,5
 183 713 183 713 215 722 c 0,6,7
 266 737 266 737 326.5 737 c 128,-1,8
 387 737 387 737 416.5 734 c 128,-1,9
 446 731 446 731 478 722 c 128,-1,10
 510 713 510 713 531.5 697 c 128,-1,11
 553 681 553 681 574 653 c 128,-1,12
 595 625 595 625 607 586 c 0,13,14
 633 499 633 499 633 361 c 0,15,16
 633 199 633 199 598 123 c 0,17,18
 580 83 580 83 557.5 57.5 c 128,-1,19
 535 32 535 32 500 19 c 0,20,21
 440 -4 440 -4 346 -4 c 0,22,23
 225 -4 225 -4 176 24 c 0,24,25
 125 53 125 53 103 99 c 1,26,27
 74 163 74 163 67.5 231 c 128,-1,0
 61 299 61 299 61 366 c 128,-1,1
154.5 437.5 m 128,-1,29
 153 403 153 403 153 355.5 c 128,-1,30
 153 308 153 308 156 269.5 c 128,-1,31
 159 231 159 231 165 201 c 128,-1,32
 171 171 171 171 182 151 c 128,-1,33
 193 131 193 131 207 117.5 c 128,-1,34
 221 104 221 104 243 97 c 0,35,36
 281 85 281 85 336.5 85 c 128,-1,37
 392 85 392 85 422.5 91.5 c 128,-1,38
 453 98 453 98 477.5 114.5 c 128,-1,39
 502 131 502 131 514 163 c 1,40,41
 541 227 541 227 541 335.5 c 128,-1,42
 541 444 541 444 532 498.5 c 128,-1,43
 523 553 523 553 510.5 583 c 128,-1,44
 498 613 498 613 469.5 627.5 c 128,-1,45
 441 642 441 642 417 645 c 128,-1,46
 393 648 393 648 358 648 c 128,-1,47
 323 648 323 648 309.5 647.5 c 128,-1,48
 296 647 296 647 277.5 645 c 128,-1,49
 259 643 259 643 248.5 639 c 128,-1,50
 238 635 238 635 224 628 c 128,-1,51
 210 621 210 621 202 610 c 128,-1,52
 194 599 194 599 184.5 583.5 c 128,-1,53
 175 568 175 568 170.5 547 c 128,-1,54
 166 526 166 526 161 499 c 128,-1,28
 156 472 156 472 154.5 437.5 c 128,-1,29
372 -33 m 1,55,56
 414 -70 414 -70 467 -70 c 0,57,58
 496 -70 496 -70 538 -55 c 1,59,-1
 538 -144 l 1,60,61
 515 -153 515 -153 497 -153 c 128,-1,62
 479 -153 479 -153 456.5 -151.5 c 128,-1,63
 434 -150 434 -150 400.5 -138.5 c 128,-1,64
 367 -127 367 -127 342 -99 c 128,-1,65
 317 -71 317 -71 312 -33 c 1,66,-1
 372 -33 l 1,55,56
EndSplineSet
Substitution2: "'c2sc' Capitals to Small Capitals in Latin lookup 2 subtable" q.smcp
EndChar

StartChar: R
Encoding: 82 82 53
Width: 596
GlyphClass: 2
Flags: W
LayerCount: 2
Fore
SplineSet
372 732 m 2,0,1
 549 732 549 732 549 510 c 0,2,3
 549 439 549 439 537.5 408.5 c 128,-1,4
 526 378 526 378 518 362 c 128,-1,5
 510 346 510 346 498.5 335.5 c 128,-1,6
 487 325 487 325 478.5 318.5 c 128,-1,7
 470 312 470 312 457 307 c 0,8,9
 440 301 440 301 425 298 c 1,10,-1
 575 0 l 1,11,-1
 474 0 l 1,12,-1
 329 293 l 1,13,-1
 150 307 l 1,14,-1
 150 0 l 1,15,-1
 58 0 l 1,16,-1
 58 732 l 1,17,-1
 372 732 l 2,0,1
150 385 m 1,18,-1
 368 385 l 2,19,20
 423 385 423 385 439 414 c 0,21,22
 456 445 456 445 456 498.5 c 128,-1,23
 456 552 456 552 449 580 c 128,-1,24
 442 608 442 608 428 621 c 0,25,26
 405 644 405 644 368 644 c 2,27,-1
 150 644 l 1,28,-1
 150 385 l 1,18,-1
EndSplineSet
Substitution2: "'c2sc' Capitals to Small Capitals in Latin lookup 2 subtable" r.smcp
EndChar

StartChar: S
Encoding: 83 83 54
Width: 585
GlyphClass: 2
Flags: W
LayerCount: 2
Fore
SplineSet
180 729.5 m 128,-1,1
 214 738 214 738 237.5 738 c 128,-1,2
 261 738 261 738 285 738 c 128,-1,3
 309 738 309 738 394 729 c 128,-1,4
 479 720 479 720 518 713 c 1,5,-1
 518 639 l 1,6,7
 476 642 476 642 380 645 c 0,8,9
 273 649 273 649 253.5 649 c 128,-1,10
 234 649 234 649 219 647.5 c 128,-1,11
 204 646 204 646 186 637 c 0,12,13
 153 620 153 620 153 554 c 2,14,-1
 153 496 l 2,15,16
 153 439 153 439 175.5 422.5 c 128,-1,17
 198 406 198 406 249 406 c 2,18,-1
 383 406 l 2,19,20
 544 406 544 406 544 228 c 2,21,-1
 544 165 l 2,22,23
 544 46 544 46 455 10 c 0,24,25
 410 -8 410 -8 350.5 -8 c 128,-1,26
 291 -8 291 -8 208 0.5 c 128,-1,27
 125 9 125 9 83 18 c 1,28,-1
 83 92 l 1,29,30
 193 81 193 81 272 81 c 128,-1,31
 351 81 351 81 363 82 c 128,-1,32
 375 83 375 83 393 87.5 c 128,-1,33
 411 92 411 92 423 100 c 0,34,35
 452 121 452 121 452 164 c 2,36,-1
 452 224 l 2,37,38
 452 267 452 267 435 290.5 c 128,-1,39
 418 314 418 314 374 314 c 2,40,-1
 242 314 l 2,41,42
 112 314 112 314 77 396 c 0,43,44
 61 435 61 435 61 492 c 2,45,-1
 61 557 l 2,46,47
 61 662 61 662 118 702 c 0,48,0
 146 721 146 721 180 729.5 c 128,-1,1
EndSplineSet
Substitution2: "'c2sc' Capitals to Small Capitals in Latin lookup 2 subtable" s.smcp
EndChar

StartChar: T
Encoding: 84 84 55
Width: 582
GlyphClass: 2
Flags: W
LayerCount: 2
Fore
SplineSet
41 643 m 1,0,-1
 41 732 l 1,1,-1
 558 732 l 1,2,-1
 558 643 l 1,3,-1
 343 643 l 1,4,-1
 343 0 l 1,5,-1
 251 0 l 1,6,-1
 251 643 l 1,7,-1
 41 643 l 1,0,-1
EndSplineSet
Substitution2: "'c2sc' Capitals to Small Capitals in Latin lookup 2 subtable" t.smcp
EndChar

StartChar: U
Encoding: 85 85 56
Width: 673
GlyphClass: 2
Flags: W
LayerCount: 2
Fore
SplineSet
349 -5 m 2,0,-1
 335 -5 l 2,1,2
 217 -5 217 -5 179 20 c 0,3,4
 161 32 161 32 138 55.5 c 128,-1,5
 115 79 115 79 103 113 c 0,6,7
 75 197 75 197 75 320 c 2,8,-1
 75 732 l 1,9,-1
 167 732 l 1,10,-1
 167 320 l 2,11,12
 167 246 167 246 173.5 215 c 128,-1,13
 180 184 180 184 184.5 166.5 c 128,-1,14
 189 149 189 149 198 136.5 c 128,-1,15
 207 124 207 124 214.5 115 c 128,-1,16
 222 106 222 106 235.5 100 c 128,-1,17
 249 94 249 94 259 91 c 128,-1,18
 269 88 269 88 286 86 c 0,19,20
 312 84 312 84 342.5 84 c 128,-1,21
 373 84 373 84 389.5 85 c 128,-1,22
 406 86 406 86 426 91.5 c 128,-1,23
 446 97 446 97 459 106 c 128,-1,24
 472 115 472 115 486 132.5 c 128,-1,25
 500 150 500 150 507 175 c 0,26,27
 525 231 525 231 525 320 c 2,28,-1
 525 732 l 1,29,-1
 618 732 l 1,30,-1
 618 320 l 2,31,32
 618 124 618 124 549 57 c 0,33,34
 525 33 525 33 506 21 c 128,-1,35
 487 9 487 9 454 3 c 0,36,37
 412 -5 412 -5 349 -5 c 2,0,-1
EndSplineSet
Substitution2: "'c2sc' Capitals to Small Capitals in Latin lookup 2 subtable" u.smcp
EndChar

StartChar: V
Encoding: 86 86 57
Width: 674
GlyphClass: 2
Flags: W
LayerCount: 2
Fore
SplineSet
42 732 m 1,0,-1
 141 732 l 1,1,-1
 342 136 l 1,2,-1
 552 732 l 1,3,-1
 651 732 l 1,4,-1
 390 0 l 1,5,-1
 292 0 l 1,6,-1
 42 732 l 1,0,-1
EndSplineSet
Substitution2: "'c2sc' Capitals to Small Capitals in Latin lookup 2 subtable" v.smcp
EndChar

StartChar: W
Encoding: 87 87 58
Width: 970
GlyphClass: 2
Flags: W
LayerCount: 2
Fore
SplineSet
42 732 m 1,0,-1
 141 732 l 1,1,-1
 341 145 l 1,2,-1
 508 732 l 1,3,-1
 610 732 l 1,4,-1
 547 510 l 1,5,-1
 675 140 l 1,6,-1
 848 732 l 1,7,-1
 947 732 l 1,8,-1
 726 0 l 1,9,-1
 628 0 l 1,10,-1
 501 354 l 1,11,-1
 390 0 l 1,12,-1
 292 0 l 1,13,-1
 42 732 l 1,0,-1
EndSplineSet
Substitution2: "'c2sc' Capitals to Small Capitals in Latin lookup 2 subtable" w.smcp
EndChar

StartChar: X
Encoding: 88 88 59
Width: 608
GlyphClass: 2
Flags: W
LayerCount: 2
Fore
SplineSet
42 732 m 1,0,-1
 143 732 l 1,1,-1
 312 441 l 1,2,-1
 484 732 l 1,3,-1
 585 732 l 1,4,-1
 368 370 l 1,5,-1
 580 0 l 1,6,-1
 479 0 l 1,7,-1
 312 291 l 1,8,-1
 146 0 l 1,9,-1
 45 0 l 1,10,-1
 256 370 l 1,11,-1
 42 732 l 1,0,-1
EndSplineSet
AlternateSubs2: "'salt' Stylistic Alternatives in Latin lookup 16 subtable" X.salt
Substitution2: "'c2sc' Capitals to Small Capitals in Latin lookup 2 subtable" x.smcp
EndChar

StartChar: Y
Encoding: 89 89 60
Width: 637
GlyphClass: 2
Flags: W
LayerCount: 2
Fore
SplineSet
364 0 m 1,0,-1
 272 0 l 1,1,-1
 272 251 l 1,2,-1
 42 732 l 1,3,-1
 142 732 l 1,4,-1
 319 357 l 1,5,-1
 514 732 l 1,6,-1
 614 732 l 1,7,-1
 364 251 l 1,8,-1
 364 0 l 1,0,-1
EndSplineSet
Substitution2: "'c2sc' Capitals to Small Capitals in Latin lookup 2 subtable" y.smcp
EndChar

StartChar: Z
Encoding: 90 90 61
Width: 561
GlyphClass: 2
Flags: W
LayerCount: 2
Fore
SplineSet
33 0 m 1,0,-1
 33 89 l 1,1,-1
 412 643 l 1,2,-1
 33 643 l 1,3,-1
 33 732 l 1,4,-1
 529 732 l 1,5,-1
 529 643 l 1,6,-1
 154 89 l 1,7,-1
 529 89 l 1,8,-1
 529 0 l 1,9,-1
 33 0 l 1,0,-1
EndSplineSet
Substitution2: "'c2sc' Capitals to Small Capitals in Latin lookup 2 subtable" z.smcp
EndChar

StartChar: bracketleft
Encoding: 91 91 62
Width: 324
GlyphClass: 2
Flags: W
LayerCount: 2
Fore
SplineSet
79 -30 m 2,0,-1
 79 666 l 2,1,2
 79 739 79 739 106 780 c 1,3,4
 145 842 145 842 224 842 c 2,5,-1
 306 842 l 1,6,-1
 306 756 l 1,7,-1
 233 756 l 2,8,9
 189 756 189 756 176 701 c 0,10,11
 171 683 171 683 171 661 c 2,12,-1
 171 -29 l 2,13,14
 171 -74 171 -74 188 -99 c 128,-1,15
 205 -124 205 -124 233 -124 c 2,16,-1
 306 -124 l 1,17,-1
 306 -210 l 1,18,-1
 224 -210 l 2,19,20
 188 -210 188 -210 160.5 -197.5 c 128,-1,21
 133 -185 133 -185 118 -166.5 c 128,-1,22
 103 -148 103 -148 94 -122 c 0,23,24
 79 -81 79 -81 79 -30 c 2,0,-1
EndSplineSet
EndChar

StartChar: backslash
Encoding: 92 92 63
Width: 415
GlyphClass: 2
Flags: W
LayerCount: 2
Fore
SplineSet
19 770 m 1,0,-1
 116 770 l 1,1,-1
 397 -72 l 1,2,-1
 300 -72 l 1,3,-1
 19 770 l 1,0,-1
EndSplineSet
EndChar

StartChar: bracketright
Encoding: 93 93 64
Width: 324
GlyphClass: 2
Flags: W
LayerCount: 2
Fore
SplineSet
19 -124 m 1,0,-1
 91 -124 l 2,1,2
 120 -124 120 -124 136.5 -99 c 128,-1,3
 153 -74 153 -74 153 -29 c 2,4,-1
 153 661 l 2,5,6
 153 706 153 706 136.5 731 c 128,-1,7
 120 756 120 756 91 756 c 2,8,-1
 19 756 l 1,9,-1
 19 842 l 1,10,-1
 100 842 l 2,11,12
 160 842 160 842 193 812 c 0,13,14
 225 782 225 782 233 752 c 0,15,16
 245 704 245 704 245 666 c 2,17,-1
 245 -30 l 2,18,19
 245 -119 245 -119 207 -166 c 0,20,21
 192 -185 192 -185 164.5 -197.5 c 128,-1,22
 137 -210 137 -210 100 -210 c 2,23,-1
 19 -210 l 1,24,-1
 19 -124 l 1,0,-1
EndSplineSet
EndChar

StartChar: asciicircum
Encoding: 94 94 65
Width: 389
GlyphClass: 2
Flags: W
LayerCount: 2
Fore
SplineSet
47 531 m 1,0,-1
 161 662 l 1,1,-1
 241 662 l 1,2,-1
 343 531 l 1,3,-1
 266 531 l 1,4,-1
 199 599 l 1,5,-1
 125 531 l 1,6,-1
 47 531 l 1,0,-1
EndSplineSet
EndChar

StartChar: underscore
Encoding: 95 95 66
Width: 674
GlyphClass: 2
Flags: W
LayerCount: 2
Fore
SplineSet
20 -1 m 1,0,-1
 20 85 l 1,1,-1
 654 85 l 1,2,-1
 654 -1 l 1,3,-1
 20 -1 l 1,0,-1
EndSplineSet
EndChar

StartChar: grave
Encoding: 96 96 67
Width: 242
GlyphClass: 2
Flags: W
LayerCount: 2
Fore
SplineSet
19 666 m 1,0,-1
 121 666 l 1,1,-1
 224 531 l 1,2,-1
 149 531 l 1,3,-1
 19 666 l 1,0,-1
EndSplineSet
Substitution2: "'smcp' Lowercase to Small Capitals lookup 1 subtable" grave.smcp
EndChar

StartChar: a
Encoding: 97 97 68
Width: 519
GlyphClass: 2
Flags: W
LayerCount: 2
Fore
SplineSet
54 509 m 1,0,1
 156 541 156 541 312 541 c 0,2,3
 410 541 410 541 450 475 c 0,4,5
 472 438 472 438 472 382 c 2,6,-1
 472 0 l 1,7,-1
 402 0 l 1,8,-1
 380 62 l 1,9,10
 377 59 377 59 347 43.5 c 128,-1,11
 317 28 317 28 266 11 c 128,-1,12
 215 -6 215 -6 176 -6 c 0,13,14
 114 -6 114 -6 75.5 31 c 128,-1,15
 37 68 37 68 37 129 c 2,16,-1
 37 187 l 2,17,18
 37 248 37 248 73.5 285.5 c 128,-1,19
 110 323 110 323 176 323 c 0,20,21
 278 323 278 323 329 323 c 128,-1,22
 380 323 380 323 380 323 c 1,23,24
 381 352 381 352 381 366.5 c 128,-1,25
 381 381 381 381 380.5 390 c 128,-1,26
 380 399 380 399 376.5 412 c 128,-1,27
 373 425 373 425 366.5 434 c 128,-1,28
 360 443 360 443 350 448 c 0,29,30
 332 459 332 459 301 458 c 1,31,32
 219 458 219 458 54 447 c 1,33,-1
 54 509 l 1,0,1
129 138 m 2,34,35
 129 78 129 78 186 78 c 0,36,37
 219 78 219 78 267.5 90.5 c 128,-1,38
 316 103 316 103 348 115 c 2,39,-1
 380 127 l 1,40,-1
 380 257 l 1,41,-1
 184 243 l 1,42,43
 129 238 129 238 129 181 c 2,44,-1
 129 138 l 2,34,35
EndSplineSet
AlternateSubs2: "'salt' Stylistic Alternatives in Latin lookup 16 subtable" a.salt
Substitution2: "'smcp' Lowercase to Small Capitals lookup 1 subtable" a.smcp
EndChar

StartChar: b
Encoding: 98 98 69
Width: 554
GlyphClass: 2
Flags: W
LayerCount: 2
Fore
SplineSet
146 785 m 1,0,-1
 146 500 l 1,1,2
 189 518 189 518 243 528.5 c 128,-1,3
 297 539 297 539 331 539 c 128,-1,4
 365 539 365 539 390.5 531 c 128,-1,5
 416 523 416 523 434 509.5 c 128,-1,6
 452 496 452 496 465.5 475.5 c 128,-1,7
 479 455 479 455 487 432.5 c 128,-1,8
 495 410 495 410 500 380 c 0,9,10
 508 331 508 331 508 263 c 0,11,12
 508 -6 508 -6 334 -6 c 0,13,14
 289 -6 289 -6 231 16 c 128,-1,15
 173 38 173 38 147 58 c 1,16,-1
 126 0 l 1,17,-1
 56 0 l 1,18,-1
 56 785 l 1,19,-1
 146 785 l 1,0,-1
324 80 m 0,20,21
 416 80 416 80 416 264 c 0,22,23
 416 378 416 378 392 418 c 0,24,25
 369 455 369 455 324 455 c 0,26,27
 234 455 234 455 147 431 c 1,28,-1
 147 123 l 1,29,30
 242 80 242 80 324 80 c 0,20,21
EndSplineSet
AlternateSubs2: "'salt' Stylistic Alternatives in Latin lookup 16 subtable" b.salt
Substitution2: "'smcp' Lowercase to Small Capitals lookup 1 subtable" b.smcp
EndChar

StartChar: c
Encoding: 99 99 70
Width: 498
GlyphClass: 2
Flags: W
LayerCount: 2
Fore
SplineSet
47 266 m 128,-1,1
 47 333 47 333 55.5 381.5 c 128,-1,2
 64 430 64 430 78.5 459.5 c 128,-1,3
 93 489 93 489 116 507 c 1,4,5
 156 536 156 536 222 536 c 0,6,7
 282 536 282 536 350.5 526.5 c 128,-1,8
 419 517 419 517 454 508 c 1,9,-1
 454 446 l 1,10,11
 327 452 327 452 271.5 452 c 128,-1,12
 216 452 216 452 203.5 449.5 c 128,-1,13
 191 447 191 447 177 437 c 128,-1,14
 163 427 163 427 156 407 c 0,15,16
 139 360 139 360 139 274 c 128,-1,17
 139 188 139 188 149 148.5 c 128,-1,18
 159 109 159 109 179.5 94.5 c 128,-1,19
 200 80 200 80 240 80 c 0,20,21
 320 80 320 80 426 87 c 1,22,-1
 461 90 l 1,23,-1
 461 25 l 1,24,25
 391 1 391 1 305 -3 c 0,26,27
 201 -8 201 -8 171 -0.5 c 128,-1,28
 141 7 141 7 117.5 24.5 c 128,-1,29
 94 42 94 42 79.5 71.5 c 128,-1,30
 65 101 65 101 56 150 c 128,-1,0
 47 199 47 199 47 266 c 128,-1,1
EndSplineSet
Substitution2: "'smcp' Lowercase to Small Capitals lookup 1 subtable" c.smcp
EndChar

StartChar: d
Encoding: 100 100 71
Width: 554
GlyphClass: 2
Flags: W
LayerCount: 2
Fore
SplineSet
47 263 m 0,0,1
 47 421 47 421 95 484 c 0,2,3
 137 539 137 539 221 539 c 0,4,5
 273 539 273 539 326 525.5 c 128,-1,6
 379 512 379 512 408 500 c 1,7,-1
 408 785 l 1,8,-1
 499 785 l 1,9,-1
 499 0 l 1,10,-1
 429 0 l 1,11,-1
 408 58 l 1,12,13
 382 38 382 38 324 16 c 128,-1,14
 266 -6 266 -6 221 -6 c 0,15,16
 47 -6 47 -6 47 263 c 0,0,1
139 264 m 0,17,18
 139 80 139 80 231 80 c 0,19,20
 313 80 313 80 408 123 c 1,21,-1
 408 431 l 1,22,23
 321 455 321 455 231 455 c 0,24,25
 200 455 200 455 181 441 c 0,26,27
 139 408 139 408 139 264 c 0,17,18
EndSplineSet
AlternateSubs2: "'salt' Stylistic Alternatives in Latin lookup 16 subtable" d.salt
Substitution2: "'smcp' Lowercase to Small Capitals lookup 1 subtable" d.smcp
EndChar

StartChar: e
Encoding: 101 101 72
Width: 525
GlyphClass: 2
Flags: W
LayerCount: 2
Fore
SplineSet
70 441 m 0,0,1
 83 471 83 471 100 489.5 c 128,-1,2
 117 508 117 508 145 518 c 0,3,4
 193 535 193 535 279 535 c 0,5,6
 381 535 381 535 417 516 c 0,7,8
 456 495 456 495 470 460 c 0,9,10
 488 416 488 416 488 345 c 0,11,12
 488 220 488 220 348 220 c 2,13,-1
 139 220 l 1,14,15
 139 135 139 135 161 107 c 128,-1,16
 183 79 183 79 243 79 c 0,17,18
 408 79 408 79 478 90 c 1,19,-1
 478 23 l 1,20,21
 386 -5 386 -5 222 -5 c 0,22,23
 121 -5 121 -5 84 54 c 128,-1,24
 47 113 47 113 47 250 c 128,-1,25
 47 387 47 387 70 441 c 0,0,1
396 347 m 0,26,27
 396 385 396 385 392 404 c 128,-1,28
 388 423 388 423 374.5 434.5 c 128,-1,29
 361 446 361 446 341 449 c 128,-1,30
 321 452 321 452 289.5 452 c 128,-1,31
 258 452 258 452 246 451.5 c 128,-1,32
 234 451 234 451 216.5 449 c 128,-1,33
 199 447 199 447 191 443.5 c 128,-1,34
 183 440 183 440 172 432.5 c 128,-1,35
 161 425 161 425 156.5 414 c 128,-1,36
 152 403 152 403 147 387 c 0,37,38
 139 361 139 361 139 301 c 1,39,-1
 338 301 l 2,40,41
 396 301 396 301 396 347 c 0,26,27
EndSplineSet
Substitution2: "'smcp' Lowercase to Small Capitals lookup 1 subtable" e.smcp
EndChar

StartChar: f
Encoding: 102 102 73
Width: 401
GlyphClass: 2
Flags: W
LayerCount: 2
Fore
SplineSet
19 448 m 1,0,-1
 19 514 l 1,1,-1
 112 531 l 1,2,-1
 112 630 l 2,3,4
 112 680 112 680 119 700 c 128,-1,5
 126 720 126 720 132.5 732 c 128,-1,6
 139 744 139 744 149.5 753.5 c 128,-1,7
 160 763 160 763 173 771 c 0,8,9
 199 786 199 786 254.5 786 c 128,-1,10
 310 786 310 786 382 762 c 1,11,-1
 382 704 l 1,12,-1
 267 705 l 2,13,14
 217 706 217 706 208 672 c 0,15,16
 204 655 204 655 204 621 c 2,17,-1
 204 531 l 1,18,-1
 344 531 l 1,19,-1
 344 448 l 1,20,-1
 204 448 l 1,21,-1
 204 0 l 1,22,-1
 112 0 l 1,23,-1
 112 448 l 1,24,-1
 19 448 l 1,0,-1
EndSplineSet
AlternateSubs2: "'salt' Stylistic Alternatives in Latin lookup 16 subtable" f.salt
Substitution2: "'smcp' Lowercase to Small Capitals lookup 1 subtable" f.smcp
EndChar

StartChar: g
Encoding: 103 103 74
Width: 555
GlyphClass: 2
Flags: W
LayerCount: 2
Fore
SplineSet
45 112 m 0,0,1
 45 141 45 141 60 166 c 128,-1,2
 75 191 75 191 104 198 c 1,3,4
 46 235 46 235 46 336.5 c 128,-1,5
 46 438 46 438 92 485.5 c 128,-1,6
 138 533 138 533 222 533 c 2,7,-1
 537 533 l 1,8,-1
 537 470 l 1,9,-1
 462 452 l 1,10,11
 463 450 463 450 469 439 c 128,-1,12
 475 428 475 428 477 422.5 c 128,-1,13
 479 417 479 417 483 404 c 0,14,15
 490 381 490 381 490 349 c 128,-1,16
 490 317 490 317 486.5 294.5 c 128,-1,17
 483 272 483 272 472 245 c 128,-1,18
 461 218 461 218 443 197.5 c 128,-1,19
 425 177 425 177 393.5 163 c 128,-1,20
 362 149 362 149 321 149 c 2,21,-1
 174 149 l 2,22,23
 133 149 133 149 133 121 c 0,24,25
 133 89 133 89 174 89 c 2,26,-1
 373 89 l 2,27,28
 438 89 438 89 474 51 c 128,-1,29
 510 13 510 13 510 -54 c 2,30,-1
 510 -116 l 2,31,32
 510 -229 510 -229 421 -260 c 0,33,34
 393 -270 393 -270 355 -270 c 2,35,-1
 205 -270 l 2,36,37
 105 -270 105 -270 65 -202 c 0,38,39
 44 -167 44 -167 44 -116 c 2,40,-1
 44 -36 l 1,41,-1
 85 25 l 1,42,43
 45 52 45 52 45 112 c 0,0,1
180 4 m 2,44,45
 155 4 155 4 136 11 c 1,46,-1
 136 -111 l 2,47,48
 136 -160 136 -160 163 -174 c 0,49,50
 185 -186 185 -186 216 -186 c 2,51,-1
 347 -186 l 2,52,53
 387 -186 387 -186 402.5 -166.5 c 128,-1,54
 418 -147 418 -147 418 -112 c 2,55,-1
 418 -59 l 2,56,57
 418 -25 418 -25 405 -10.5 c 128,-1,58
 392 4 392 4 354 4 c 2,59,-1
 180 4 l 2,44,45
223 233 m 2,60,-1
 309 233 l 2,61,62
 379 233 379 233 395 307 c 0,63,64
 398 322 398 322 398 331 c 0,65,66
 398 395 398 395 378 421.5 c 128,-1,67
 358 448 358 448 308 448 c 2,68,-1
 228 448 l 2,69,70
 138 448 138 448 138 340.5 c 128,-1,71
 138 233 138 233 223 233 c 2,60,-1
EndSplineSet
AlternateSubs2: "'salt' Stylistic Alternatives in Latin lookup 16 subtable" g.salt
Substitution2: "'smcp' Lowercase to Small Capitals lookup 1 subtable" g.smcp
EndChar

StartChar: h
Encoding: 104 104 75
Width: 545
GlyphClass: 2
Flags: W
LayerCount: 2
Fore
SplineSet
148 784 m 1,0,-1
 148 470 l 1,1,2
 151 472 151 472 164.5 480.5 c 128,-1,3
 178 489 178 489 181.5 491 c 128,-1,4
 185 493 185 493 197.5 500.5 c 128,-1,5
 210 508 210 508 215.5 510 c 128,-1,6
 221 512 221 512 233 517.5 c 128,-1,7
 245 523 245 523 252 525.5 c 128,-1,8
 259 528 259 528 270.5 531.5 c 128,-1,9
 282 535 282 535 292 536 c 0,10,11
 318 540 318 540 337 540 c 0,12,13
 415 540 415 540 457 489.5 c 128,-1,14
 499 439 499 439 499 366 c 2,15,-1
 499 0 l 1,16,-1
 407 0 l 1,17,-1
 407 366 l 2,18,19
 407 411 407 411 385 433.5 c 128,-1,20
 363 456 363 456 319 456 c 128,-1,21
 275 456 275 456 241 444 c 128,-1,22
 207 432 207 432 148 402 c 1,23,-1
 148 0 l 1,24,-1
 56 0 l 1,25,-1
 56 784 l 1,26,-1
 148 784 l 1,0,-1
EndSplineSet
Substitution2: "'smcp' Lowercase to Small Capitals lookup 1 subtable" h.smcp
EndChar

StartChar: i
Encoding: 105 105 76
Width: 205
GlyphClass: 2
Flags: W
LayerCount: 2
Fore
SplineSet
47 615 m 2,0,-1
 47 678 l 2,1,2
 47 704 47 704 71 704 c 2,3,-1
 136 704 l 2,4,5
 147 704 147 704 153 696.5 c 128,-1,6
 159 689 159 689 159 678 c 2,7,-1
 159 615 l 2,8,9
 159 592 159 592 136 592 c 2,10,-1
 71 592 l 2,11,12
 60 592 60 592 53.5 598.5 c 128,-1,13
 47 605 47 605 47 615 c 2,0,-1
55 0 m 1,14,-1
 55 531 l 1,15,-1
 147 531 l 1,16,-1
 147 0 l 1,17,-1
 55 0 l 1,14,-1
EndSplineSet
Substitution2: "'smcp' Lowercase to Small Capitals lookup 1 subtable" i.smcp
EndChar

StartChar: j
Encoding: 106 106 77
Width: 224
GlyphClass: 2
Flags: W
LayerCount: 2
Fore
SplineSet
56 615 m 2,0,-1
 56 678 l 2,1,2
 56 704 56 704 80 704 c 2,3,-1
 145 704 l 2,4,5
 156 704 156 704 162 696.5 c 128,-1,6
 168 689 168 689 168 678 c 2,7,-1
 168 615 l 2,8,9
 168 592 168 592 145 592 c 2,10,-1
 80 592 l 2,11,12
 69 592 69 592 62.5 598.5 c 128,-1,13
 56 605 56 605 56 615 c 2,0,-1
66 -270 m 1,14,-1
 66 531 l 1,15,-1
 158 531 l 1,16,-1
 158 -4 l 2,17,18
 158 -15 158 -15 158 -26 c 0,19,20
 158 -187 158 -187 129 -270 c 1,21,-1
 66 -270 l 1,14,-1
EndSplineSet
Substitution2: "'smcp' Lowercase to Small Capitals lookup 1 subtable" j.smcp
EndChar

StartChar: k
Encoding: 107 107 78
Width: 515
GlyphClass: 2
Flags: W
LayerCount: 2
Fore
SplineSet
56 0 m 1,0,-1
 56 782 l 1,1,-1
 148 782 l 1,2,-1
 148 345 l 1,3,-1
 185 345 l 1,4,-1
 374 531 l 1,5,-1
 497 531 l 1,6,-1
 271 304 l 1,7,-1
 497 0 l 1,8,-1
 385 0 l 1,9,-1
 185 262 l 1,10,-1
 148 262 l 1,11,-1
 148 0 l 1,12,-1
 56 0 l 1,0,-1
EndSplineSet
Substitution2: "'smcp' Lowercase to Small Capitals lookup 1 subtable" k.smcp
EndChar

StartChar: l
Encoding: 108 108 79
Width: 303
GlyphClass: 2
Flags: W
LayerCount: 2
Fore
SplineSet
56 189 m 2,0,-1
 56 783 l 1,1,-1
 148 783 l 1,2,-1
 148 195 l 2,3,4
 148 136 148 136 161.5 113 c 128,-1,5
 175 90 175 90 202 83 c 0,6,7
 278 62 278 62 285 62 c 1,8,-1
 285 0 l 1,9,-1
 190 0 l 2,10,11
 56 0 56 0 56 189 c 2,0,-1
EndSplineSet
Substitution2: "'smcp' Lowercase to Small Capitals lookup 1 subtable" l.smcp
EndChar

StartChar: m
Encoding: 109 109 80
Width: 891
GlyphClass: 2
Flags: W
LayerCount: 2
Fore
SplineSet
494 401 m 1,0,-1
 494 364 l 1,1,-1
 494 0 l 1,2,-1
 402 0 l 1,3,-1
 402 363 l 2,4,5
 402 404 402 404 379 428.5 c 128,-1,6
 356 453 356 453 321 453 c 128,-1,7
 286 453 286 453 257 446 c 128,-1,8
 228 439 228 439 208.5 430.5 c 128,-1,9
 189 422 189 422 148 400 c 1,10,-1
 148 0 l 1,11,-1
 56 0 l 1,12,-1
 56 531 l 1,13,-1
 125 531 l 1,14,-1
 148 469 l 1,15,16
 154 472 154 472 165 479 c 128,-1,17
 176 486 176 486 181.5 489.5 c 128,-1,18
 187 493 187 493 197.5 499 c 128,-1,19
 208 505 208 505 214.5 508 c 128,-1,20
 221 511 221 511 231 516 c 128,-1,21
 241 521 241 521 249 523.5 c 128,-1,22
 257 526 257 526 267 529 c 128,-1,23
 277 532 277 532 287 534 c 0,24,25
 310 537 310 537 336.5 537 c 128,-1,26
 363 537 363 537 392 529 c 1,27,28
 452 510 452 510 475 462 c 1,29,30
 569 537 569 537 683 537 c 0,31,32
 756 537 756 537 800.5 488.5 c 128,-1,33
 845 440 845 440 845 362 c 2,34,-1
 845 0 l 1,35,-1
 753 0 l 1,36,-1
 753 363 l 2,37,38
 753 419 753 419 714 442 c 0,39,40
 696 453 696 453 656 453 c 0,41,42
 570 453 570 453 494 401 c 1,0,-1
EndSplineSet
AlternateSubs2: "'salt' Stylistic Alternatives in Latin lookup 16 subtable" m.salt
Substitution2: "'smcp' Lowercase to Small Capitals lookup 1 subtable" m.smcp
EndChar

StartChar: n
Encoding: 110 110 81
Width: 545
GlyphClass: 2
Flags: W
LayerCount: 2
Fore
SplineSet
56 0 m 1,0,-1
 56 531 l 1,1,-1
 125 531 l 1,2,-1
 148 470 l 1,3,4
 151 472 151 472 164.5 480.5 c 128,-1,5
 178 489 178 489 182 491 c 128,-1,6
 186 493 186 493 198.5 500.5 c 128,-1,7
 211 508 211 508 216 510 c 128,-1,8
 221 512 221 512 233 518 c 128,-1,9
 245 524 245 524 252 526 c 128,-1,10
 259 528 259 528 270.5 531.5 c 128,-1,11
 282 535 282 535 292 536 c 0,12,13
 318 540 318 540 337 540 c 0,14,15
 415 540 415 540 457 489.5 c 128,-1,16
 499 439 499 439 499 366 c 2,17,-1
 499 0 l 1,18,-1
 407 0 l 1,19,-1
 407 366 l 2,20,21
 407 432 407 432 358 450 c 0,22,23
 344 456 344 456 309.5 456 c 128,-1,24
 275 456 275 456 241 444 c 128,-1,25
 207 432 207 432 148 402 c 1,26,-1
 148 0 l 1,27,-1
 56 0 l 1,0,-1
EndSplineSet
AlternateSubs2: "'salt' Stylistic Alternatives in Latin lookup 16 subtable" n.salt
Substitution2: "'smcp' Lowercase to Small Capitals lookup 1 subtable" n.smcp
EndChar

StartChar: o
Encoding: 111 111 82
Width: 565
GlyphClass: 2
Flags: W
LayerCount: 2
Fore
SplineSet
47 258 m 0,0,1
 47 367 47 367 70 427 c 128,-1,2
 93 487 93 487 143 511.5 c 128,-1,3
 193 536 193 536 283 536 c 0,4,5
 418 536 418 536 468.5 476 c 128,-1,6
 519 416 519 416 519 262.5 c 128,-1,7
 519 109 519 109 468.5 52 c 128,-1,8
 418 -5 418 -5 284 -5 c 128,-1,9
 150 -5 150 -5 98.5 54 c 128,-1,10
 47 113 47 113 47 258 c 0,0,1
142 334.5 m 128,-1,12
 139 303 139 303 139 260 c 128,-1,13
 139 217 139 217 142.5 187 c 128,-1,14
 146 157 146 157 155 137.5 c 128,-1,15
 164 118 164 118 174.5 106.5 c 128,-1,16
 185 95 185 95 204 89 c 0,17,18
 233 79 233 79 275 79.5 c 128,-1,19
 317 80 317 80 337 82.5 c 128,-1,20
 357 85 357 85 376.5 94.5 c 128,-1,21
 396 104 396 104 406 124 c 0,22,23
 427 167 427 167 427 258 c 0,24,25
 427 350 427 350 416 379.5 c 128,-1,26
 405 409 405 409 395.5 421.5 c 128,-1,27
 386 434 386 434 368 441 c 0,28,29
 340 452 340 452 297 452 c 128,-1,30
 254 452 254 452 236 450 c 128,-1,31
 218 448 218 448 199.5 441.5 c 128,-1,32
 181 435 181 435 171.5 422.5 c 128,-1,33
 162 410 162 410 153.5 388 c 128,-1,11
 145 366 145 366 142 334.5 c 128,-1,12
EndSplineSet
Substitution2: "'smcp' Lowercase to Small Capitals lookup 1 subtable" o.smcp
EndChar

StartChar: p
Encoding: 112 112 83
Width: 554
GlyphClass: 2
Flags: W
LayerCount: 2
Fore
SplineSet
339 537 m 128,-1,1
 375 537 375 537 406 521.5 c 128,-1,2
 437 506 437 506 456 481 c 128,-1,3
 475 456 475 456 487 420 c 0,4,5
 508 357 508 357 508 289 c 128,-1,6
 508 221 508 221 504.5 184.5 c 128,-1,7
 501 148 501 148 490 110.5 c 128,-1,8
 479 73 479 73 460 48 c 0,9,10
 418 -8 418 -8 334 -8 c 0,11,12
 297 -8 297 -8 243 2.5 c 128,-1,13
 189 13 189 13 146 30 c 1,14,-1
 146 -270 l 1,15,-1
 56 -270 l 1,16,-1
 56 531 l 1,17,-1
 126 531 l 1,18,-1
 147 474 l 1,19,20
 185 503 185 503 244 520 c 128,-1,0
 303 537 303 537 339 537 c 128,-1,1
324 76 m 0,21,22
 355 76 355 76 374 90 c 0,23,24
 416 123 416 123 416 266 c 0,25,26
 416 451 416 451 324 451 c 0,27,28
 241 451 241 451 147 408 c 1,29,-1
 147 100 l 1,30,31
 233 76 233 76 324 76 c 0,21,22
EndSplineSet
AlternateSubs2: "'salt' Stylistic Alternatives in Latin lookup 16 subtable" p.salt
Substitution2: "'smcp' Lowercase to Small Capitals lookup 1 subtable" p.smcp
EndChar

StartChar: q
Encoding: 113 113 84
Width: 555
GlyphClass: 2
Flags: W
LayerCount: 2
Fore
SplineSet
94 468 m 128,-1,1
 141 537 141 537 230.5 537 c 128,-1,2
 320 537 320 537 499 512 c 1,3,-1
 499 -270 l 1,4,-1
 407 -270 l 1,5,-1
 407 29 l 1,6,7
 366 10 366 10 318 0 c 128,-1,8
 270 -10 270 -10 229.5 -10 c 128,-1,9
 189 -10 189 -10 155.5 3.5 c 128,-1,10
 122 17 122 17 101.5 40.5 c 128,-1,11
 81 64 81 64 68 100 c 0,12,13
 47 163 47 163 47 281 c 128,-1,0
 47 399 47 399 94 468 c 128,-1,1
202.5 80.5 m 128,-1,15
 219 74 219 74 247 74 c 128,-1,16
 275 74 275 74 298 76 c 0,17,18
 340 79 340 79 407 98 c 1,19,-1
 407 454 l 1,20,-1
 241 454 l 2,21,22
 192 454 192 454 170 419 c 0,23,24
 147 383 147 383 144 352 c 0,25,26
 139 307 139 307 139 269 c 2,27,-1
 139 259 l 2,28,29
 139 178 139 178 144.5 157.5 c 128,-1,30
 150 137 150 137 157.5 120.5 c 128,-1,31
 165 104 165 104 175.5 95.5 c 128,-1,14
 186 87 186 87 202.5 80.5 c 128,-1,15
EndSplineSet
Substitution2: "'smcp' Lowercase to Small Capitals lookup 1 subtable" q.smcp
EndChar

StartChar: r
Encoding: 114 114 85
Width: 423
GlyphClass: 2
Flags: W
LayerCount: 2
Fore
SplineSet
265 525.5 m 128,-1,1
 299 537 299 537 343 537 c 128,-1,2
 387 537 387 537 404 529 c 1,3,-1
 404 439 l 1,4,5
 378 444 378 444 327 444 c 128,-1,6
 276 444 276 444 238.5 431.5 c 128,-1,7
 201 419 201 419 148 386 c 1,8,-1
 148 0 l 1,9,-1
 56 0 l 1,10,-1
 56 531 l 1,11,-1
 126 531 l 1,12,-1
 148 464 l 1,13,14
 151 466 151 466 171 479 c 128,-1,15
 191 492 191 492 211 503 c 128,-1,0
 231 514 231 514 265 525.5 c 128,-1,1
EndSplineSet
AlternateSubs2: "'salt' Stylistic Alternatives in Latin lookup 16 subtable" r.salt
Substitution2: "'smcp' Lowercase to Small Capitals lookup 1 subtable" r.smcp
EndChar

StartChar: s
Encoding: 115 115 86
Width: 506
GlyphClass: 2
Flags: W
LayerCount: 2
Fore
SplineSet
337.5 529 m 128,-1,1
 419 522 419 522 442 517 c 1,2,-1
 442 451 l 1,3,-1
 187 451 l 2,4,5
 149 451 149 451 139 439 c 128,-1,6
 129 427 129 427 129 399 c 2,7,-1
 129 359 l 2,8,9
 129 323 129 323 146 315 c 0,10,11
 160 308 160 308 187 308 c 2,12,-1
 336 308 l 2,13,14
 380 308 380 308 411 290 c 0,15,16
 469 257 469 257 469 176 c 2,17,-1
 469 126 l 2,18,19
 469 -5 469 -5 339 -5 c 0,20,21
 288 -5 288 -5 187 2.5 c 128,-1,22
 86 10 86 10 59 17 c 1,23,-1
 59 81 l 1,24,-1
 327 81 l 2,25,26
 377 81 377 81 377 129 c 2,27,-1
 377 171 l 2,28,29
 377 204 377 204 358 215 c 0,30,31
 346 221 346 221 327 221 c 2,32,-1
 178 221 l 2,33,34
 105 221 105 221 71 250.5 c 128,-1,35
 37 280 37 280 37 355 c 2,36,-1
 37 401 l 2,37,38
 37 466 37 466 69 501 c 128,-1,39
 101 536 101 536 178.5 536 c 128,-1,0
 256 536 256 536 337.5 529 c 128,-1,1
EndSplineSet
Substitution2: "'smcp' Lowercase to Small Capitals lookup 1 subtable" s.smcp
EndChar

StartChar: t
Encoding: 116 116 87
Width: 379
GlyphClass: 2
Flags: W
LayerCount: 2
Fore
SplineSet
206 680 m 1,0,-1
 206 532 l 1,1,-1
 351 532 l 1,2,-1
 351 449 l 1,3,-1
 206 449 l 1,4,-1
 206 196 l 2,5,6
 206 137 206 137 219.5 114 c 128,-1,7
 233 91 233 91 260 84 c 0,8,9
 336 63 336 63 343 63 c 1,10,-1
 343 1 l 1,11,-1
 246 1 l 2,12,13
 114 1 114 1 114 190 c 2,14,-1
 114 449 l 1,15,-1
 19 449 l 1,16,-1
 19 511 l 1,17,-1
 114 532 l 1,18,-1
 134 680 l 1,19,-1
 206 680 l 1,0,-1
EndSplineSet
AlternateSubs2: "'salt' Stylistic Alternatives in Latin lookup 16 subtable" t.salt
Substitution2: "'smcp' Lowercase to Small Capitals lookup 1 subtable" t.smcp
EndChar

StartChar: u
Encoding: 117 117 88
Width: 545
GlyphClass: 2
Flags: W
LayerCount: 2
Fore
SplineSet
47 166 m 2,0,-1
 47 531 l 1,1,-1
 139 531 l 1,2,-1
 139 165 l 2,3,4
 139 120 139 120 161 98 c 128,-1,5
 183 76 183 76 227 76 c 128,-1,6
 271 76 271 76 305 87.5 c 128,-1,7
 339 99 339 99 398 130 c 1,8,-1
 398 531 l 1,9,-1
 490 531 l 1,10,-1
 490 0 l 1,11,-1
 421 0 l 1,12,-1
 398 60 l 1,13,14
 392 57 392 57 374 46 c 128,-1,15
 356 35 356 35 348.5 31.5 c 128,-1,16
 341 28 341 28 325 19.5 c 128,-1,17
 309 11 309 11 298.5 7.5 c 128,-1,18
 288 4 288 4 272 -1 c 0,19,20
 245 -9 245 -9 209 -9 c 0,21,22
 130 -9 130 -9 88.5 41.5 c 128,-1,23
 47 92 47 92 47 166 c 2,0,-1
EndSplineSet
AlternateSubs2: "'salt' Stylistic Alternatives in Latin lookup 16 subtable" u.salt
Substitution2: "'smcp' Lowercase to Small Capitals lookup 1 subtable" u.smcp
EndChar

StartChar: v
Encoding: 118 118 89
Width: 543
GlyphClass: 2
Flags: W
LayerCount: 2
Fore
SplineSet
19 531 m 1,0,-1
 118 531 l 1,1,-1
 271 124 l 1,2,-1
 426 531 l 1,3,-1
 525 531 l 1,4,-1
 318 0 l 1,5,-1
 221 0 l 1,6,-1
 19 531 l 1,0,-1
EndSplineSet
Substitution2: "'smcp' Lowercase to Small Capitals lookup 1 subtable" v.smcp
EndChar

StartChar: w
Encoding: 119 119 90
Width: 807
GlyphClass: 2
Flags: W
LayerCount: 2
Fore
SplineSet
19 531 m 1,0,-1
 118 531 l 1,1,-1
 262 124 l 1,2,-1
 388 531 l 1,3,-1
 484 531 l 1,4,-1
 435 368 l 1,5,-1
 543 124 l 1,6,-1
 690 531 l 1,7,-1
 789 531 l 1,8,-1
 595 0 l 1,9,-1
 498 0 l 1,10,-1
 391 242 l 1,11,-1
 311 0 l 1,12,-1
 210 0 l 1,13,-1
 19 531 l 1,0,-1
EndSplineSet
Substitution2: "'smcp' Lowercase to Small Capitals lookup 1 subtable" w.smcp
EndChar

StartChar: x
Encoding: 120 120 91
Width: 537
GlyphClass: 2
Flags: W
LayerCount: 2
Fore
SplineSet
22 0 m 1,0,-1
 212 266 l 1,1,-1
 22 531 l 1,2,-1
 135 531 l 1,3,-1
 267 339 l 1,4,-1
 402 531 l 1,5,-1
 515 531 l 1,6,-1
 323 263 l 1,7,-1
 507 0 l 1,8,-1
 402 0 l 1,9,-1
 269 190 l 1,10,-1
 136 0 l 1,11,-1
 22 0 l 1,0,-1
EndSplineSet
AlternateSubs2: "'salt' Stylistic Alternatives in Latin lookup 16 subtable" x.salt
Substitution2: "'smcp' Lowercase to Small Capitals lookup 1 subtable" x.smcp
EndChar

StartChar: y
Encoding: 121 121 92
Width: 560
GlyphClass: 2
Flags: W
LayerCount: 2
Fore
SplineSet
20 531 m 1,0,-1
 119 531 l 1,1,-1
 237 128 l 2,2,3
 252 79 252 79 298 88 c 0,4,5
 300 89 300 89 300 89 c 1,6,-1
 440 531 l 1,7,-1
 540 531 l 1,8,-1
 319 -168 l 1,9,-1
 245 -270 l 1,10,-1
 184 -270 l 1,11,-1
 273 0 l 1,12,13
 177 0 177 0 143 117 c 2,14,-1
 20 531 l 1,0,-1
EndSplineSet
Substitution2: "'smcp' Lowercase to Small Capitals lookup 1 subtable" y.smcp
EndChar

StartChar: z
Encoding: 122 122 93
Width: 460
GlyphClass: 2
Flags: W
LayerCount: 2
Fore
SplineSet
28 445 m 1,0,-1
 28 531 l 1,1,-1
 433 531 l 1,2,-1
 433 445 l 1,3,-1
 164 87 l 1,4,-1
 433 87 l 1,5,-1
 433 1 l 1,6,-1
 43 1 l 1,7,-1
 43 87 l 1,8,-1
 318 445 l 1,9,-1
 28 445 l 1,0,-1
EndSplineSet
Substitution2: "'smcp' Lowercase to Small Capitals lookup 1 subtable" z.smcp
EndChar

StartChar: braceleft
Encoding: 123 123 94
Width: 320
GlyphClass: 2
Flags: W
LayerCount: 2
Fore
SplineSet
104 425 m 2,0,-1
 104 656 l 2,1,2
 104 766 104 766 190 816 c 0,3,4
 236 842 236 842 302 842 c 1,5,-1
 302 756 l 1,6,7
 251 756 251 756 223.5 731.5 c 128,-1,8
 196 707 196 707 196 644 c 2,9,-1
 196 423 l 2,10,11
 196 386 196 386 172 363.5 c 128,-1,12
 148 341 148 341 108 334 c 1,13,14
 147 328 147 328 171 304.5 c 128,-1,15
 195 281 195 281 195 248 c 2,16,-1
 195 -28 l 2,17,18
 195 -76 195 -76 222 -101 c 128,-1,19
 249 -126 249 -126 293 -126 c 0,20,21
 297 -126 297 -126 302 -126 c 1,22,-1
 302 -210 l 1,23,24
 150 -210 150 -210 113 -101 c 0,25,26
 103 -72 103 -72 103 -38 c 2,27,-1
 103 242 l 2,28,29
 103 270 103 270 79.5 282.5 c 128,-1,30
 56 295 56 295 40 295 c 128,-1,31
 24 295 24 295 19 295 c 1,32,-1
 19 372 l 1,33,34
 21 372 21 372 29 373 c 128,-1,35
 37 374 37 374 43 374.5 c 128,-1,36
 49 375 49 375 60 377 c 128,-1,37
 71 379 71 379 77.5 382.5 c 128,-1,38
 84 386 84 386 91 392 c 0,39,40
 104 402 104 402 104 425 c 2,0,-1
EndSplineSet
EndChar

StartChar: bar
Encoding: 124 124 95
Width: 245
GlyphClass: 2
Flags: W
LayerCount: 2
Fore
SplineSet
80 -72 m 1,0,-1
 80 770 l 1,1,-1
 166 770 l 1,2,-1
 166 -72 l 1,3,-1
 80 -72 l 1,0,-1
EndSplineSet
EndChar

StartChar: braceright
Encoding: 125 125 96
Width: 320
GlyphClass: 2
Flags: W
LayerCount: 2
Fore
SplineSet
27 -126 m 0,0,1
 71 -126 71 -126 98 -101 c 128,-1,2
 125 -76 125 -76 125 -28 c 2,3,-1
 125 248 l 2,4,5
 125 293 125 293 167 318 c 0,6,7
 187 330 187 330 212 334 c 1,8,9
 172 341 172 341 148 363.5 c 128,-1,10
 124 386 124 386 124 423 c 2,11,-1
 124 644 l 2,12,13
 124 710 124 710 94 734 c 0,14,15
 66 756 66 756 19 756 c 1,16,-1
 19 842 l 1,17,18
 116 842 116 842 166 789 c 128,-1,19
 216 736 216 736 216 656 c 2,20,-1
 216 425 l 2,21,22
 216 392 216 392 244 383 c 1,23,24
 265 375 265 375 282 373.5 c 128,-1,25
 299 372 299 372 302 372 c 1,26,-1
 302 295 l 1,27,28
 296 295 296 295 286 295 c 128,-1,29
 276 295 276 295 259.5 291 c 128,-1,30
 243 287 243 287 230 274 c 128,-1,31
 217 261 217 261 217 242 c 2,32,-1
 217 -38 l 2,33,34
 217 -107 217 -107 176 -155 c 0,35,36
 129 -210 129 -210 19 -210 c 1,37,-1
 19 -126 l 1,38,39
 23 -126 23 -126 27 -126 c 0,0,1
EndSplineSet
EndChar

StartChar: asciitilde
Encoding: 126 126 97
Width: 432
GlyphClass: 2
Flags: W
LayerCount: 2
Fore
SplineSet
136 641.5 m 128,-1,1
 149 645 149 645 168 645 c 128,-1,2
 187 645 187 645 219 627.5 c 128,-1,3
 251 610 251 610 265.5 610 c 128,-1,4
 280 610 280 610 290 612 c 128,-1,5
 300 614 300 614 306 616 c 128,-1,6
 312 618 312 618 322.5 623.5 c 128,-1,7
 333 629 333 629 336.5 631 c 128,-1,8
 340 633 340 633 351 641 c 128,-1,9
 362 649 362 649 364 650 c 1,10,-1
 386 603 l 1,11,12
 383 600 383 600 376 592.5 c 128,-1,13
 369 585 369 585 364.5 580.5 c 128,-1,14
 360 576 360 576 352.5 569 c 128,-1,15
 345 562 345 562 339 557 c 128,-1,16
 333 552 333 552 324.5 547 c 128,-1,17
 316 542 316 542 308 538 c 0,18,19
 290 531 290 531 269.5 531 c 128,-1,20
 249 531 249 531 214.5 548.5 c 128,-1,21
 180 566 180 566 162 566 c 128,-1,22
 144 566 144 566 130 561.5 c 128,-1,23
 116 557 116 557 97.5 546 c 128,-1,24
 79 535 79 535 69 531 c 1,25,-1
 47 576 l 1,26,27
 53 581 53 581 68 595 c 128,-1,28
 83 609 83 609 90 615 c 128,-1,29
 97 621 97 621 110 629.5 c 128,-1,0
 123 638 123 638 136 641.5 c 128,-1,1
EndSplineSet
EndChar

StartChar: exclamdown
Encoding: 161 161 98
Width: 270
GlyphClass: 2
Flags: W
LayerCount: 2
Fore
SplineSet
79 376 m 2,0,-1
 79 438 l 2,1,2
 79 459 79 459 103 461 c 1,3,-1
 162 461 l 1,4,5
 175 460 175 460 180.5 451 c 128,-1,6
 186 442 186 442 186 435 c 2,7,-1
 186 377 l 1,8,9
 184 350 184 350 163 350 c 2,10,-1
 103 350 l 2,11,12
 79 350 79 350 79 376 c 2,0,-1
82 -270 m 1,13,-1
 90 262 l 1,14,-1
 176 262 l 1,15,-1
 185 -270 l 1,16,-1
 82 -270 l 1,13,-1
EndSplineSet
Substitution2: "'case' Case-Sensitive Forms lookup 18 subtable" exclamdown.alt
Substitution2: "'smcp' Lowercase to Small Capitals lookup 1 subtable" exclamdown.smcp
EndChar

StartChar: cent
Encoding: 162 162 99
Width: 489
GlyphClass: 2
Flags: W
LayerCount: 2
Fore
SplineSet
43 163.5 m 128,-1,1
 37 208 37 208 37 271.5 c 128,-1,2
 37 335 37 335 46 384.5 c 128,-1,3
 55 434 55 434 71 464 c 0,4,5
 100 521 100 521 162 534 c 0,6,7
 184 538 184 538 201.5 538 c 128,-1,8
 219 538 219 538 226 538 c 1,9,-1
 226 634 l 1,10,-1
 293 634 l 1,11,-1
 293 533 l 1,12,13
 377 524 377 524 445 508 c 1,14,-1
 445 446 l 1,15,16
 317 453 317 453 262 453 c 128,-1,17
 207 453 207 453 194.5 450.5 c 128,-1,18
 182 448 182 448 168 437.5 c 128,-1,19
 154 427 154 427 146 407 c 0,20,21
 129 361 129 361 129 274.5 c 128,-1,22
 129 188 129 188 139.5 148 c 128,-1,23
 150 108 150 108 170.5 93 c 128,-1,24
 191 78 191 78 230 78 c 0,25,26
 310 78 310 78 416 86 c 1,27,-1
 452 88 l 1,28,-1
 452 24 l 1,29,30
 383 0 383 0 293 -4 c 1,31,-1
 293 -96 l 1,32,-1
 225 -96 l 1,33,-1
 225 -7 l 1,34,35
 223 -7 223 -7 208 -7 c 128,-1,36
 193 -7 193 -7 171.5 -3.5 c 128,-1,37
 150 0 150 0 127.5 10.5 c 128,-1,38
 105 21 105 21 89.5 40.5 c 128,-1,39
 74 60 74 60 61.5 89.5 c 128,-1,0
 49 119 49 119 43 163.5 c 128,-1,1
EndSplineSet
EndChar

StartChar: sterling
Encoding: 163 163 100
Width: 592
GlyphClass: 2
Flags: W
LayerCount: 2
Fore
SplineSet
47 0 m 1,0,-1
 47 72 l 1,1,-1
 117 89 l 1,2,-1
 117 325 l 1,3,-1
 47 325 l 1,4,-1
 47 378 l 1,5,-1
 117 396 l 1,6,-1
 117 499 l 2,7,8
 117 632 117 632 167 681 c 0,9,10
 200 714 200 714 236 722 c 1,11,12
 288 732 288 732 333 732 c 0,13,14
 403 732 403 732 510 720 c 2,15,-1
 546 716 l 1,16,-1
 546 644 l 1,17,-1
 353 644 l 2,18,19
 283 644 283 644 270 639.5 c 128,-1,20
 257 635 257 635 247 630.5 c 128,-1,21
 237 626 237 626 232 618.5 c 128,-1,22
 227 611 227 611 221.5 600.5 c 128,-1,23
 216 590 216 590 214 576 c 0,24,25
 209 541 209 541 209 502 c 2,26,-1
 209 396 l 1,27,-1
 467 380 l 1,28,-1
 467 326 l 1,29,-1
 209 326 l 1,30,-1
 209 89 l 1,31,-1
 545 89 l 1,32,-1
 545 0 l 1,33,-1
 47 0 l 1,0,-1
EndSplineSet
Substitution2: "'smcp' Lowercase to Small Capitals lookup 1 subtable" sterling.smcp
EndChar

StartChar: currency
Encoding: 164 164 101
Width: 455
GlyphClass: 2
Flags: W
LayerCount: 2
Fore
SplineSet
132 443 m 1,0,1
 173 472 173 472 225 472 c 128,-1,2
 277 472 277 472 320 440 c 1,3,-1
 368 487 l 1,4,-1
 406 445 l 1,5,-1
 359 397 l 1,6,7
 382 359 382 359 382 310 c 128,-1,8
 382 261 382 261 354 219 c 1,9,-1
 406 168 l 1,10,-1
 362 127 l 1,11,-1
 312 177 l 1,12,13
 272 148 272 148 224 148 c 128,-1,14
 176 148 176 148 136 176 c 1,15,-1
 89 129 l 1,16,-1
 49 173 l 1,17,-1
 95 218 l 1,18,19
 66 260 66 260 66 311 c 128,-1,20
 66 362 66 362 92 401 c 1,21,-1
 48 446 l 1,22,-1
 90 485 l 1,23,-1
 132 443 l 1,0,1
140 360.5 m 128,-1,25
 127 338 127 338 127 304.5 c 128,-1,26
 127 271 127 271 155 241 c 128,-1,27
 183 211 183 211 223.5 211 c 128,-1,28
 264 211 264 211 292.5 241 c 128,-1,29
 321 271 321 271 321 312 c 128,-1,30
 321 353 321 353 292.5 381 c 128,-1,31
 264 409 264 409 231 409 c 128,-1,32
 198 409 198 409 175.5 396 c 128,-1,24
 153 383 153 383 140 360.5 c 128,-1,25
EndSplineSet
EndChar

StartChar: yen
Encoding: 165 165 102
Width: 609
GlyphClass: 2
Flags: W
LayerCount: 2
Fore
SplineSet
513 326 m 1,0,-1
 513 260 l 1,1,-1
 341 260 l 1,2,-1
 341 214 l 1,3,-1
 513 214 l 1,4,-1
 513 149 l 1,5,-1
 341 149 l 1,6,-1
 341 0 l 1,7,-1
 249 0 l 1,8,-1
 249 149 l 1,9,-1
 86 149 l 1,10,-1
 86 214 l 1,11,-1
 249 214 l 1,12,-1
 249 260 l 1,13,-1
 86 260 l 1,14,-1
 86 326 l 1,15,-1
 239 326 l 1,16,-1
 19 732 l 1,17,-1
 119 732 l 1,18,-1
 296 396 l 1,19,-1
 488 732 l 1,20,-1
 591 732 l 1,21,-1
 352 326 l 1,22,-1
 513 326 l 1,0,-1
EndSplineSet
Substitution2: "'smcp' Lowercase to Small Capitals lookup 1 subtable" yen.smcp
EndChar

StartChar: brokenbar
Encoding: 166 166 103
Width: 246
GlyphClass: 2
Flags: W
LayerCount: 2
Fore
SplineSet
80 -72 m 1,0,-1
 80 256 l 1,1,-1
 166 256 l 1,2,-1
 166 -72 l 1,3,-1
 80 -72 l 1,0,-1
80 429 m 1,4,-1
 80 770 l 1,5,-1
 166 770 l 1,6,-1
 166 429 l 1,7,-1
 80 429 l 1,4,-1
EndSplineSet
EndChar

StartChar: section
Encoding: 167 167 104
Width: 549
GlyphClass: 2
Flags: W
LayerCount: 2
Fore
SplineSet
51 590 m 2,0,-1
 51 654 l 2,1,2
 51 753 51 753 134 777 c 0,3,4
 157 784 157 784 191 784 c 128,-1,5
 225 784 225 784 325.5 777 c 128,-1,6
 426 770 426 770 460 765 c 1,7,-1
 460 698 l 1,8,-1
 195 698 l 2,9,10
 161 698 161 698 150 680 c 0,11,12
 144 670 144 670 143 652 c 1,13,-1
 143 592 l 2,14,15
 143 548 143 548 195 548 c 2,16,-1
 359 548 l 2,17,18
 439 548 439 548 469 516 c 128,-1,19
 499 484 499 484 498 421 c 1,20,-1
 498 367 l 2,21,22
 498 281 498 281 451 272 c 1,23,24
 497 265 497 265 497 186 c 2,25,-1
 497 118 l 2,26,27
 497 28 497 28 435 4 c 0,28,29
 404 -8 404 -8 360.5 -8 c 128,-1,30
 317 -8 317 -8 219 -1 c 128,-1,31
 121 6 121 6 88 11 c 1,32,-1
 88 78 l 1,33,-1
 347 78 l 2,34,35
 375 78 375 78 389.5 86 c 128,-1,36
 404 94 404 94 405 119 c 1,37,-1
 405 182 l 2,38,39
 405 209 405 209 393.5 217.5 c 128,-1,40
 382 226 382 226 352 226 c 2,41,-1
 187 226 l 2,42,43
 119 226 119 226 85.5 251.5 c 128,-1,44
 52 277 52 277 52 348 c 2,45,-1
 52 403 l 2,46,47
 52 444 52 444 62 468.5 c 128,-1,48
 72 493 72 493 101 502 c 1,49,50
 51 519 51 519 51 590 c 2,0,-1
143 357 m 2,51,52
 143 327 143 327 155 318.5 c 128,-1,53
 167 310 167 310 196 310 c 2,54,-1
 350 310 l 2,55,56
 390 310 390 310 398 324 c 0,57,58
 405 335 405 335 405 358 c 2,59,-1
 405 413 l 2,60,61
 405 439 405 439 399 449 c 1,62,63
 388 464 388 464 350 464 c 2,64,-1
 196 464 l 2,65,66
 164 464 164 464 153.5 454 c 128,-1,67
 143 444 143 444 143 411 c 2,68,-1
 143 357 l 2,51,52
EndSplineSet
EndChar

StartChar: dieresis
Encoding: 168 168 105
Width: 453
GlyphClass: 2
Flags: W
LayerCount: 2
Fore
SplineSet
47 582 m 128,-1,1
 47 604 47 604 62.5 619 c 128,-1,2
 78 634 78 634 100 634 c 128,-1,3
 122 634 122 634 137 619 c 128,-1,4
 152 604 152 604 152 582 c 128,-1,5
 152 560 152 560 137 544.5 c 128,-1,6
 122 529 122 529 100 529 c 128,-1,7
 78 529 78 529 62.5 544.5 c 128,-1,0
 47 560 47 560 47 582 c 128,-1,1
302 582 m 128,-1,9
 302 604 302 604 317.5 619 c 128,-1,10
 333 634 333 634 355 634 c 128,-1,11
 377 634 377 634 392 619 c 128,-1,12
 407 604 407 604 407 582 c 128,-1,13
 407 560 407 560 392 544.5 c 128,-1,14
 377 529 377 529 355 529 c 128,-1,15
 333 529 333 529 317.5 544.5 c 128,-1,8
 302 560 302 560 302 582 c 128,-1,9
EndSplineSet
Substitution2: "'smcp' Lowercase to Small Capitals lookup 1 subtable" dieresis.smcp
EndChar

StartChar: copyright
Encoding: 169 169 106
Width: 808
GlyphClass: 2
Flags: W
LayerCount: 2
Fore
SplineSet
51 368 m 0,0,1
 51 732 51 732 286 732 c 2,2,-1
 545 732 l 2,3,4
 661 732 661 732 711 632 c 0,5,6
 740 575 740 575 747 518 c 0,7,8
 757 441 757 441 757 365.5 c 128,-1,9
 757 290 757 290 745 224.5 c 128,-1,10
 733 159 733 159 708 108 c 128,-1,11
 683 57 683 57 641.5 28.5 c 128,-1,12
 600 0 600 0 545 0 c 2,13,-1
 286 0 l 2,14,15
 233 0 233 0 190.5 24.5 c 128,-1,16
 148 49 148 49 123 87 c 128,-1,17
 98 125 98 125 81 175 c 0,18,19
 51 264 51 264 51 368 c 0,0,1
123 369 m 0,20,21
 123 312 123 312 132.5 260 c 128,-1,22
 142 208 142 208 161 165 c 128,-1,23
 180 122 180 122 212.5 96 c 128,-1,24
 245 70 245 70 286 70 c 2,25,-1
 544 70 l 1,26,27
 607 71 607 71 646 146 c 128,-1,28
 685 221 685 221 685 368 c 0,29,30
 685 503 685 503 664 561 c 0,31,32
 640 629 640 629 601 649 c 0,33,34
 577 662 577 662 545 662 c 2,35,-1
 286 662 l 2,36,37
 208 662 208 662 171 604 c 0,38,39
 123 530 123 530 123 369 c 0,20,21
229 365 m 0,40,41
 229 479 229 479 267.5 531 c 128,-1,42
 306 583 306 583 372 583 c 128,-1,43
 438 583 438 583 552 559 c 1,44,-1
 552 501 l 1,45,46
 468 513 468 513 379 513 c 0,47,48
 338 513 338 513 319 476.5 c 128,-1,49
 300 440 300 440 300 378 c 128,-1,50
 300 316 300 316 306 286 c 128,-1,51
 312 256 312 256 330.5 236.5 c 128,-1,52
 349 217 349 217 380 217 c 0,53,54
 453 217 453 217 558 233 c 1,55,-1
 558 175 l 1,56,57
 469 147 469 147 374 147 c 0,58,59
 268 147 268 147 240 257 c 0,60,61
 229 301 229 301 229 365 c 0,40,41
EndSplineSet
EndChar

StartChar: ordfeminine
Encoding: 170 170 107
Width: 364
GlyphClass: 3
Flags: W
LayerCount: 2
Fore
SplineSet
28 266 m 1,0,-1
 28 328 l 1,1,-1
 337 328 l 1,2,-1
 337 266 l 1,3,-1
 28 266 l 1,0,-1
28 464 m 2,4,-1
 28 507 l 2,5,6
 28 548 28 548 55 573 c 128,-1,7
 82 598 82 598 139 598 c 128,-1,8
 196 598 196 598 228 598 c 128,-1,9
 260 598 260 598 260 598 c 1,10,11
 261 625 261 625 260 626 c 1,12,13
 260 652 260 652 245.5 663 c 128,-1,14
 231 674 231 674 199.5 674 c 128,-1,15
 168 674 168 674 111.5 670.5 c 128,-1,16
 55 667 55 667 40 666 c 1,17,-1
 40 715 l 1,18,19
 48 716 48 716 77.5 722.5 c 128,-1,20
 107 729 107 729 121 731 c 0,21,22
 168 739 168 739 218 739 c 128,-1,23
 268 739 268 739 301.5 713.5 c 128,-1,24
 335 688 335 688 335 633 c 2,25,-1
 335 378 l 1,26,-1
 284 378 l 1,27,-1
 261 426 l 1,28,29
 242 408 242 408 199 391 c 128,-1,30
 156 374 156 374 131 374 c 0,31,32
 87 374 87 374 57.5 399 c 128,-1,33
 28 424 28 424 28 464 c 2,4,-1
101 478 m 2,34,35
 101 441 101 441 142 441 c 0,36,37
 192 441 192 441 243 464 c 1,38,-1
 260 471 l 1,39,-1
 260 550 l 1,40,-1
 141 541 l 2,41,42
 101 537 101 537 101 502 c 2,43,-1
 101 478 l 2,34,35
EndSplineSet
Substitution2: "'smcp' Lowercase to Small Capitals lookup 1 subtable" ordfeminine.smcp
Ligature2: "'ordn' Ordinals lookup 0 subtable" a
EndChar

StartChar: guillemotleft
Encoding: 171 171 108
Width: 557
GlyphClass: 2
Flags: W
LayerCount: 2
Fore
SplineSet
47 354 m 1,0,-1
 253 557 l 1,1,-1
 311 499 l 1,2,-1
 163 354 l 1,3,-1
 316 205 l 1,4,-1
 258 146 l 1,5,-1
 47 354 l 1,0,-1
242 354 m 1,6,-1
 448 557 l 1,7,-1
 507 499 l 1,8,-1
 358 354 l 1,9,-1
 511 205 l 1,10,-1
 453 146 l 1,11,-1
 242 354 l 1,6,-1
EndSplineSet
EndChar

StartChar: logicalnot
Encoding: 172 172 109
Width: 518
GlyphClass: 2
Flags: W
LayerCount: 2
Fore
SplineSet
46 252 m 1,0,-1
 46 336 l 1,1,-1
 472 336 l 1,2,-1
 472 159 l 1,3,-1
 388 159 l 1,4,-1
 388 252 l 1,5,-1
 46 252 l 1,0,-1
EndSplineSet
EndChar

StartChar: uni00AD
Encoding: 173 173 110
Width: 354
GlyphClass: 2
Flags: W
LayerCount: 2
Fore
SplineSet
20 247 m 1,0,-1
 20 333 l 1,1,-1
 334 333 l 1,2,-1
 334 247 l 1,3,-1
 20 247 l 1,0,-1
EndSplineSet
Substitution2: "'case' Case-Sensitive Forms lookup 18 subtable" uni00AD.alt
Substitution2: "'c2sc' Capitals to Small Capitals in Latin lookup 2 subtable" uni00AD.smcp
Substitution2: "'smcp' Lowercase to Small Capitals lookup 1 subtable" uni00AD.smcp
EndChar

StartChar: registered
Encoding: 174 174 111
Width: 808
GlyphClass: 2
Flags: W
LayerCount: 2
Fore
SplineSet
51 368 m 0,0,1
 51 732 51 732 286 732 c 2,2,-1
 545 732 l 2,3,4
 661 732 661 732 711 632 c 0,5,6
 740 575 740 575 747 518 c 0,7,8
 757 441 757 441 757 365.5 c 128,-1,9
 757 290 757 290 745 224.5 c 128,-1,10
 733 159 733 159 708 108 c 128,-1,11
 683 57 683 57 641.5 28.5 c 128,-1,12
 600 0 600 0 545 0 c 2,13,-1
 286 0 l 2,14,15
 233 0 233 0 190.5 24.5 c 128,-1,16
 148 49 148 49 123 87 c 128,-1,17
 98 125 98 125 81 175 c 0,18,19
 51 264 51 264 51 368 c 0,0,1
123 369 m 0,20,21
 123 312 123 312 132.5 260 c 128,-1,22
 142 208 142 208 161 165 c 128,-1,23
 180 122 180 122 212.5 96 c 128,-1,24
 245 70 245 70 286 70 c 2,25,-1
 544 70 l 1,26,27
 607 71 607 71 646 146 c 128,-1,28
 685 221 685 221 685 368 c 0,29,30
 685 503 685 503 664 561 c 0,31,32
 640 629 640 629 601 649 c 0,33,34
 577 662 577 662 545 662 c 2,35,-1
 286 662 l 2,36,37
 208 662 208 662 171 604 c 0,38,39
 123 530 123 530 123 369 c 0,20,21
257 153 m 1,40,-1
 257 580 l 1,41,-1
 436 580 l 2,42,43
 570 580 570 580 570 450 c 0,44,45
 570 365 570 365 526 338 c 0,46,47
 507 326 507 326 479 320 c 1,48,-1
 569 153 l 1,49,-1
 489 153 l 1,50,-1
 400 320 l 1,51,-1
 329 332 l 1,52,-1
 329 153 l 1,53,-1
 257 153 l 1,40,-1
329 382 m 1,54,-1
 436 382 l 2,55,56
 475 382 475 382 486.5 395 c 128,-1,57
 498 408 498 408 498 439 c 128,-1,58
 498 470 498 470 493 483.5 c 128,-1,59
 488 497 488 497 477 502 c 0,60,61
 461 510 461 510 436 510 c 2,62,-1
 329 510 l 1,63,-1
 329 382 l 1,54,-1
EndSplineSet
EndChar

StartChar: macron
Encoding: 175 175 112
Width: 385
GlyphClass: 2
Flags: W
LayerCount: 2
Fore
SplineSet
47 531 m 1,0,-1
 47 598 l 1,1,-1
 339 598 l 1,2,-1
 339 531 l 1,3,-1
 47 531 l 1,0,-1
EndSplineSet
Substitution2: "'smcp' Lowercase to Small Capitals lookup 1 subtable" macron.smcp
EndChar

StartChar: degree
Encoding: 176 176 113
Width: 296
GlyphClass: 2
Flags: W
LayerCount: 2
Fore
SplineSet
47 632 m 128,-1,1
 47 660 47 660 60.5 683.5 c 128,-1,2
 74 707 74 707 97.5 721 c 128,-1,3
 121 735 121 735 148.5 735 c 128,-1,4
 176 735 176 735 199.5 721 c 128,-1,5
 223 707 223 707 236.5 683.5 c 128,-1,6
 250 660 250 660 250 632 c 128,-1,7
 250 604 250 604 236.5 580.5 c 128,-1,8
 223 557 223 557 199.5 543.5 c 128,-1,9
 176 530 176 530 148.5 530 c 128,-1,10
 121 530 121 530 97.5 543.5 c 128,-1,11
 74 557 74 557 60.5 580.5 c 128,-1,0
 47 604 47 604 47 632 c 128,-1,1
112 668.5 m 128,-1,13
 97 653 97 653 97 635.5 c 128,-1,14
 97 618 97 618 104 606 c 0,15,16
 119 581 119 581 144.5 581 c 128,-1,17
 170 581 170 581 185 596 c 128,-1,18
 200 611 200 611 200 628.5 c 128,-1,19
 200 646 200 646 193 658 c 0,20,21
 178 684 178 684 152.5 684 c 128,-1,12
 127 684 127 684 112 668.5 c 128,-1,13
EndSplineSet
Substitution2: "'smcp' Lowercase to Small Capitals lookup 1 subtable" degree.smcp
EndChar

StartChar: plusminus
Encoding: 177 177 114
Width: 519
GlyphClass: 2
Flags: W
LayerCount: 2
Fore
SplineSet
52 82 m 1,0,-1
 52 168 l 1,1,-1
 468 168 l 1,2,-1
 468 82 l 1,3,-1
 52 82 l 1,0,-1
52 386 m 1,4,-1
 52 472 l 1,5,-1
 216 472 l 1,6,-1
 216 636 l 1,7,-1
 302 636 l 1,8,-1
 302 472 l 1,9,-1
 468 472 l 1,10,-1
 468 386 l 1,11,-1
 302 386 l 1,12,-1
 302 220 l 1,13,-1
 216 220 l 1,14,-1
 216 386 l 1,15,-1
 52 386 l 1,4,-1
EndSplineSet
EndChar

StartChar: twosuperior
Encoding: 178 178 115
Width: 390
GlyphClass: 2
Flags: W
LayerCount: 2
Fore
SplineSet
30 810 m 1,0,-1
 30 866 l 1,1,2
 148 882 148 882 217 882 c 0,3,4
 351 882 351 882 351 744 c 0,5,6
 351 710 351 710 334 672 c 128,-1,7
 317 634 317 634 298 607 c 128,-1,8
 279 580 279 580 245 547 c 0,9,10
 207 509 207 509 161 471 c 1,11,-1
 351 471 l 1,12,-1
 351 398 l 1,13,-1
 33 398 l 1,14,-1
 33 467 l 1,15,16
 40 472 40 472 66 491.5 c 128,-1,17
 92 511 92 511 109.5 525 c 128,-1,18
 127 539 127 539 154.5 562 c 128,-1,19
 182 585 182 585 200.5 605 c 128,-1,20
 219 625 219 625 237 648 c 0,21,22
 274 695 274 695 274 736 c 128,-1,23
 274 777 274 777 257 793.5 c 128,-1,24
 240 810 240 810 198 810 c 2,25,-1
 30 810 l 1,0,-1
EndSplineSet
EndChar

StartChar: threesuperior
Encoding: 179 179 116
Width: 406
GlyphClass: 2
Flags: W
LayerCount: 2
Fore
SplineSet
28 859 m 1,0,1
 81 877 81 877 186 877 c 0,2,3
 204 877 204 877 228 877 c 0,4,5
 289 877 289 877 320 843.5 c 128,-1,6
 351 810 351 810 351 759 c 2,7,-1
 351 725 l 2,8,9
 351 679 351 679 326 653 c 0,10,11
 315 642 315 642 300 636 c 1,12,13
 351 608 351 608 351 541 c 2,14,-1
 351 514 l 2,15,16
 351 456 351 456 321.5 425 c 128,-1,17
 292 394 292 394 223 394 c 2,18,-1
 185 394 l 2,19,20
 84 394 84 394 32 413 c 1,21,-1
 33 466 l 1,22,-1
 205 467 l 2,23,24
 257 467 257 467 270 489 c 0,25,26
 276 501 276 501 276 522 c 2,27,-1
 276 542 l 2,28,29
 276 602 276 602 209 604 c 2,30,-1
 72 609 l 1,31,-1
 72 667 l 1,32,-1
 209 674 l 2,33,34
 277 677 277 677 277 732 c 2,35,-1
 277 751 l 2,36,37
 277 806 277 806 209 806 c 2,38,-1
 28 806 l 1,39,-1
 28 859 l 1,0,1
EndSplineSet
EndChar

StartChar: acute
Encoding: 180 180 117
Width: 242
GlyphClass: 2
Flags: W
LayerCount: 2
Fore
SplineSet
19 531 m 1,0,-1
 121 666 l 1,1,-1
 224 666 l 1,2,-1
 94 531 l 1,3,-1
 19 531 l 1,0,-1
EndSplineSet
Substitution2: "'smcp' Lowercase to Small Capitals lookup 1 subtable" acute.smcp
EndChar

StartChar: uni00B5
Encoding: 181 181 118
Width: 592
GlyphClass: 2
Flags: W
LayerCount: 2
Fore
SplineSet
176 531 m 1,0,-1
 176 165 l 2,1,2
 176 120 176 120 198.5 98 c 128,-1,3
 221 76 221 76 264.5 76 c 128,-1,4
 308 76 308 76 342.5 87.5 c 128,-1,5
 377 99 377 99 435 130 c 1,6,-1
 435 531 l 1,7,-1
 527 531 l 1,8,-1
 527 0 l 1,9,-1
 459 0 l 1,10,-1
 435 60 l 1,11,12
 431 58 431 58 415 48.5 c 128,-1,13
 399 39 399 39 393.5 36 c 128,-1,14
 388 33 388 33 374 25.5 c 128,-1,15
 360 18 360 18 352.5 15 c 128,-1,16
 345 12 345 12 331.5 7 c 128,-1,17
 318 2 318 2 308 0 c 0,18,19
 277 -7 277 -7 243.5 -7 c 128,-1,20
 210 -7 210 -7 176 13 c 1,21,-1
 176 -270 l 1,22,-1
 84 -270 l 1,23,-1
 84 166 l 1,24,-1
 84 531 l 1,25,-1
 176 531 l 1,0,-1
EndSplineSet
EndChar

StartChar: paragraph
Encoding: 182 182 119
Width: 579
GlyphClass: 2
Flags: W
LayerCount: 2
Fore
SplineSet
37 499 m 2,0,-1
 37 592 l 2,1,2
 37 659 37 659 83 695.5 c 128,-1,3
 129 732 129 732 193 732 c 2,4,-1
 561 732 l 1,5,-1
 561 648 l 1,6,-1
 497 648 l 1,7,-1
 497 0 l 1,8,-1
 415 0 l 1,9,-1
 415 650 l 1,10,-1
 329 650 l 1,11,-1
 329 -270 l 1,12,-1
 247 -270 l 1,13,-1
 247 372 l 1,14,15
 247 372 247 372 238 367 c 0,16,17
 217 354 217 354 193 355 c 1,18,19
 118 355 118 355 77.5 396 c 128,-1,20
 37 437 37 437 37 499 c 2,0,-1
119 504 m 2,21,22
 119 450 119 450 171 439 c 0,23,24
 182 436 182 436 195 436 c 2,25,-1
 247 436 l 1,26,-1
 247 650 l 1,27,-1
 195 650 l 2,28,29
 153 650 153 650 136 631 c 128,-1,30
 119 612 119 612 119 585 c 2,31,-1
 119 504 l 2,21,22
EndSplineSet
EndChar

StartChar: periodcentered
Encoding: 183 183 120
Width: 269
GlyphClass: 2
Flags: W
LayerCount: 2
Fore
SplineSet
79 350 m 2,0,-1
 79 416 l 2,1,2
 79 441 79 441 103 441 c 2,3,-1
 165 441 l 2,4,5
 190 441 190 441 190 416 c 2,6,-1
 190 350 l 2,7,8
 190 327 190 327 165 327 c 2,9,-1
 103 327 l 2,10,11
 89 327 89 327 84 335 c 128,-1,12
 79 343 79 343 79 350 c 2,0,-1
EndSplineSet
Substitution2: "'smcp' Lowercase to Small Capitals lookup 1 subtable" periodcentered.smcp
EndChar

StartChar: cedilla
Encoding: 184 184 121
Width: 249
GlyphClass: 2
Flags: W
LayerCount: 2
Fore
SplineSet
129 -37 m 1,0,-1
 203 -37 l 1,1,2
 203 -115 203 -115 181.5 -144.5 c 128,-1,3
 160 -174 160 -174 99 -174 c 2,4,-1
 47 -174 l 1,5,-1
 47 -131 l 1,6,-1
 97 -116 l 1,7,8
 117 -108 117 -108 123 -89 c 128,-1,9
 129 -70 129 -70 129 -37 c 1,0,-1
EndSplineSet
EndChar

StartChar: onesuperior
Encoding: 185 185 122
Width: 270
GlyphClass: 2
Flags: W
LayerCount: 2
Fore
SplineSet
210 876 m 1,0,-1
 210 398 l 1,1,-1
 136 398 l 1,2,-1
 136 799 l 1,3,-1
 15 767 l 1,4,-1
 15 821 l 1,5,-1
 136 876 l 1,6,-1
 210 876 l 1,0,-1
EndSplineSet
EndChar

StartChar: ordmasculine
Encoding: 186 186 123
Width: 391
GlyphClass: 3
Flags: W
LayerCount: 2
Fore
SplineSet
64.5 413 m 128,-1,1
 28 453 28 453 28 555 c 128,-1,2
 28 657 28 657 64 697 c 128,-1,3
 100 737 100 737 196 737 c 128,-1,4
 292 737 292 737 327.5 697 c 128,-1,5
 363 657 363 657 363 554.5 c 128,-1,6
 363 452 363 452 327.5 412.5 c 128,-1,7
 292 373 292 373 196.5 373 c 128,-1,0
 101 373 101 373 64.5 413 c 128,-1,1
40 269 m 1,8,-1
 40 330 l 1,9,-1
 351 330 l 1,10,-1
 351 269 l 1,11,-1
 40 269 l 1,8,-1
105 599 m 128,-1,13
 103 579 103 579 103 545.5 c 128,-1,14
 103 512 103 512 108.5 489.5 c 128,-1,15
 114 467 114 467 128.5 457 c 128,-1,16
 143 447 143 447 156.5 444.5 c 128,-1,17
 170 442 170 442 191.5 442 c 128,-1,18
 213 442 213 442 221.5 442.5 c 128,-1,19
 230 443 230 443 241.5 445 c 128,-1,20
 253 447 253 447 258.5 451 c 128,-1,21
 264 455 264 455 271 463 c 128,-1,22
 278 471 278 471 281 482 c 0,23,24
 289 513 289 513 289 545 c 128,-1,25
 289 577 289 577 287 594 c 128,-1,26
 285 611 285 611 282 623.5 c 128,-1,27
 279 636 279 636 272.5 644.5 c 128,-1,28
 266 653 266 653 260 657.5 c 128,-1,29
 254 662 254 662 242 664 c 0,30,31
 225 668 225 668 201 668 c 128,-1,32
 177 668 177 668 167 667 c 128,-1,33
 157 666 157 666 144 663 c 128,-1,34
 131 660 131 660 125 652.5 c 128,-1,35
 119 645 119 645 113 632 c 128,-1,12
 107 619 107 619 105 599 c 128,-1,13
EndSplineSet
Substitution2: "'smcp' Lowercase to Small Capitals lookup 1 subtable" ordmasculine.smcp
Ligature2: "'ordn' Ordinals lookup 0 subtable" o
EndChar

StartChar: guillemotright
Encoding: 187 187 124
Width: 557
GlyphClass: 2
Flags: W
LayerCount: 2
Fore
SplineSet
47 205 m 1,0,-1
 199 354 l 1,1,-1
 51 499 l 1,2,-1
 110 557 l 1,3,-1
 316 354 l 1,4,-1
 105 146 l 1,5,-1
 47 205 l 1,0,-1
242 205 m 1,6,-1
 395 354 l 1,7,-1
 246 499 l 1,8,-1
 305 557 l 1,9,-1
 511 354 l 1,10,-1
 300 146 l 1,11,-1
 242 205 l 1,6,-1
EndSplineSet
EndChar

StartChar: onequarter
Encoding: 188 188 125
Width: 910
GlyphClass: 3
Flags: W
LayerCount: 2
Fore
SplineSet
210 734 m 1,0,-1
 210 256 l 1,1,-1
 136 256 l 1,2,-1
 136 657 l 1,3,-1
 15 625 l 1,4,-1
 15 678 l 1,5,-1
 136 734 l 1,6,-1
 210 734 l 1,0,-1
208 0 m 1,7,-1
 574 738 l 1,8,-1
 648 738 l 1,9,-1
 283 0 l 1,10,-1
 208 0 l 1,7,-1
760 188 m 1,11,-1
 760 304 l 1,12,-1
 787 353 l 1,13,-1
 835 353 l 1,14,-1
 835 188 l 1,15,-1
 891 188 l 1,16,-1
 891 128 l 1,17,-1
 835 113 l 1,18,-1
 835 -1 l 1,19,-1
 760 -1 l 1,20,-1
 760 113 l 1,21,-1
 521 113 l 1,22,-1
 498 143 l 1,23,-1
 697 476 l 1,24,-1
 780 476 l 1,25,-1
 610 188 l 1,26,-1
 760 188 l 1,11,-1
EndSplineSet
Ligature2: "'frac' Diagonal Fractions lookup 7 subtable" one fraction four
Ligature2: "'frac' Diagonal Fractions lookup 7 subtable" one slash four
EndChar

StartChar: onehalf
Encoding: 189 189 126
Width: 978
GlyphClass: 3
Flags: W
LayerCount: 2
Fore
SplineSet
210 734 m 1,0,-1
 210 256 l 1,1,-1
 136 256 l 1,2,-1
 136 657 l 1,3,-1
 15 625 l 1,4,-1
 15 678 l 1,5,-1
 136 734 l 1,6,-1
 210 734 l 1,0,-1
202 0 m 1,7,-1
 568 738 l 1,8,-1
 643 738 l 1,9,-1
 277 0 l 1,10,-1
 202 0 l 1,7,-1
618 411 m 2,11,12
 617 411 617 411 617 427.5 c 128,-1,13
 617 444 617 444 617 454 c 2,14,-1
 618 468 l 1,15,16
 737 484 737 484 806 484 c 0,17,18
 940 484 940 484 940 345 c 0,19,20
 940 275 940 275 878 198 c 0,21,22
 828 137 828 137 750 72 c 1,23,-1
 940 72 l 1,24,-1
 940 0 l 1,25,-1
 621 0 l 1,26,-1
 621 68 l 1,27,28
 625 72 625 72 660 98.5 c 128,-1,29
 695 125 695 125 714 140 c 128,-1,30
 733 155 733 155 765.5 185 c 128,-1,31
 798 215 798 215 816 237 c 0,32,33
 863 296 863 296 863 337.5 c 128,-1,34
 863 379 863 379 846 395 c 128,-1,35
 829 411 829 411 787 411 c 2,36,-1
 618 411 l 2,11,12
EndSplineSet
Ligature2: "'frac' Diagonal Fractions lookup 7 subtable" one fraction two
Ligature2: "'frac' Diagonal Fractions lookup 7 subtable" one slash two
EndChar

StartChar: threequarters
Encoding: 190 190 127
Width: 1026
GlyphClass: 3
Flags: W
LayerCount: 2
Fore
SplineSet
28 716 m 1,0,1
 80 735 80 735 183 735 c 0,2,3
 202 735 202 735 229 735 c 0,4,5
 290 735 290 735 321 701 c 128,-1,6
 352 667 352 667 352 617 c 2,7,-1
 352 583 l 2,8,9
 352 549 352 549 337.5 525.5 c 128,-1,10
 323 502 323 502 301 494 c 1,11,12
 352 466 352 466 352 398 c 2,13,-1
 352 372 l 2,14,15
 352 314 352 314 322.5 283 c 128,-1,16
 293 252 293 252 224 252 c 0,17,18
 220 252 220 252 200 252 c 128,-1,19
 180 252 180 252 175.5 252 c 128,-1,20
 171 252 171 252 154 252 c 128,-1,21
 137 252 137 252 131.5 252.5 c 128,-1,22
 126 253 126 253 112 254 c 128,-1,23
 98 255 98 255 90.5 256.5 c 128,-1,24
 83 258 83 258 71 260 c 0,25,26
 53 263 53 263 32 270 c 1,27,-1
 33 323 l 1,28,-1
 206 324 l 2,29,30
 246 324 246 324 261.5 336 c 128,-1,31
 277 348 277 348 277 379 c 2,32,-1
 277 399 l 2,33,34
 277 460 277 460 210 462 c 2,35,-1
 72 467 l 1,36,-1
 72 524 l 1,37,-1
 210 531 l 2,38,39
 278 534 278 534 278 589 c 2,40,-1
 278 609 l 2,41,42
 278 663 278 663 210 663 c 2,43,-1
 28 663 l 1,44,-1
 28 716 l 1,0,1
308 0 m 1,45,-1
 673 738 l 1,46,-1
 748 738 l 1,47,-1
 383 0 l 1,48,-1
 308 0 l 1,45,-1
850 186 m 1,49,-1
 850 305 l 1,50,-1
 874 354 l 1,51,-1
 922 354 l 1,52,-1
 922 186 l 1,53,-1
 978 186 l 1,54,-1
 978 128 l 1,55,-1
 922 114 l 1,56,-1
 922 0 l 1,57,-1
 850 0 l 1,58,-1
 850 114 l 1,59,-1
 607 114 l 1,60,-1
 585 144 l 1,61,-1
 783 476 l 1,62,-1
 862 476 l 1,63,-1
 693 186 l 1,64,-1
 850 186 l 1,49,-1
EndSplineSet
Ligature2: "'frac' Diagonal Fractions lookup 7 subtable" three fraction four
Ligature2: "'frac' Diagonal Fractions lookup 7 subtable" three slash four
EndChar

StartChar: questiondown
Encoding: 191 191 128
Width: 543
GlyphClass: 2
Flags: W
LayerCount: 2
Fore
SplineSet
342.5 -267.5 m 128,-1,1
 330 -268 330 -268 315 -268.5 c 128,-1,2
 300 -269 300 -269 285 -269 c 128,-1,3
 270 -269 270 -269 255 -268.5 c 128,-1,4
 240 -268 240 -268 239 -268 c 0,5,6
 107 -268 107 -268 61 -182 c 0,7,8
 37 -137 37 -137 37 -77 c 2,9,-1
 37 17 l 1,10,11
 36 106 36 106 102 149 c 0,12,13
 151 182 151 182 224 182 c 0,14,15
 248 182 248 182 274 178 c 1,16,-1
 274 276 l 1,17,-1
 361 276 l 1,18,-1
 362 105 l 1,19,20
 317 106 317 106 283 106 c 128,-1,21
 249 106 249 106 220 105 c 128,-1,22
 191 104 191 104 167 77 c 128,-1,23
 143 50 143 50 140 11 c 1,24,25
 139 -60 139 -60 139 -77 c 0,26,27
 139 -120 139 -120 167.5 -149.5 c 128,-1,28
 196 -179 196 -179 251 -179 c 0,29,30
 255 -179 255 -179 258 -179 c 2,31,-1
 524 -178 l 2,32,33
 523 -178 523 -178 523 -205 c 0,34,35
 524 -238 524 -238 523 -246 c 1,36,37
 516 -247 516 -247 491 -251 c 128,-1,38
 466 -255 466 -255 459.5 -255.5 c 128,-1,39
 453 -256 453 -256 431.5 -259 c 128,-1,40
 410 -262 410 -262 401.5 -263 c 128,-1,41
 393 -264 393 -264 374 -265.5 c 128,-1,0
 355 -267 355 -267 342.5 -267.5 c 128,-1,1
370 448 m 2,42,-1
 370 385 l 1,43,44
 369 361 369 361 349 360 c 1,45,-1
 284 360 l 1,46,47
 265 364 265 364 264 385 c 1,48,-1
 264 446 l 2,49,50
 264 456 264 456 271 463 c 128,-1,51
 278 470 278 470 288 471 c 1,52,-1
 346 471 l 1,53,54
 370 470 370 470 370 448 c 2,42,-1
EndSplineSet
Substitution2: "'case' Case-Sensitive Forms lookup 18 subtable" questiondown.alt
Substitution2: "'smcp' Lowercase to Small Capitals lookup 1 subtable" questiondown.smcp
EndChar

StartChar: Agrave
Encoding: 192 192 129
Width: 676
GlyphClass: 2
Flags: W
LayerCount: 2
Fore
SplineSet
186 932 m 1,0,-1
 289 932 l 1,1,-1
 391 797 l 1,2,-1
 316 797 l 1,3,-1
 186 932 l 1,0,-1
42 0 m 1,4,-1
 305 732 l 1,5,-1
 402 732 l 1,6,-1
 654 0 l 1,7,-1
 549 0 l 1,8,-1
 489 193 l 1,9,-1
 212 193 l 1,10,-1
 149 0 l 1,11,-1
 42 0 l 1,4,-1
241 280 m 1,12,-1
 461 280 l 1,13,-1
 353 600 l 1,14,-1
 241 280 l 1,12,-1
EndSplineSet
Substitution2: "'c2sc' Capitals to Small Capitals in Latin lookup 2 subtable" agrave.smcp
EndChar

StartChar: Aacute
Encoding: 193 193 130
Width: 676
GlyphClass: 2
Flags: W
LayerCount: 2
Fore
SplineSet
316 797 m 1,0,-1
 419 932 l 1,1,-1
 521 932 l 1,2,-1
 391 797 l 1,3,-1
 316 797 l 1,0,-1
42 0 m 1,4,-1
 305 732 l 1,5,-1
 402 732 l 1,6,-1
 654 0 l 1,7,-1
 549 0 l 1,8,-1
 489 193 l 1,9,-1
 212 193 l 1,10,-1
 149 0 l 1,11,-1
 42 0 l 1,4,-1
241 280 m 1,12,-1
 461 280 l 1,13,-1
 353 600 l 1,14,-1
 241 280 l 1,12,-1
EndSplineSet
Substitution2: "'c2sc' Capitals to Small Capitals in Latin lookup 2 subtable" aacute.smcp
EndChar

StartChar: Acircumflex
Encoding: 194 194 131
Width: 676
GlyphClass: 2
Flags: W
LayerCount: 2
Fore
SplineSet
205 797 m 1,0,-1
 320 928 l 1,1,-1
 400 928 l 1,2,-1
 502 797 l 1,3,-1
 425 797 l 1,4,-1
 357 865 l 1,5,-1
 283 797 l 1,6,-1
 205 797 l 1,0,-1
42 0 m 1,7,-1
 305 732 l 1,8,-1
 402 732 l 1,9,-1
 654 0 l 1,10,-1
 549 0 l 1,11,-1
 489 193 l 1,12,-1
 212 193 l 1,13,-1
 149 0 l 1,14,-1
 42 0 l 1,7,-1
241 280 m 1,15,-1
 461 280 l 1,16,-1
 353 600 l 1,17,-1
 241 280 l 1,15,-1
EndSplineSet
Substitution2: "'c2sc' Capitals to Small Capitals in Latin lookup 2 subtable" acircumflex.smcp
EndChar

StartChar: Atilde
Encoding: 195 195 132
Width: 676
GlyphClass: 2
Flags: W
LayerCount: 2
Fore
SplineSet
411 872 m 0,0,1
 438 872 438 872 501 909 c 1,2,-1
 523 862 l 1,3,4
 521 860 521 860 507.5 848.5 c 128,-1,5
 494 837 494 837 489 833 c 128,-1,6
 484 829 484 829 471.5 820 c 128,-1,7
 459 811 459 811 450 808 c 1,8,9
 404 787 404 787 349 816 c 0,10,11
 318 832 318 832 301 832 c 0,12,13
 270 832 270 832 243.5 817 c 128,-1,14
 217 802 217 802 206 797 c 1,15,-1
 184 842 l 1,16,17
 241 892 241 892 272 902 c 0,18,19
 311 915 311 915 354 894 c 128,-1,20
 397 873 397 873 403.5 872.5 c 128,-1,21
 410 872 410 872 411 872 c 0,0,1
42 0 m 1,22,-1
 305 732 l 1,23,-1
 402 732 l 1,24,-1
 654 0 l 1,25,-1
 549 0 l 1,26,-1
 489 193 l 1,27,-1
 212 193 l 1,28,-1
 149 0 l 1,29,-1
 42 0 l 1,22,-1
241 280 m 1,30,-1
 461 280 l 1,31,-1
 353 600 l 1,32,-1
 241 280 l 1,30,-1
EndSplineSet
Substitution2: "'c2sc' Capitals to Small Capitals in Latin lookup 2 subtable" atilde.smcp
EndChar

StartChar: Adieresis
Encoding: 196 196 133
Width: 676
GlyphClass: 2
Flags: W
LayerCount: 2
Fore
SplineSet
173 850 m 128,-1,1
 173 872 173 872 189 887 c 128,-1,2
 205 902 205 902 227 902 c 128,-1,3
 249 902 249 902 264 887 c 128,-1,4
 279 872 279 872 279 850 c 128,-1,5
 279 828 279 828 263.5 812.5 c 128,-1,6
 248 797 248 797 226.5 797 c 128,-1,7
 205 797 205 797 189 812.5 c 128,-1,0
 173 828 173 828 173 850 c 128,-1,1
428 850 m 128,-1,9
 428 872 428 872 444 887 c 128,-1,10
 460 902 460 902 482 902 c 128,-1,11
 504 902 504 902 519 887 c 128,-1,12
 534 872 534 872 534 850 c 128,-1,13
 534 828 534 828 518.5 812.5 c 128,-1,14
 503 797 503 797 481.5 797 c 128,-1,15
 460 797 460 797 444 812.5 c 128,-1,8
 428 828 428 828 428 850 c 128,-1,9
42 0 m 1,16,-1
 305 732 l 1,17,-1
 402 732 l 1,18,-1
 654 0 l 1,19,-1
 549 0 l 1,20,-1
 489 193 l 1,21,-1
 212 193 l 1,22,-1
 149 0 l 1,23,-1
 42 0 l 1,16,-1
241 280 m 1,24,-1
 461 280 l 1,25,-1
 353 600 l 1,26,-1
 241 280 l 1,24,-1
EndSplineSet
Substitution2: "'c2sc' Capitals to Small Capitals in Latin lookup 2 subtable" adieresis.smcp
EndChar

StartChar: Aring
Encoding: 197 197 134
Width: 676
GlyphClass: 2
Flags: W
LayerCount: 2
Fore
SplineSet
266 780.5 m 128,-1,1
 280 757 280 757 303.5 743.5 c 128,-1,2
 327 730 327 730 354.5 730 c 128,-1,3
 382 730 382 730 405 743.5 c 128,-1,4
 428 757 428 757 441.5 780.5 c 128,-1,5
 455 804 455 804 455 839.5 c 128,-1,6
 455 875 455 875 425.5 905 c 128,-1,7
 396 935 396 935 354 935 c 128,-1,8
 312 935 312 935 282 905 c 128,-1,9
 252 875 252 875 252 839.5 c 128,-1,0
 252 804 252 804 266 780.5 c 128,-1,1
302 832 m 128,-1,11
 302 853 302 853 317.5 868.5 c 128,-1,12
 333 884 333 884 358.5 884 c 128,-1,13
 384 884 384 884 398 858 c 0,14,15
 405 846 405 846 405 828.5 c 128,-1,16
 405 811 405 811 390 796 c 128,-1,17
 375 781 375 781 354 781 c 128,-1,18
 333 781 333 781 317.5 796 c 128,-1,10
 302 811 302 811 302 832 c 128,-1,11
42 0 m 1,19,-1
 305 732 l 1,20,-1
 402 732 l 1,21,-1
 654 0 l 1,22,-1
 549 0 l 1,23,-1
 489 193 l 1,24,-1
 212 193 l 1,25,-1
 149 0 l 1,26,-1
 42 0 l 1,19,-1
241 280 m 1,27,-1
 461 280 l 1,28,-1
 353 600 l 1,29,-1
 241 280 l 1,27,-1
EndSplineSet
Substitution2: "'c2sc' Capitals to Small Capitals in Latin lookup 2 subtable" aring.smcp
EndChar

StartChar: AE
Encoding: 198 198 135
Width: 930
GlyphClass: 2
Flags: W
LayerCount: 2
Fore
SplineSet
509 733 m 1,0,-1
 549 732 l 2,1,2
 559 732 559 732 714.5 725 c 128,-1,3
 870 718 870 718 888 716 c 1,4,-1
 888 641 l 1,5,-1
 579 641 l 2,6,7
 544 641 544 641 536 624 c 0,8,9
 530 611 530 611 529 588 c 1,10,-1
 529 405 l 1,11,-1
 846 395 l 1,12,-1
 846 321 l 1,13,-1
 529 311 l 1,14,-1
 529 137 l 2,15,16
 529 118 529 118 532.5 111.5 c 128,-1,17
 536 105 536 105 538 101 c 128,-1,18
 540 97 540 97 545 95 c 128,-1,19
 550 93 550 93 552.5 91.5 c 128,-1,20
 555 90 555 90 562 89.5 c 128,-1,21
 569 89 569 89 571 89 c 128,-1,22
 573 89 573 89 581 89 c 128,-1,23
 589 89 589 89 591 89 c 2,24,-1
 887 88 l 1,25,-1
 887 12 l 1,26,-1
 582 -5 l 2,27,28
 573 -5 573 -5 565 -5 c 0,29,30
 437 -5 437 -5 437 121 c 2,31,-1
 437 218 l 1,32,-1
 236 218 l 1,33,-1
 129 0 l 1,34,-1
 28 0 l 1,35,-1
 322 596 l 2,36,37
 364 680 364 680 415 708 c 0,38,39
 460 733 460 733 509 733 c 1,0,-1
437 305 m 1,40,-1
 437 626 l 1,41,-1
 279 305 l 1,42,-1
 437 305 l 1,40,-1
EndSplineSet
EndChar

StartChar: Ccedilla
Encoding: 199 199 136
Width: 576
GlyphClass: 2
Flags: W
LayerCount: 2
Fore
SplineSet
272 -36 m 1,0,-1
 346 -36 l 1,1,2
 346 -114 346 -114 324 -144 c 128,-1,3
 302 -174 302 -174 242 -174 c 2,4,-1
 190 -174 l 1,5,-1
 190 -130 l 1,6,-1
 240 -115 l 1,7,8
 259 -107 259 -107 265.5 -88 c 128,-1,9
 272 -69 272 -69 272 -36 c 1,0,-1
51 362 m 0,10,11
 51 442 51 442 57.5 497 c 128,-1,12
 64 552 64 552 80.5 599.5 c 128,-1,13
 97 647 97 647 124 677 c 0,14,15
 183 740 183 740 297 740 c 0,16,17
 419 740 419 740 544 713 c 1,18,-1
 544 640 l 1,19,20
 544 640 544 640 538.5 640.5 c 128,-1,21
 533 641 533 641 524 641.5 c 128,-1,22
 515 642 515 642 502.5 643 c 128,-1,23
 490 644 490 644 475 644.5 c 128,-1,24
 460 645 460 645 443.5 646 c 128,-1,25
 427 647 427 647 409 648 c 128,-1,26
 391 649 391 649 373 650 c 0,27,28
 336 651 336 651 297.5 651 c 128,-1,29
 259 651 259 651 230 640 c 128,-1,30
 201 629 201 629 180.5 597.5 c 128,-1,31
 160 566 160 566 151.5 510.5 c 128,-1,32
 143 455 143 455 143 392.5 c 128,-1,33
 143 330 143 330 145.5 299 c 128,-1,34
 148 268 148 268 153.5 238.5 c 128,-1,35
 159 209 159 209 167 185.5 c 128,-1,36
 175 162 175 162 188 142.5 c 128,-1,37
 201 123 201 123 218 110 c 0,38,39
 253 83 253 83 303 83 c 0,40,41
 399 83 399 83 508 88 c 1,42,-1
 544 90 l 1,43,-1
 544 18 l 1,44,45
 494 7 494 7 423.5 0.5 c 128,-1,46
 353 -6 353 -6 326 -6 c 128,-1,47
 299 -6 299 -6 297 -6 c 0,48,49
 161 -6 161 -6 104 99 c 0,50,51
 51 197 51 197 51 362 c 0,10,11
EndSplineSet
Substitution2: "'c2sc' Capitals to Small Capitals in Latin lookup 2 subtable" ccedilla.smcp
EndChar

StartChar: Egrave
Encoding: 200 200 137
Width: 567
GlyphClass: 2
Flags: W
LayerCount: 2
Fore
SplineSet
173 927 m 1,0,-1
 275 927 l 1,1,-1
 378 793 l 1,2,-1
 303 793 l 1,3,-1
 173 927 l 1,0,-1
74 129 m 2,4,-1
 74 596 l 2,5,6
 74 670 74 670 112 701 c 128,-1,7
 150 732 150 732 202 732 c 0,8,9
 206 732 206 732 357.5 725 c 128,-1,10
 509 718 509 718 527 716 c 1,11,-1
 527 642 l 1,12,-1
 218 642 l 2,13,14
 181 642 181 642 172 624 c 0,15,16
 166 610 166 610 166 586 c 2,17,-1
 166 410 l 1,18,-1
 485 400 l 1,19,-1
 485 325 l 1,20,-1
 166 315 l 1,21,-1
 166 139 l 1,22,23
 167 101 167 101 187 93 c 0,24,25
 203 87 203 87 228 87 c 2,26,-1
 527 87 l 1,27,-1
 527 14 l 1,28,-1
 219 -3 l 2,29,30
 211 -3 211 -3 203 -3 c 0,31,32
 74 -3 74 -3 74 129 c 2,4,-1
EndSplineSet
Substitution2: "'c2sc' Capitals to Small Capitals in Latin lookup 2 subtable" egrave.smcp
EndChar

StartChar: Eacute
Encoding: 201 201 138
Width: 567
GlyphClass: 2
Flags: W
LayerCount: 2
Fore
SplineSet
284 793 m 1,0,-1
 386 927 l 1,1,-1
 489 927 l 1,2,-1
 359 793 l 1,3,-1
 284 793 l 1,0,-1
74 129 m 2,4,-1
 74 596 l 2,5,6
 74 670 74 670 112 701 c 128,-1,7
 150 732 150 732 202 732 c 0,8,9
 206 732 206 732 357.5 725 c 128,-1,10
 509 718 509 718 527 716 c 1,11,-1
 527 642 l 1,12,-1
 218 642 l 2,13,14
 181 642 181 642 172 624 c 0,15,16
 166 610 166 610 166 586 c 2,17,-1
 166 410 l 1,18,-1
 485 400 l 1,19,-1
 485 325 l 1,20,-1
 166 315 l 1,21,-1
 166 139 l 1,22,23
 167 101 167 101 187 93 c 0,24,25
 203 87 203 87 228 87 c 2,26,-1
 527 87 l 1,27,-1
 527 14 l 1,28,-1
 219 -3 l 2,29,30
 211 -3 211 -3 203 -3 c 0,31,32
 74 -3 74 -3 74 129 c 2,4,-1
EndSplineSet
Substitution2: "'c2sc' Capitals to Small Capitals in Latin lookup 2 subtable" eacute.smcp
EndChar

StartChar: Ecircumflex
Encoding: 202 202 139
Width: 567
GlyphClass: 2
Flags: W
LayerCount: 2
Fore
SplineSet
168 797 m 1,0,-1
 283 928 l 1,1,-1
 363 928 l 1,2,-1
 465 797 l 1,3,-1
 388 797 l 1,4,-1
 320 865 l 1,5,-1
 246 797 l 1,6,-1
 168 797 l 1,0,-1
74 129 m 2,7,-1
 74 596 l 2,8,9
 74 670 74 670 112 701 c 128,-1,10
 150 732 150 732 202 732 c 0,11,12
 206 732 206 732 357.5 725 c 128,-1,13
 509 718 509 718 527 716 c 1,14,-1
 527 642 l 1,15,-1
 218 642 l 2,16,17
 181 642 181 642 172 624 c 0,18,19
 166 610 166 610 166 586 c 2,20,-1
 166 410 l 1,21,-1
 485 400 l 1,22,-1
 485 325 l 1,23,-1
 166 315 l 1,24,-1
 166 139 l 1,25,26
 167 101 167 101 187 93 c 0,27,28
 203 87 203 87 228 87 c 2,29,-1
 527 87 l 1,30,-1
 527 14 l 1,31,-1
 219 -3 l 2,32,33
 211 -3 211 -3 203 -3 c 0,34,35
 74 -3 74 -3 74 129 c 2,7,-1
EndSplineSet
Substitution2: "'c2sc' Capitals to Small Capitals in Latin lookup 2 subtable" ecircumflex.smcp
EndChar

StartChar: Edieresis
Encoding: 203 203 140
Width: 567
GlyphClass: 2
Flags: W
LayerCount: 2
Fore
SplineSet
136 846 m 128,-1,1
 136 868 136 868 151.5 883 c 128,-1,2
 167 898 167 898 189 898 c 128,-1,3
 211 898 211 898 226 883 c 128,-1,4
 241 868 241 868 241 846 c 128,-1,5
 241 824 241 824 226 808.5 c 128,-1,6
 211 793 211 793 189 793 c 128,-1,7
 167 793 167 793 151.5 808.5 c 128,-1,0
 136 824 136 824 136 846 c 128,-1,1
391 846 m 128,-1,9
 391 868 391 868 406.5 883 c 128,-1,10
 422 898 422 898 444 898 c 128,-1,11
 466 898 466 898 481 883 c 128,-1,12
 496 868 496 868 496 846 c 128,-1,13
 496 824 496 824 481 808.5 c 128,-1,14
 466 793 466 793 444 793 c 128,-1,15
 422 793 422 793 406.5 808.5 c 128,-1,8
 391 824 391 824 391 846 c 128,-1,9
74 129 m 2,16,-1
 74 596 l 2,17,18
 74 670 74 670 112 701 c 128,-1,19
 150 732 150 732 202 732 c 0,20,21
 206 732 206 732 357.5 725 c 128,-1,22
 509 718 509 718 527 716 c 1,23,-1
 527 642 l 1,24,-1
 218 642 l 2,25,26
 181 642 181 642 172 624 c 0,27,28
 166 610 166 610 166 586 c 2,29,-1
 166 410 l 1,30,-1
 485 400 l 1,31,-1
 485 325 l 1,32,-1
 166 315 l 1,33,-1
 166 139 l 1,34,35
 167 101 167 101 187 93 c 0,36,37
 203 87 203 87 228 87 c 2,38,-1
 527 87 l 1,39,-1
 527 14 l 1,40,-1
 219 -3 l 2,41,42
 211 -3 211 -3 203 -3 c 0,43,44
 74 -3 74 -3 74 129 c 2,16,-1
EndSplineSet
Substitution2: "'c2sc' Capitals to Small Capitals in Latin lookup 2 subtable" edieresis.smcp
EndChar

StartChar: Igrave
Encoding: 204 204 141
Width: 222
GlyphClass: 2
Flags: W
LayerCount: 2
Fore
SplineSet
-47 932 m 1,0,-1
 56 932 l 1,1,-1
 158 797 l 1,2,-1
 83 797 l 1,3,-1
 -47 932 l 1,0,-1
75 0 m 1,4,-1
 75 732 l 1,5,-1
 167 732 l 1,6,-1
 167 0 l 1,7,-1
 75 0 l 1,4,-1
EndSplineSet
Substitution2: "'c2sc' Capitals to Small Capitals in Latin lookup 2 subtable" igrave.smcp
EndChar

StartChar: Iacute
Encoding: 205 205 142
Width: 222
GlyphClass: 2
Flags: W
LayerCount: 2
Fore
SplineSet
83 797 m 1,0,-1
 186 932 l 1,1,-1
 288 932 l 1,2,-1
 158 797 l 1,3,-1
 83 797 l 1,0,-1
75 0 m 1,4,-1
 75 732 l 1,5,-1
 167 732 l 1,6,-1
 167 0 l 1,7,-1
 75 0 l 1,4,-1
EndSplineSet
Substitution2: "'c2sc' Capitals to Small Capitals in Latin lookup 2 subtable" iacute.smcp
EndChar

StartChar: Icircumflex
Encoding: 206 206 143
Width: 222
GlyphClass: 2
Flags: W
LayerCount: 2
Fore
SplineSet
-28 797 m 1,0,-1
 87 928 l 1,1,-1
 167 928 l 1,2,-1
 269 797 l 1,3,-1
 192 797 l 1,4,-1
 124 865 l 1,5,-1
 50 797 l 1,6,-1
 -28 797 l 1,0,-1
75 0 m 1,7,-1
 75 732 l 1,8,-1
 167 732 l 1,9,-1
 167 0 l 1,10,-1
 75 0 l 1,7,-1
EndSplineSet
Substitution2: "'c2sc' Capitals to Small Capitals in Latin lookup 2 subtable" icircumflex.smcp
EndChar

StartChar: Idieresis
Encoding: 207 207 144
Width: 222
GlyphClass: 2
Flags: W
LayerCount: 2
Fore
SplineSet
-60 850 m 128,-1,1
 -60 872 -60 872 -44 887 c 128,-1,2
 -28 902 -28 902 -6 902 c 128,-1,3
 16 902 16 902 31 887 c 128,-1,4
 46 872 46 872 46 850 c 128,-1,5
 46 828 46 828 31 812.5 c 128,-1,6
 16 797 16 797 -6 797 c 128,-1,7
 -28 797 -28 797 -44 812.5 c 128,-1,0
 -60 828 -60 828 -60 850 c 128,-1,1
196 850 m 128,-1,9
 196 872 196 872 211.5 887 c 128,-1,10
 227 902 227 902 249 902 c 128,-1,11
 271 902 271 902 286 887 c 128,-1,12
 301 872 301 872 301 850 c 128,-1,13
 301 828 301 828 286 812.5 c 128,-1,14
 271 797 271 797 249 797 c 128,-1,15
 227 797 227 797 211.5 812.5 c 128,-1,8
 196 828 196 828 196 850 c 128,-1,9
75 0 m 1,16,-1
 75 732 l 1,17,-1
 167 732 l 1,18,-1
 167 0 l 1,19,-1
 75 0 l 1,16,-1
EndSplineSet
Substitution2: "'c2sc' Capitals to Small Capitals in Latin lookup 2 subtable" idieresis.smcp
EndChar

StartChar: Eth
Encoding: 208 208 145
Width: 658
GlyphClass: 2
Flags: W
LayerCount: 2
Fore
SplineSet
10 344 m 1,0,-1
 10 402 l 1,1,-1
 75 402 l 1,2,-1
 75 731 l 2,3,4
 75 732 75 732 358 732 c 0,5,6
 488 732 488 732 552 636 c 1,7,8
 616 542 616 542 616 363 c 0,9,10
 616 177 616 177 531 76 c 0,11,12
 502 41 502 41 457.5 20.5 c 128,-1,13
 413 0 413 0 358 0 c 2,14,-1
 75 0 l 1,15,-1
 75 344 l 1,16,-1
 10 344 l 1,0,-1
167 90 m 1,17,-1
 355 90 l 2,18,19
 413 90 413 90 451 128 c 0,20,21
 521 197 521 197 521 364 c 0,22,23
 521 640 521 640 355 640 c 2,24,-1
 167 639 l 1,25,-1
 167 402 l 1,26,-1
 298 402 l 1,27,-1
 298 344 l 1,28,-1
 167 344 l 1,29,-1
 167 90 l 1,17,-1
EndSplineSet
Substitution2: "'c2sc' Capitals to Small Capitals in Latin lookup 2 subtable" eth.smcp
EndChar

StartChar: Ntilde
Encoding: 209 209 146
Width: 679
GlyphClass: 2
Flags: W
LayerCount: 2
Fore
SplineSet
407 872 m 0,0,1
 434 872 434 872 496 909 c 1,2,-1
 519 862 l 1,3,4
 515 859 515 859 507 852 c 128,-1,5
 499 845 499 845 494 840.5 c 128,-1,6
 489 836 489 836 480.5 830 c 128,-1,7
 472 824 472 824 466 819.5 c 128,-1,8
 460 815 460 815 451.5 810.5 c 128,-1,9
 443 806 443 806 436 803 c 0,10,11
 396 789 396 789 344 816 c 0,12,13
 314 832 314 832 297 832 c 0,14,15
 269 832 269 832 253.5 824 c 128,-1,16
 238 816 238 816 225 808.5 c 128,-1,17
 212 801 212 801 201 797 c 1,18,-1
 179 842 l 1,19,20
 236 892 236 892 267 902 c 0,21,22
 306 915 306 915 349 894 c 128,-1,23
 392 873 392 873 399 872.5 c 128,-1,24
 406 872 406 872 407 872 c 0,0,1
75 0 m 1,25,-1
 75 732 l 1,26,-1
 169 732 l 1,27,-1
 532 171 l 1,28,-1
 532 732 l 1,29,-1
 624 732 l 1,30,-1
 624 0 l 1,31,-1
 532 0 l 1,32,-1
 168 560 l 1,33,-1
 168 0 l 1,34,-1
 75 0 l 1,25,-1
EndSplineSet
AlternateSubs2: "'salt' Stylistic Alternatives in Latin lookup 16 subtable" Ntilde.salt
Substitution2: "'c2sc' Capitals to Small Capitals in Latin lookup 2 subtable" ntilde.smcp
EndChar

StartChar: Ograve
Encoding: 210 210 147
Width: 674
GlyphClass: 2
Flags: W
LayerCount: 2
Fore
SplineSet
180 932 m 1,0,-1
 283 932 l 1,1,-1
 385 797 l 1,2,-1
 310 797 l 1,3,-1
 180 932 l 1,0,-1
61 362 m 0,4,5
 61 433 61 433 68.5 489.5 c 128,-1,6
 76 546 76 546 88 585.5 c 128,-1,7
 100 625 100 625 121 653 c 128,-1,8
 142 681 142 681 164 697 c 128,-1,9
 186 713 186 713 218 722 c 0,10,11
 269 737 269 737 329 737 c 128,-1,12
 389 737 389 737 418.5 734 c 128,-1,13
 448 731 448 731 479.5 722 c 128,-1,14
 511 713 511 713 532.5 697 c 128,-1,15
 554 681 554 681 574.5 653 c 128,-1,16
 595 625 595 625 607 586 c 0,17,18
 633 499 633 499 633 361 c 0,19,20
 633 199 633 199 598 123 c 1,21,22
 581 83 581 83 558.5 57.5 c 128,-1,23
 536 32 536 32 501 19 c 0,24,25
 442 -4 442 -4 348 -4 c 0,26,27
 211 -4 211 -4 159 35 c 0,28,29
 106 74 106 74 86 143 c 0,30,31
 61 227 61 227 61 362 c 0,4,5
162 499 m 128,-1,33
 153 444 153 444 153 382 c 128,-1,34
 153 320 153 320 155 288 c 128,-1,35
 157 256 157 256 160.5 229 c 128,-1,36
 164 202 164 202 170.5 182 c 128,-1,37
 177 162 177 162 185 146.5 c 128,-1,38
 193 131 193 131 205 120.5 c 128,-1,39
 217 110 217 110 230.5 103 c 128,-1,40
 244 96 244 96 263 92 c 0,41,42
 297 85 297 85 345.5 85 c 128,-1,43
 394 85 394 85 424 91.5 c 128,-1,44
 454 98 454 98 478 114.5 c 128,-1,45
 502 131 502 131 515 163 c 0,46,47
 541 226 541 226 541 361 c 0,48,49
 541 450 541 450 534.5 487.5 c 128,-1,50
 528 525 528 525 523.5 546 c 128,-1,51
 519 567 519 567 510 582.5 c 128,-1,52
 501 598 501 598 493 609 c 128,-1,53
 485 620 485 620 471 627.5 c 128,-1,54
 457 635 457 635 446.5 639 c 128,-1,55
 436 643 436 643 417 645 c 0,56,57
 389 648 389 648 345 648 c 128,-1,58
 301 648 301 648 277.5 645 c 128,-1,59
 254 642 254 642 225.5 627.5 c 128,-1,60
 197 613 197 613 184 583.5 c 128,-1,32
 171 554 171 554 162 499 c 128,-1,33
EndSplineSet
Substitution2: "'c2sc' Capitals to Small Capitals in Latin lookup 2 subtable" ograve.smcp
EndChar

StartChar: Oacute
Encoding: 211 211 148
Width: 674
GlyphClass: 2
Flags: W
LayerCount: 2
Fore
SplineSet
310 797 m 1,0,-1
 413 932 l 1,1,-1
 515 932 l 1,2,-1
 385 797 l 1,3,-1
 310 797 l 1,0,-1
61 362 m 0,4,5
 61 433 61 433 68.5 489.5 c 128,-1,6
 76 546 76 546 88 585.5 c 128,-1,7
 100 625 100 625 121 653 c 128,-1,8
 142 681 142 681 164 697 c 128,-1,9
 186 713 186 713 218 722 c 0,10,11
 269 737 269 737 329 737 c 128,-1,12
 389 737 389 737 418.5 734 c 128,-1,13
 448 731 448 731 479.5 722 c 128,-1,14
 511 713 511 713 532.5 697 c 128,-1,15
 554 681 554 681 574.5 653 c 128,-1,16
 595 625 595 625 607 586 c 0,17,18
 633 499 633 499 633 361 c 0,19,20
 633 199 633 199 598 123 c 1,21,22
 581 83 581 83 558.5 57.5 c 128,-1,23
 536 32 536 32 501 19 c 0,24,25
 442 -4 442 -4 348 -4 c 0,26,27
 211 -4 211 -4 159 35 c 0,28,29
 106 74 106 74 86 143 c 0,30,31
 61 227 61 227 61 362 c 0,4,5
162 499 m 128,-1,33
 153 444 153 444 153 382 c 128,-1,34
 153 320 153 320 155 288 c 128,-1,35
 157 256 157 256 160.5 229 c 128,-1,36
 164 202 164 202 170.5 182 c 128,-1,37
 177 162 177 162 185 146.5 c 128,-1,38
 193 131 193 131 205 120.5 c 128,-1,39
 217 110 217 110 230.5 103 c 128,-1,40
 244 96 244 96 263 92 c 0,41,42
 297 85 297 85 345.5 85 c 128,-1,43
 394 85 394 85 424 91.5 c 128,-1,44
 454 98 454 98 478 114.5 c 128,-1,45
 502 131 502 131 515 163 c 0,46,47
 541 226 541 226 541 361 c 0,48,49
 541 450 541 450 534.5 487.5 c 128,-1,50
 528 525 528 525 523.5 546 c 128,-1,51
 519 567 519 567 510 582.5 c 128,-1,52
 501 598 501 598 493 609 c 128,-1,53
 485 620 485 620 471 627.5 c 128,-1,54
 457 635 457 635 446.5 639 c 128,-1,55
 436 643 436 643 417 645 c 0,56,57
 389 648 389 648 345 648 c 128,-1,58
 301 648 301 648 277.5 645 c 128,-1,59
 254 642 254 642 225.5 627.5 c 128,-1,60
 197 613 197 613 184 583.5 c 128,-1,32
 171 554 171 554 162 499 c 128,-1,33
EndSplineSet
Substitution2: "'c2sc' Capitals to Small Capitals in Latin lookup 2 subtable" oacute.smcp
EndChar

StartChar: Ocircumflex
Encoding: 212 212 149
Width: 674
GlyphClass: 2
Flags: W
LayerCount: 2
Fore
SplineSet
199 797 m 1,0,-1
 314 928 l 1,1,-1
 394 928 l 1,2,-1
 496 797 l 1,3,-1
 419 797 l 1,4,-1
 351 865 l 1,5,-1
 277 797 l 1,6,-1
 199 797 l 1,0,-1
61 362 m 0,7,8
 61 433 61 433 68.5 489.5 c 128,-1,9
 76 546 76 546 88 585.5 c 128,-1,10
 100 625 100 625 121 653 c 128,-1,11
 142 681 142 681 164 697 c 128,-1,12
 186 713 186 713 218 722 c 0,13,14
 269 737 269 737 329 737 c 128,-1,15
 389 737 389 737 418.5 734 c 128,-1,16
 448 731 448 731 479.5 722 c 128,-1,17
 511 713 511 713 532.5 697 c 128,-1,18
 554 681 554 681 574.5 653 c 128,-1,19
 595 625 595 625 607 586 c 0,20,21
 633 499 633 499 633 361 c 0,22,23
 633 199 633 199 598 123 c 1,24,25
 581 83 581 83 558.5 57.5 c 128,-1,26
 536 32 536 32 501 19 c 0,27,28
 442 -4 442 -4 348 -4 c 0,29,30
 211 -4 211 -4 159 35 c 0,31,32
 106 74 106 74 86 143 c 0,33,34
 61 227 61 227 61 362 c 0,7,8
162 499 m 128,-1,36
 153 444 153 444 153 382 c 128,-1,37
 153 320 153 320 155 288 c 128,-1,38
 157 256 157 256 160.5 229 c 128,-1,39
 164 202 164 202 170.5 182 c 128,-1,40
 177 162 177 162 185 146.5 c 128,-1,41
 193 131 193 131 205 120.5 c 128,-1,42
 217 110 217 110 230.5 103 c 128,-1,43
 244 96 244 96 263 92 c 0,44,45
 297 85 297 85 345.5 85 c 128,-1,46
 394 85 394 85 424 91.5 c 128,-1,47
 454 98 454 98 478 114.5 c 128,-1,48
 502 131 502 131 515 163 c 0,49,50
 541 226 541 226 541 361 c 0,51,52
 541 450 541 450 534.5 487.5 c 128,-1,53
 528 525 528 525 523.5 546 c 128,-1,54
 519 567 519 567 510 582.5 c 128,-1,55
 501 598 501 598 493 609 c 128,-1,56
 485 620 485 620 471 627.5 c 128,-1,57
 457 635 457 635 446.5 639 c 128,-1,58
 436 643 436 643 417 645 c 0,59,60
 389 648 389 648 345 648 c 128,-1,61
 301 648 301 648 277.5 645 c 128,-1,62
 254 642 254 642 225.5 627.5 c 128,-1,63
 197 613 197 613 184 583.5 c 128,-1,35
 171 554 171 554 162 499 c 128,-1,36
EndSplineSet
Substitution2: "'c2sc' Capitals to Small Capitals in Latin lookup 2 subtable" ocircumflex.smcp
EndChar

StartChar: Otilde
Encoding: 213 213 150
Width: 674
GlyphClass: 2
Flags: W
LayerCount: 2
Fore
SplineSet
405 872 m 0,0,1
 432 872 432 872 495 909 c 1,2,-1
 517 862 l 1,3,4
 515 860 515 860 501.5 848.5 c 128,-1,5
 488 837 488 837 483 833 c 128,-1,6
 478 829 478 829 465.5 820 c 128,-1,7
 453 811 453 811 444 808 c 1,8,9
 398 787 398 787 343 816 c 0,10,11
 312 832 312 832 295 832 c 0,12,13
 266 832 266 832 237 816 c 0,14,15
 210 801 210 801 200 797 c 1,16,-1
 178 842 l 1,17,18
 235 892 235 892 266 902 c 0,19,20
 305 915 305 915 348 894 c 128,-1,21
 391 873 391 873 397.5 872.5 c 128,-1,22
 404 872 404 872 405 872 c 0,0,1
61 362 m 0,23,24
 61 433 61 433 68.5 489.5 c 128,-1,25
 76 546 76 546 88 585.5 c 128,-1,26
 100 625 100 625 121 653 c 128,-1,27
 142 681 142 681 164 697 c 128,-1,28
 186 713 186 713 218 722 c 0,29,30
 269 737 269 737 329 737 c 128,-1,31
 389 737 389 737 418.5 734 c 128,-1,32
 448 731 448 731 479.5 722 c 128,-1,33
 511 713 511 713 532.5 697 c 128,-1,34
 554 681 554 681 574.5 653 c 128,-1,35
 595 625 595 625 607 586 c 0,36,37
 633 499 633 499 633 361 c 0,38,39
 633 199 633 199 598 123 c 1,40,41
 581 83 581 83 558.5 57.5 c 128,-1,42
 536 32 536 32 501 19 c 0,43,44
 442 -4 442 -4 348 -4 c 0,45,46
 211 -4 211 -4 159 35 c 0,47,48
 106 74 106 74 86 143 c 0,49,50
 61 227 61 227 61 362 c 0,23,24
162 499 m 128,-1,52
 153 444 153 444 153 382 c 128,-1,53
 153 320 153 320 155 288 c 128,-1,54
 157 256 157 256 160.5 229 c 128,-1,55
 164 202 164 202 170.5 182 c 128,-1,56
 177 162 177 162 185 146.5 c 128,-1,57
 193 131 193 131 205 120.5 c 128,-1,58
 217 110 217 110 230.5 103 c 128,-1,59
 244 96 244 96 263 92 c 0,60,61
 297 85 297 85 345.5 85 c 128,-1,62
 394 85 394 85 424 91.5 c 128,-1,63
 454 98 454 98 478 114.5 c 128,-1,64
 502 131 502 131 515 163 c 0,65,66
 541 226 541 226 541 361 c 0,67,68
 541 450 541 450 534.5 487.5 c 128,-1,69
 528 525 528 525 523.5 546 c 128,-1,70
 519 567 519 567 510 582.5 c 128,-1,71
 501 598 501 598 493 609 c 128,-1,72
 485 620 485 620 471 627.5 c 128,-1,73
 457 635 457 635 446.5 639 c 128,-1,74
 436 643 436 643 417 645 c 0,75,76
 389 648 389 648 345 648 c 128,-1,77
 301 648 301 648 277.5 645 c 128,-1,78
 254 642 254 642 225.5 627.5 c 128,-1,79
 197 613 197 613 184 583.5 c 128,-1,51
 171 554 171 554 162 499 c 128,-1,52
EndSplineSet
Substitution2: "'c2sc' Capitals to Small Capitals in Latin lookup 2 subtable" otilde.smcp
EndChar

StartChar: Odieresis
Encoding: 214 214 151
Width: 674
GlyphClass: 2
Flags: W
LayerCount: 2
Fore
SplineSet
167 850 m 128,-1,1
 167 872 167 872 183 887 c 128,-1,2
 199 902 199 902 221 902 c 128,-1,3
 243 902 243 902 258 887 c 128,-1,4
 273 872 273 872 273 850 c 128,-1,5
 273 828 273 828 257.5 812.5 c 128,-1,6
 242 797 242 797 220.5 797 c 128,-1,7
 199 797 199 797 183 812.5 c 128,-1,0
 167 828 167 828 167 850 c 128,-1,1
422 850 m 128,-1,9
 422 872 422 872 438 887 c 128,-1,10
 454 902 454 902 476 902 c 128,-1,11
 498 902 498 902 513 887 c 128,-1,12
 528 872 528 872 528 850 c 128,-1,13
 528 828 528 828 512.5 812.5 c 128,-1,14
 497 797 497 797 475.5 797 c 128,-1,15
 454 797 454 797 438 812.5 c 128,-1,8
 422 828 422 828 422 850 c 128,-1,9
61 362 m 0,16,17
 61 433 61 433 68.5 489.5 c 128,-1,18
 76 546 76 546 88 585.5 c 128,-1,19
 100 625 100 625 121 653 c 128,-1,20
 142 681 142 681 164 697 c 128,-1,21
 186 713 186 713 218 722 c 0,22,23
 269 737 269 737 329 737 c 128,-1,24
 389 737 389 737 418.5 734 c 128,-1,25
 448 731 448 731 479.5 722 c 128,-1,26
 511 713 511 713 532.5 697 c 128,-1,27
 554 681 554 681 574.5 653 c 128,-1,28
 595 625 595 625 607 586 c 0,29,30
 633 499 633 499 633 361 c 0,31,32
 633 199 633 199 598 123 c 1,33,34
 581 83 581 83 558.5 57.5 c 128,-1,35
 536 32 536 32 501 19 c 0,36,37
 442 -4 442 -4 348 -4 c 0,38,39
 211 -4 211 -4 159 35 c 0,40,41
 106 74 106 74 86 143 c 0,42,43
 61 227 61 227 61 362 c 0,16,17
162 499 m 128,-1,45
 153 444 153 444 153 382 c 128,-1,46
 153 320 153 320 155 288 c 128,-1,47
 157 256 157 256 160.5 229 c 128,-1,48
 164 202 164 202 170.5 182 c 128,-1,49
 177 162 177 162 185 146.5 c 128,-1,50
 193 131 193 131 205 120.5 c 128,-1,51
 217 110 217 110 230.5 103 c 128,-1,52
 244 96 244 96 263 92 c 0,53,54
 297 85 297 85 345.5 85 c 128,-1,55
 394 85 394 85 424 91.5 c 128,-1,56
 454 98 454 98 478 114.5 c 128,-1,57
 502 131 502 131 515 163 c 0,58,59
 541 226 541 226 541 361 c 0,60,61
 541 450 541 450 534.5 487.5 c 128,-1,62
 528 525 528 525 523.5 546 c 128,-1,63
 519 567 519 567 510 582.5 c 128,-1,64
 501 598 501 598 493 609 c 128,-1,65
 485 620 485 620 471 627.5 c 128,-1,66
 457 635 457 635 446.5 639 c 128,-1,67
 436 643 436 643 417 645 c 0,68,69
 389 648 389 648 345 648 c 128,-1,70
 301 648 301 648 277.5 645 c 128,-1,71
 254 642 254 642 225.5 627.5 c 128,-1,72
 197 613 197 613 184 583.5 c 128,-1,44
 171 554 171 554 162 499 c 128,-1,45
EndSplineSet
Substitution2: "'c2sc' Capitals to Small Capitals in Latin lookup 2 subtable" odieresis.smcp
EndChar

StartChar: multiply
Encoding: 215 215 152
Width: 459
GlyphClass: 2
Flags: W
LayerCount: 2
Fore
SplineSet
52 239 m 1,0,-1
 169 355 l 1,1,-1
 52 472 l 1,2,-1
 113 533 l 1,3,-1
 230 416 l 1,4,-1
 347 533 l 1,5,-1
 408 473 l 1,6,-1
 290 355 l 1,7,-1
 407 239 l 1,8,-1
 346 178 l 1,9,-1
 230 294 l 1,10,-1
 114 179 l 1,11,-1
 52 239 l 1,0,-1
EndSplineSet
EndChar

StartChar: Oslash
Encoding: 216 216 153
Width: 676
GlyphClass: 2
Flags: W
LayerCount: 2
Fore
SplineSet
121 653 m 0,0,1
 142 681 142 681 163.5 697 c 128,-1,2
 185 713 185 713 217 722 c 0,3,4
 268 737 268 737 339 737 c 128,-1,5
 410 737 410 737 453 729.5 c 128,-1,6
 496 722 496 722 529 700 c 1,7,-1
 550 732 l 1,8,-1
 615 732 l 1,9,-1
 569 662 l 1,10,11
 634 578 634 578 634 361 c 0,12,13
 634 130 634 130 558 57 c 0,14,15
 518 19 518 19 468.5 7.5 c 128,-1,16
 419 -4 419 -4 351 -4 c 128,-1,17
 283 -4 283 -4 238 4 c 128,-1,18
 193 12 193 12 160 35 c 1,19,-1
 137 0 l 1,20,-1
 72 0 l 1,21,-1
 120 74 l 1,22,23
 62 155 62 155 62 364 c 128,-1,24
 62 573 62 573 121 653 c 0,0,1
181 165 m 1,25,-1
 478 624 l 1,26,27
 451 644 451 644 401 647 c 0,28,29
 382 648 382 648 353.5 648 c 128,-1,30
 325 648 325 648 311.5 647.5 c 128,-1,31
 298 647 298 647 279.5 645 c 128,-1,32
 261 643 261 643 250.5 639 c 128,-1,33
 240 635 240 635 225.5 628 c 128,-1,34
 211 621 211 621 203.5 610 c 128,-1,35
 196 599 196 599 186.5 583.5 c 128,-1,36
 177 568 177 568 172 547 c 128,-1,37
 167 526 167 526 162 499 c 0,38,39
 154 451 154 451 154 335.5 c 128,-1,40
 154 220 154 220 181 165 c 1,25,-1
479 114 m 0,41,42
 542 158 542 158 542 361 c 0,43,44
 542 516 542 516 512 577 c 1,45,-1
 213 115 l 1,46,47
 251 85 251 85 343.5 85 c 128,-1,48
 436 85 436 85 479 114 c 0,41,42
EndSplineSet
Substitution2: "'c2sc' Capitals to Small Capitals in Latin lookup 2 subtable" oslash.smcp
EndChar

StartChar: Ugrave
Encoding: 217 217 154
Width: 673
GlyphClass: 2
Flags: W
LayerCount: 2
Fore
SplineSet
179 932 m 1,0,-1
 281 932 l 1,1,-1
 384 797 l 1,2,-1
 309 797 l 1,3,-1
 179 932 l 1,0,-1
349 -5 m 2,4,-1
 335 -5 l 2,5,6
 217 -5 217 -5 179 20 c 0,7,8
 161 32 161 32 138 55.5 c 128,-1,9
 115 79 115 79 103 113 c 0,10,11
 75 197 75 197 75 320 c 2,12,-1
 75 732 l 1,13,-1
 167 732 l 1,14,-1
 167 320 l 2,15,16
 167 246 167 246 173.5 215 c 128,-1,17
 180 184 180 184 184.5 166.5 c 128,-1,18
 189 149 189 149 198 136.5 c 128,-1,19
 207 124 207 124 214.5 115 c 128,-1,20
 222 106 222 106 235.5 100 c 128,-1,21
 249 94 249 94 259 91 c 128,-1,22
 269 88 269 88 286 86 c 0,23,24
 312 84 312 84 342.5 84 c 128,-1,25
 373 84 373 84 389.5 85 c 128,-1,26
 406 86 406 86 426 91.5 c 128,-1,27
 446 97 446 97 459 106 c 128,-1,28
 472 115 472 115 486 132.5 c 128,-1,29
 500 150 500 150 507 175 c 0,30,31
 525 231 525 231 525 320 c 2,32,-1
 525 732 l 1,33,-1
 618 732 l 1,34,-1
 618 320 l 2,35,36
 618 124 618 124 549 57 c 0,37,38
 525 33 525 33 506 21 c 128,-1,39
 487 9 487 9 454 3 c 0,40,41
 412 -5 412 -5 349 -5 c 2,4,-1
EndSplineSet
Substitution2: "'c2sc' Capitals to Small Capitals in Latin lookup 2 subtable" ugrave.smcp
EndChar

StartChar: Uacute
Encoding: 218 218 155
Width: 673
GlyphClass: 2
Flags: W
LayerCount: 2
Fore
SplineSet
309 797 m 1,0,-1
 411 932 l 1,1,-1
 514 932 l 1,2,-1
 384 797 l 1,3,-1
 309 797 l 1,0,-1
349 -5 m 2,4,-1
 335 -5 l 2,5,6
 217 -5 217 -5 179 20 c 0,7,8
 161 32 161 32 138 55.5 c 128,-1,9
 115 79 115 79 103 113 c 0,10,11
 75 197 75 197 75 320 c 2,12,-1
 75 732 l 1,13,-1
 167 732 l 1,14,-1
 167 320 l 2,15,16
 167 246 167 246 173.5 215 c 128,-1,17
 180 184 180 184 184.5 166.5 c 128,-1,18
 189 149 189 149 198 136.5 c 128,-1,19
 207 124 207 124 214.5 115 c 128,-1,20
 222 106 222 106 235.5 100 c 128,-1,21
 249 94 249 94 259 91 c 128,-1,22
 269 88 269 88 286 86 c 0,23,24
 312 84 312 84 342.5 84 c 128,-1,25
 373 84 373 84 389.5 85 c 128,-1,26
 406 86 406 86 426 91.5 c 128,-1,27
 446 97 446 97 459 106 c 128,-1,28
 472 115 472 115 486 132.5 c 128,-1,29
 500 150 500 150 507 175 c 0,30,31
 525 231 525 231 525 320 c 2,32,-1
 525 732 l 1,33,-1
 618 732 l 1,34,-1
 618 320 l 2,35,36
 618 124 618 124 549 57 c 0,37,38
 525 33 525 33 506 21 c 128,-1,39
 487 9 487 9 454 3 c 0,40,41
 412 -5 412 -5 349 -5 c 2,4,-1
EndSplineSet
Substitution2: "'c2sc' Capitals to Small Capitals in Latin lookup 2 subtable" uacute.smcp
EndChar

StartChar: Ucircumflex
Encoding: 219 219 156
Width: 673
GlyphClass: 2
Flags: W
LayerCount: 2
Fore
SplineSet
198 797 m 1,0,-1
 312 928 l 1,1,-1
 392 928 l 1,2,-1
 494 797 l 1,3,-1
 418 797 l 1,4,-1
 350 865 l 1,5,-1
 276 797 l 1,6,-1
 198 797 l 1,0,-1
349 -5 m 2,7,-1
 335 -5 l 2,8,9
 217 -5 217 -5 179 20 c 0,10,11
 161 32 161 32 138 55.5 c 128,-1,12
 115 79 115 79 103 113 c 0,13,14
 75 197 75 197 75 320 c 2,15,-1
 75 732 l 1,16,-1
 167 732 l 1,17,-1
 167 320 l 2,18,19
 167 246 167 246 173.5 215 c 128,-1,20
 180 184 180 184 184.5 166.5 c 128,-1,21
 189 149 189 149 198 136.5 c 128,-1,22
 207 124 207 124 214.5 115 c 128,-1,23
 222 106 222 106 235.5 100 c 128,-1,24
 249 94 249 94 259 91 c 128,-1,25
 269 88 269 88 286 86 c 0,26,27
 312 84 312 84 342.5 84 c 128,-1,28
 373 84 373 84 389.5 85 c 128,-1,29
 406 86 406 86 426 91.5 c 128,-1,30
 446 97 446 97 459 106 c 128,-1,31
 472 115 472 115 486 132.5 c 128,-1,32
 500 150 500 150 507 175 c 0,33,34
 525 231 525 231 525 320 c 2,35,-1
 525 732 l 1,36,-1
 618 732 l 1,37,-1
 618 320 l 2,38,39
 618 124 618 124 549 57 c 0,40,41
 525 33 525 33 506 21 c 128,-1,42
 487 9 487 9 454 3 c 0,43,44
 412 -5 412 -5 349 -5 c 2,7,-1
EndSplineSet
Substitution2: "'c2sc' Capitals to Small Capitals in Latin lookup 2 subtable" ucircumflex.smcp
EndChar

StartChar: Udieresis
Encoding: 220 220 157
Width: 673
GlyphClass: 2
Flags: W
LayerCount: 2
Fore
SplineSet
166 850 m 128,-1,1
 166 872 166 872 181.5 887 c 128,-1,2
 197 902 197 902 219 902 c 128,-1,3
 241 902 241 902 256.5 887 c 128,-1,4
 272 872 272 872 272 850 c 128,-1,5
 272 828 272 828 256.5 812.5 c 128,-1,6
 241 797 241 797 219 797 c 128,-1,7
 197 797 197 797 181.5 812.5 c 128,-1,0
 166 828 166 828 166 850 c 128,-1,1
421 850 m 128,-1,9
 421 872 421 872 436.5 887 c 128,-1,10
 452 902 452 902 474 902 c 128,-1,11
 496 902 496 902 511 887 c 128,-1,12
 526 872 526 872 526 850 c 128,-1,13
 526 828 526 828 511 812.5 c 128,-1,14
 496 797 496 797 474 797 c 128,-1,15
 452 797 452 797 436.5 812.5 c 128,-1,8
 421 828 421 828 421 850 c 128,-1,9
349 -5 m 2,16,-1
 335 -5 l 2,17,18
 217 -5 217 -5 179 20 c 0,19,20
 161 32 161 32 138 55.5 c 128,-1,21
 115 79 115 79 103 113 c 0,22,23
 75 197 75 197 75 320 c 2,24,-1
 75 732 l 1,25,-1
 167 732 l 1,26,-1
 167 320 l 2,27,28
 167 246 167 246 173.5 215 c 128,-1,29
 180 184 180 184 184.5 166.5 c 128,-1,30
 189 149 189 149 198 136.5 c 128,-1,31
 207 124 207 124 214.5 115 c 128,-1,32
 222 106 222 106 235.5 100 c 128,-1,33
 249 94 249 94 259 91 c 128,-1,34
 269 88 269 88 286 86 c 0,35,36
 312 84 312 84 342.5 84 c 128,-1,37
 373 84 373 84 389.5 85 c 128,-1,38
 406 86 406 86 426 91.5 c 128,-1,39
 446 97 446 97 459 106 c 128,-1,40
 472 115 472 115 486 132.5 c 128,-1,41
 500 150 500 150 507 175 c 0,42,43
 525 231 525 231 525 320 c 2,44,-1
 525 732 l 1,45,-1
 618 732 l 1,46,-1
 618 320 l 2,47,48
 618 124 618 124 549 57 c 0,49,50
 525 33 525 33 506 21 c 128,-1,51
 487 9 487 9 454 3 c 0,52,53
 412 -5 412 -5 349 -5 c 2,16,-1
EndSplineSet
Substitution2: "'c2sc' Capitals to Small Capitals in Latin lookup 2 subtable" udieresis.smcp
EndChar

StartChar: Yacute
Encoding: 221 221 158
Width: 637
GlyphClass: 2
Flags: W
LayerCount: 2
Fore
SplineSet
290 797 m 1,0,-1
 393 932 l 1,1,-1
 496 932 l 1,2,-1
 366 797 l 1,3,-1
 290 797 l 1,0,-1
364 0 m 1,4,-1
 272 0 l 1,5,-1
 272 251 l 1,6,-1
 42 732 l 1,7,-1
 142 732 l 1,8,-1
 319 357 l 1,9,-1
 514 732 l 1,10,-1
 614 732 l 1,11,-1
 364 251 l 1,12,-1
 364 0 l 1,4,-1
EndSplineSet
Substitution2: "'c2sc' Capitals to Small Capitals in Latin lookup 2 subtable" yacute.smcp
EndChar

StartChar: Thorn
Encoding: 222 222 159
Width: 554
GlyphClass: 2
Flags: W
LayerCount: 2
Fore
SplineSet
56 0 m 1,0,-1
 56 729 l 1,1,-1
 148 729 l 1,2,-1
 148 588 l 1,3,-1
 332 588 l 1,4,5
 508 586 508 586 508 375 c 0,6,7
 508 215 508 215 425 170 c 0,8,9
 386 149 386 149 332 149 c 0,10,11
 326 149 326 149 308.5 148.5 c 128,-1,12
 291 148 291 148 285.5 148.5 c 128,-1,13
 280 149 280 149 264 149.5 c 128,-1,14
 248 150 248 150 235 153 c 1,15,16
 192 159 192 159 148 168 c 1,17,-1
 148 0 l 1,18,-1
 56 0 l 1,0,-1
148 236 m 1,19,-1
 320 236 l 2,20,21
 321 236 321 236 331.5 236 c 128,-1,22
 342 236 342 236 357 241 c 128,-1,23
 372 246 372 246 386 260 c 0,24,25
 415 289 415 289 415 376 c 1,26,27
 413 469 413 469 368 490 c 0,28,29
 348 500 348 500 320 500 c 2,30,-1
 148 500 l 1,31,-1
 148 236 l 1,19,-1
EndSplineSet
Substitution2: "'c2sc' Capitals to Small Capitals in Latin lookup 2 subtable" thorn.smcp
EndChar

StartChar: germandbls
Encoding: 223 223 160
Width: 570
GlyphClass: 2
Flags: W
LayerCount: 2
Fore
SplineSet
225 82 m 1,0,-1
 385 77 l 2,1,2
 414 77 414 77 436.5 94 c 128,-1,3
 459 111 459 111 460 140 c 1,4,-1
 460 181 l 2,5,6
 460 209 460 209 422 222 c 0,7,8
 404 228 404 228 383.5 233.5 c 128,-1,9
 363 239 363 239 342.5 247 c 128,-1,10
 322 255 322 255 305 267 c 0,11,12
 266 292 266 292 266 343.5 c 128,-1,13
 266 395 266 395 287.5 424.5 c 128,-1,14
 309 454 309 454 378 507 c 0,15,16
 426 544 426 544 426 602 c 0,17,18
 426 690 426 690 285 690 c 0,19,20
 223 690 223 690 185.5 657 c 128,-1,21
 148 624 148 624 148 552 c 2,22,-1
 148 0 l 1,23,-1
 56 0 l 1,24,-1
 56 566 l 2,25,26
 56 657 56 657 116.5 717.5 c 128,-1,27
 177 778 177 778 284 778 c 0,28,29
 354 778 354 778 404.5 760 c 128,-1,30
 455 742 455 742 479 712 c 1,31,32
 518 666 518 666 518 607 c 0,33,34
 518 557 518 557 494 515 c 128,-1,35
 470 473 470 473 443 452 c 0,36,37
 433 443 433 443 415 427.5 c 128,-1,38
 397 412 397 412 389.5 405.5 c 128,-1,39
 382 399 382 399 373 389 c 0,40,41
 357 371 357 371 357 351 c 128,-1,42
 357 331 357 331 377 320.5 c 128,-1,43
 397 310 397 310 425.5 302 c 128,-1,44
 454 294 454 294 483 282 c 128,-1,45
 512 270 512 270 532 244 c 128,-1,46
 552 218 552 218 552 178 c 2,47,-1
 552 135 l 2,48,49
 552 95 552 95 537 65.5 c 128,-1,50
 522 36 522 36 497 21 c 0,51,52
 449 -8 449 -8 391 -8 c 0,53,54
 338 -8 338 -8 284.5 1 c 128,-1,55
 231 10 231 10 225 11 c 1,56,-1
 225 82 l 1,0,-1
EndSplineSet
Substitution2: "'smcp' Lowercase to Small Capitals lookup 1 subtable" germandbls.smcp
EndChar

StartChar: agrave
Encoding: 224 224 161
Width: 519
GlyphClass: 2
Flags: W
LayerCount: 2
Fore
SplineSet
99 736 m 1,0,-1
 202 736 l 1,1,-1
 304 601 l 1,2,-1
 229 601 l 1,3,-1
 99 736 l 1,0,-1
54 510 m 1,4,5
 156 541 156 541 312 541 c 0,6,7
 410 541 410 541 450 475 c 0,8,9
 472 438 472 438 472 382 c 2,10,-1
 472 0 l 1,11,-1
 402 0 l 1,12,-1
 380 62 l 1,13,14
 377 59 377 59 347 43.5 c 128,-1,15
 317 28 317 28 266 11 c 128,-1,16
 215 -6 215 -6 176 -6 c 0,17,18
 114 -6 114 -6 75.5 31 c 128,-1,19
 37 68 37 68 37 129 c 2,20,-1
 37 187 l 2,21,22
 37 248 37 248 73.5 285.5 c 128,-1,23
 110 323 110 323 176 323 c 0,24,25
 278 323 278 323 329 323 c 128,-1,26
 380 323 380 323 380 323 c 1,27,28
 381 352 381 352 381 366.5 c 128,-1,29
 381 381 381 381 380.5 390 c 128,-1,30
 380 399 380 399 376.5 412 c 128,-1,31
 373 425 373 425 366.5 434 c 128,-1,32
 360 443 360 443 350 448 c 0,33,34
 332 459 332 459 301 458 c 1,35,36
 219 458 219 458 54 447 c 1,37,-1
 54 510 l 1,4,5
129 138 m 2,38,39
 129 78 129 78 186 78 c 0,40,41
 219 78 219 78 267.5 90.5 c 128,-1,42
 316 103 316 103 348 115 c 2,43,-1
 380 127 l 1,44,-1
 380 257 l 1,45,-1
 184 243 l 1,46,47
 129 238 129 238 129 181 c 2,48,-1
 129 138 l 2,38,39
EndSplineSet
AlternateSubs2: "'salt' Stylistic Alternatives in Latin lookup 16 subtable" agrave.salt
Substitution2: "'smcp' Lowercase to Small Capitals lookup 1 subtable" agrave.smcp
EndChar

StartChar: aacute
Encoding: 225 225 162
Width: 519
GlyphClass: 2
Flags: W
LayerCount: 2
Fore
SplineSet
225 601 m 1,0,-1
 327 736 l 1,1,-1
 430 736 l 1,2,-1
 300 601 l 1,3,-1
 225 601 l 1,0,-1
54 510 m 1,4,5
 156 541 156 541 312 541 c 0,6,7
 410 541 410 541 450 475 c 0,8,9
 472 438 472 438 472 382 c 2,10,-1
 472 0 l 1,11,-1
 402 0 l 1,12,-1
 380 62 l 1,13,14
 377 59 377 59 347 43.5 c 128,-1,15
 317 28 317 28 266 11 c 128,-1,16
 215 -6 215 -6 176 -6 c 0,17,18
 114 -6 114 -6 75.5 31 c 128,-1,19
 37 68 37 68 37 129 c 2,20,-1
 37 187 l 2,21,22
 37 248 37 248 73.5 285.5 c 128,-1,23
 110 323 110 323 176 323 c 0,24,25
 278 323 278 323 329 323 c 128,-1,26
 380 323 380 323 380 323 c 1,27,28
 381 352 381 352 381 366.5 c 128,-1,29
 381 381 381 381 380.5 390 c 128,-1,30
 380 399 380 399 376.5 412 c 128,-1,31
 373 425 373 425 366.5 434 c 128,-1,32
 360 443 360 443 350 448 c 0,33,34
 332 459 332 459 301 458 c 1,35,36
 219 458 219 458 54 447 c 1,37,-1
 54 510 l 1,4,5
129 138 m 2,38,39
 129 78 129 78 186 78 c 0,40,41
 219 78 219 78 267.5 90.5 c 128,-1,42
 316 103 316 103 348 115 c 2,43,-1
 380 127 l 1,44,-1
 380 257 l 1,45,-1
 184 243 l 1,46,47
 129 238 129 238 129 181 c 2,48,-1
 129 138 l 2,38,39
EndSplineSet
AlternateSubs2: "'salt' Stylistic Alternatives in Latin lookup 16 subtable" aacute.salt
Substitution2: "'smcp' Lowercase to Small Capitals lookup 1 subtable" aacute.smcp
EndChar

StartChar: acircumflex
Encoding: 226 226 163
Width: 519
GlyphClass: 2
Flags: W
LayerCount: 2
Fore
SplineSet
116 601 m 1,0,-1
 230 732 l 1,1,-1
 310 732 l 1,2,-1
 412 601 l 1,3,-1
 335 601 l 1,4,-1
 267 669 l 1,5,-1
 194 601 l 1,6,-1
 116 601 l 1,0,-1
54 510 m 1,7,8
 156 541 156 541 312 541 c 0,9,10
 410 541 410 541 450 475 c 0,11,12
 472 438 472 438 472 382 c 2,13,-1
 472 0 l 1,14,-1
 402 0 l 1,15,-1
 380 62 l 1,16,17
 377 59 377 59 347 43.5 c 128,-1,18
 317 28 317 28 266 11 c 128,-1,19
 215 -6 215 -6 176 -6 c 0,20,21
 114 -6 114 -6 75.5 31 c 128,-1,22
 37 68 37 68 37 129 c 2,23,-1
 37 187 l 2,24,25
 37 248 37 248 73.5 285.5 c 128,-1,26
 110 323 110 323 176 323 c 0,27,28
 278 323 278 323 329 323 c 128,-1,29
 380 323 380 323 380 323 c 1,30,31
 381 352 381 352 381 366.5 c 128,-1,32
 381 381 381 381 380.5 390 c 128,-1,33
 380 399 380 399 376.5 412 c 128,-1,34
 373 425 373 425 366.5 434 c 128,-1,35
 360 443 360 443 350 448 c 0,36,37
 332 459 332 459 301 458 c 1,38,39
 219 458 219 458 54 447 c 1,40,-1
 54 510 l 1,7,8
129 138 m 2,41,42
 129 78 129 78 186 78 c 0,43,44
 219 78 219 78 267.5 90.5 c 128,-1,45
 316 103 316 103 348 115 c 2,46,-1
 380 127 l 1,47,-1
 380 257 l 1,48,-1
 184 243 l 1,49,50
 129 238 129 238 129 181 c 2,51,-1
 129 138 l 2,41,42
EndSplineSet
AlternateSubs2: "'salt' Stylistic Alternatives in Latin lookup 16 subtable" acircumflex.salt
Substitution2: "'smcp' Lowercase to Small Capitals lookup 1 subtable" acircumflex.smcp
EndChar

StartChar: atilde
Encoding: 227 227 164
Width: 519
GlyphClass: 2
Flags: W
LayerCount: 2
Fore
SplineSet
317 676 m 0,0,1
 344 676 344 676 407 713 c 1,2,-1
 429 666 l 1,3,4
 427 664 427 664 413.5 652.5 c 128,-1,5
 400 641 400 641 394.5 637 c 128,-1,6
 389 633 389 633 376.5 624 c 128,-1,7
 364 615 364 615 356 612 c 0,8,9
 314 593 314 593 272 612 c 0,10,11
 253 620 253 620 237.5 628 c 128,-1,12
 222 636 222 636 214.5 636 c 128,-1,13
 207 636 207 636 197 636 c 128,-1,14
 187 636 187 636 173 631 c 128,-1,15
 159 626 159 626 140.5 616 c 128,-1,16
 122 606 122 606 112 601 c 1,17,-1
 90 646 l 1,18,19
 146 696 146 696 178 706 c 0,20,21
 217 719 217 719 260 698 c 128,-1,22
 303 677 303 677 309.5 676.5 c 128,-1,23
 316 676 316 676 317 676 c 0,0,1
54 510 m 1,24,25
 156 541 156 541 312 541 c 0,26,27
 410 541 410 541 450 475 c 0,28,29
 472 438 472 438 472 382 c 2,30,-1
 472 0 l 1,31,-1
 402 0 l 1,32,-1
 380 62 l 1,33,34
 377 59 377 59 347 43.5 c 128,-1,35
 317 28 317 28 266 11 c 128,-1,36
 215 -6 215 -6 176 -6 c 0,37,38
 114 -6 114 -6 75.5 31 c 128,-1,39
 37 68 37 68 37 129 c 2,40,-1
 37 187 l 2,41,42
 37 248 37 248 73.5 285.5 c 128,-1,43
 110 323 110 323 176 323 c 0,44,45
 278 323 278 323 329 323 c 128,-1,46
 380 323 380 323 380 323 c 1,47,48
 381 352 381 352 381 366.5 c 128,-1,49
 381 381 381 381 380.5 390 c 128,-1,50
 380 399 380 399 376.5 412 c 128,-1,51
 373 425 373 425 366.5 434 c 128,-1,52
 360 443 360 443 350 448 c 0,53,54
 332 459 332 459 301 458 c 1,55,56
 219 458 219 458 54 447 c 1,57,-1
 54 510 l 1,24,25
129 138 m 2,58,59
 129 78 129 78 186 78 c 0,60,61
 219 78 219 78 267.5 90.5 c 128,-1,62
 316 103 316 103 348 115 c 2,63,-1
 380 127 l 1,64,-1
 380 257 l 1,65,-1
 184 243 l 1,66,67
 129 238 129 238 129 181 c 2,68,-1
 129 138 l 2,58,59
EndSplineSet
AlternateSubs2: "'salt' Stylistic Alternatives in Latin lookup 16 subtable" atilde.salt
Substitution2: "'smcp' Lowercase to Small Capitals lookup 1 subtable" atilde.smcp
EndChar

StartChar: adieresis
Encoding: 228 228 165
Width: 519
GlyphClass: 2
Flags: W
LayerCount: 2
Fore
SplineSet
82 654 m 128,-1,1
 82 676 82 676 97.5 691.5 c 128,-1,2
 113 707 113 707 135 707 c 128,-1,3
 157 707 157 707 172.5 691.5 c 128,-1,4
 188 676 188 676 188 654 c 128,-1,5
 188 632 188 632 172.5 616.5 c 128,-1,6
 157 601 157 601 135 601 c 128,-1,7
 113 601 113 601 97.5 616.5 c 128,-1,0
 82 632 82 632 82 654 c 128,-1,1
337 654 m 128,-1,9
 337 676 337 676 352.5 691.5 c 128,-1,10
 368 707 368 707 390 707 c 128,-1,11
 412 707 412 707 427.5 691.5 c 128,-1,12
 443 676 443 676 443 654 c 128,-1,13
 443 632 443 632 427.5 616.5 c 128,-1,14
 412 601 412 601 390 601 c 128,-1,15
 368 601 368 601 352.5 616.5 c 128,-1,8
 337 632 337 632 337 654 c 128,-1,9
54 510 m 1,16,17
 156 541 156 541 312 541 c 0,18,19
 410 541 410 541 450 475 c 0,20,21
 472 438 472 438 472 382 c 2,22,-1
 472 0 l 1,23,-1
 402 0 l 1,24,-1
 380 62 l 1,25,26
 377 59 377 59 347 43.5 c 128,-1,27
 317 28 317 28 266 11 c 128,-1,28
 215 -6 215 -6 176 -6 c 0,29,30
 114 -6 114 -6 75.5 31 c 128,-1,31
 37 68 37 68 37 129 c 2,32,-1
 37 187 l 2,33,34
 37 248 37 248 73.5 285.5 c 128,-1,35
 110 323 110 323 176 323 c 0,36,37
 278 323 278 323 329 323 c 128,-1,38
 380 323 380 323 380 323 c 1,39,40
 381 352 381 352 381 366.5 c 128,-1,41
 381 381 381 381 380.5 390 c 128,-1,42
 380 399 380 399 376.5 412 c 128,-1,43
 373 425 373 425 366.5 434 c 128,-1,44
 360 443 360 443 350 448 c 0,45,46
 332 459 332 459 301 458 c 1,47,48
 219 458 219 458 54 447 c 1,49,-1
 54 510 l 1,16,17
129 138 m 2,50,51
 129 78 129 78 186 78 c 0,52,53
 219 78 219 78 267.5 90.5 c 128,-1,54
 316 103 316 103 348 115 c 2,55,-1
 380 127 l 1,56,-1
 380 257 l 1,57,-1
 184 243 l 1,58,59
 129 238 129 238 129 181 c 2,60,-1
 129 138 l 2,50,51
EndSplineSet
AlternateSubs2: "'salt' Stylistic Alternatives in Latin lookup 16 subtable" adieresis.salt
Substitution2: "'smcp' Lowercase to Small Capitals lookup 1 subtable" adieresis.smcp
EndChar

StartChar: aring
Encoding: 229 229 166
Width: 519
GlyphClass: 2
Flags: W
LayerCount: 2
Fore
SplineSet
192 605.5 m 128,-1,1
 162 635 162 635 162 670.5 c 128,-1,2
 162 706 162 706 176 729.5 c 128,-1,3
 190 753 190 753 213.5 766.5 c 128,-1,4
 237 780 237 780 264.5 780 c 128,-1,5
 292 780 292 780 315 766.5 c 128,-1,6
 338 753 338 753 351.5 729.5 c 128,-1,7
 365 706 365 706 365 677.5 c 128,-1,8
 365 649 365 649 351.5 626 c 128,-1,9
 338 603 338 603 315 589.5 c 128,-1,10
 292 576 292 576 257 576 c 128,-1,0
 222 576 222 576 192 605.5 c 128,-1,1
212 677.5 m 128,-1,12
 212 656 212 656 227.5 641.5 c 128,-1,13
 243 627 243 627 264 627 c 128,-1,14
 285 627 285 627 300 641.5 c 128,-1,15
 315 656 315 656 315 677.5 c 128,-1,16
 315 699 315 699 300 714 c 128,-1,17
 285 729 285 729 264 729 c 128,-1,18
 243 729 243 729 227.5 714 c 128,-1,11
 212 699 212 699 212 677.5 c 128,-1,12
54 510 m 1,19,20
 156 541 156 541 312 541 c 0,21,22
 410 541 410 541 450 475 c 0,23,24
 472 438 472 438 472 382 c 2,25,-1
 472 0 l 1,26,-1
 402 0 l 1,27,-1
 380 62 l 1,28,29
 377 59 377 59 347 43.5 c 128,-1,30
 317 28 317 28 266 11 c 128,-1,31
 215 -6 215 -6 176 -6 c 0,32,33
 114 -6 114 -6 75.5 31 c 128,-1,34
 37 68 37 68 37 129 c 2,35,-1
 37 187 l 2,36,37
 37 248 37 248 73.5 285.5 c 128,-1,38
 110 323 110 323 176 323 c 0,39,40
 278 323 278 323 329 323 c 128,-1,41
 380 323 380 323 380 323 c 1,42,43
 381 352 381 352 381 366.5 c 128,-1,44
 381 381 381 381 380.5 390 c 128,-1,45
 380 399 380 399 376.5 412 c 128,-1,46
 373 425 373 425 366.5 434 c 128,-1,47
 360 443 360 443 350 448 c 0,48,49
 332 459 332 459 301 458 c 1,50,51
 219 458 219 458 54 447 c 1,52,-1
 54 510 l 1,19,20
129 138 m 2,53,54
 129 78 129 78 186 78 c 0,55,56
 219 78 219 78 267.5 90.5 c 128,-1,57
 316 103 316 103 348 115 c 2,58,-1
 380 127 l 1,59,-1
 380 257 l 1,60,-1
 184 243 l 1,61,62
 129 238 129 238 129 181 c 2,63,-1
 129 138 l 2,53,54
EndSplineSet
AlternateSubs2: "'salt' Stylistic Alternatives in Latin lookup 16 subtable" aring.salt
Substitution2: "'smcp' Lowercase to Small Capitals lookup 1 subtable" aring.smcp
EndChar

StartChar: ae
Encoding: 230 230 167
Width: 863
GlyphClass: 2
Flags: W
LayerCount: 2
Fore
SplineSet
54 515 m 1,0,1
 143 546 143 546 312 546 c 0,2,3
 399 546 399 546 439 492 c 1,4,5
 474 529 474 529 542 537 c 0,6,7
 572 540 572 540 613 540 c 128,-1,8
 654 540 654 540 678.5 538 c 128,-1,9
 703 536 703 536 729.5 530 c 128,-1,10
 756 524 756 524 771.5 511.5 c 128,-1,11
 787 499 787 499 801 478 c 0,12,13
 826 440 826 440 826 352 c 0,14,15
 826 229 826 229 686 229 c 2,16,-1
 477 229 l 1,17,18
 477 143 477 143 499.5 113.5 c 128,-1,19
 522 84 522 84 581 84 c 0,20,21
 747 84 747 84 816 95 c 1,22,-1
 816 28 l 1,23,24
 725 0 725 0 560 0 c 0,25,26
 502 0 502 0 470 17 c 128,-1,27
 438 34 438 34 408 70 c 1,28,29
 405 66 405 66 367 49 c 128,-1,30
 329 32 329 32 272 15.5 c 128,-1,31
 215 -1 215 -1 176 -1 c 0,32,33
 114 -1 114 -1 75.5 36.5 c 128,-1,34
 37 74 37 74 37 134 c 2,35,-1
 37 172 l 2,36,37
 37 233 37 233 72 270 c 0,38,39
 109 309 109 309 176 309 c 0,40,41
 278 308 278 308 329 308 c 128,-1,42
 380 308 380 308 380 309 c 0,43,44
 381 347 381 347 381 366.5 c 128,-1,45
 381 386 381 386 380.5 395 c 128,-1,46
 380 404 380 404 376.5 417 c 128,-1,47
 373 430 373 430 366.5 439 c 128,-1,48
 360 448 360 448 350 454 c 0,49,50
 332 464 332 464 301 464 c 0,51,52
 226 464 226 464 54 452 c 1,53,-1
 54 515 l 1,0,1
129 142 m 2,54,55
 129 109 129 109 144 96.5 c 128,-1,56
 159 84 159 84 189 84 c 128,-1,57
 219 84 219 84 267.5 96 c 128,-1,58
 316 108 316 108 348 120 c 2,59,-1
 380 132 l 1,60,-1
 380 248 l 1,61,-1
 184 234 l 1,62,63
 129 229 129 229 129 172 c 2,64,-1
 129 142 l 2,54,55
734 354 m 0,65,66
 734 391 734 391 730.5 410.5 c 128,-1,67
 727 430 727 430 713 441 c 128,-1,68
 699 452 699 452 679.5 454.5 c 128,-1,69
 660 457 660 457 630 457 c 128,-1,70
 600 457 600 457 590.5 457 c 128,-1,71
 581 457 581 457 565.5 456 c 128,-1,72
 550 455 550 455 543.5 453 c 128,-1,73
 537 451 537 451 525.5 447.5 c 128,-1,74
 514 444 514 444 509.5 438.5 c 128,-1,75
 505 433 505 433 498 425 c 128,-1,76
 491 417 491 417 488 406 c 128,-1,77
 485 395 485 395 482 381 c 0,78,79
 477 358 477 358 477 308 c 1,80,-1
 676 308 l 2,81,82
 734 308 734 308 734 354 c 0,65,66
EndSplineSet
Substitution2: "'smcp' Lowercase to Small Capitals lookup 1 subtable" ae.smcp
EndChar

StartChar: ccedilla
Encoding: 231 231 168
Width: 498
GlyphClass: 2
Flags: W
LayerCount: 2
Fore
SplineSet
56 150 m 128,-1,1
 47 199 47 199 47 260.5 c 128,-1,2
 47 322 47 322 52.5 365.5 c 128,-1,3
 58 409 58 409 69.5 438 c 128,-1,4
 81 467 81 467 96 487 c 128,-1,5
 111 507 111 507 131 518 c 0,6,7
 169 538 169 538 222 538 c 0,8,9
 327 538 327 538 454 508 c 1,10,-1
 454 446 l 1,11,12
 327 453 327 453 272 453 c 128,-1,13
 217 453 217 453 204 450.5 c 128,-1,14
 191 448 191 448 177 437.5 c 128,-1,15
 163 427 163 427 156 407 c 0,16,17
 139 361 139 361 139 274.5 c 128,-1,18
 139 188 139 188 149 148 c 128,-1,19
 159 108 159 108 179.5 93 c 128,-1,20
 200 78 200 78 240 78 c 0,21,22
 320 78 320 78 426 86 c 1,23,-1
 461 88 l 1,24,-1
 461 24 l 1,25,26
 391 0 391 0 305 -5 c 0,27,28
 201 -10 201 -10 171 -2 c 128,-1,29
 141 6 141 6 117.5 23.5 c 128,-1,30
 94 41 94 41 79.5 71 c 128,-1,0
 65 101 65 101 56 150 c 128,-1,1
252 -37 m 1,31,-1
 327 -37 l 1,32,33
 327 -115 327 -115 305 -145 c 128,-1,34
 283 -175 283 -175 223 -175 c 2,35,-1
 170 -175 l 1,36,-1
 170 -131 l 1,37,-1
 221 -116 l 1,38,39
 240 -108 240 -108 246 -89 c 128,-1,40
 252 -70 252 -70 252 -37 c 1,31,-1
EndSplineSet
Substitution2: "'smcp' Lowercase to Small Capitals lookup 1 subtable" ccedilla.smcp
EndChar

StartChar: egrave
Encoding: 232 232 169
Width: 525
GlyphClass: 2
Flags: W
LayerCount: 2
Fore
SplineSet
112 730 m 1,0,-1
 215 730 l 1,1,-1
 317 596 l 1,2,-1
 242 596 l 1,3,-1
 112 730 l 1,0,-1
70 441 m 0,4,5
 83 471 83 471 100 489.5 c 128,-1,6
 117 508 117 508 145 518 c 0,7,8
 193 535 193 535 279 535 c 0,9,10
 381 535 381 535 417 516 c 0,11,12
 456 495 456 495 470 460 c 0,13,14
 488 416 488 416 488 346 c 0,15,16
 488 220 488 220 348 220 c 2,17,-1
 139 220 l 1,18,19
 139 135 139 135 161 107 c 128,-1,20
 183 79 183 79 243 79 c 0,21,22
 408 79 408 79 478 90 c 1,23,-1
 478 23 l 1,24,25
 386 -5 386 -5 222 -5 c 0,26,27
 121 -5 121 -5 84 54 c 128,-1,28
 47 113 47 113 47 250 c 128,-1,29
 47 387 47 387 70 441 c 0,4,5
338 301 m 2,30,31
 396 301 396 301 396 347 c 0,32,33
 396 385 396 385 392 404 c 128,-1,34
 388 423 388 423 374.5 434.5 c 128,-1,35
 361 446 361 446 341 449 c 128,-1,36
 321 452 321 452 291 452 c 128,-1,37
 261 452 261 452 249.5 451.5 c 128,-1,38
 238 451 238 451 222.5 450 c 128,-1,39
 207 449 207 449 199 446 c 128,-1,40
 191 443 191 443 180 438 c 128,-1,41
 169 433 169 433 164 425 c 128,-1,42
 159 417 159 417 153 406 c 128,-1,43
 147 395 147 395 145 380 c 0,44,45
 139 343 139 343 139 301 c 1,46,-1
 338 301 l 2,30,31
EndSplineSet
Substitution2: "'smcp' Lowercase to Small Capitals lookup 1 subtable" egrave.smcp
EndChar

StartChar: eacute
Encoding: 233 233 170
Width: 525
GlyphClass: 2
Flags: W
LayerCount: 2
Fore
SplineSet
234 596 m 1,0,-1
 336 730 l 1,1,-1
 439 730 l 1,2,-1
 309 596 l 1,3,-1
 234 596 l 1,0,-1
70 441 m 0,4,5
 83 471 83 471 100 489.5 c 128,-1,6
 117 508 117 508 145 518 c 0,7,8
 193 535 193 535 279 535 c 0,9,10
 381 535 381 535 417 516 c 0,11,12
 456 495 456 495 470 460 c 0,13,14
 488 416 488 416 488 346 c 0,15,16
 488 220 488 220 348 220 c 2,17,-1
 139 220 l 1,18,19
 139 135 139 135 161 107 c 128,-1,20
 183 79 183 79 243 79 c 0,21,22
 408 79 408 79 478 90 c 1,23,-1
 478 23 l 1,24,25
 386 -5 386 -5 222 -5 c 0,26,27
 121 -5 121 -5 84 54 c 128,-1,28
 47 113 47 113 47 250 c 128,-1,29
 47 387 47 387 70 441 c 0,4,5
338 301 m 2,30,31
 396 301 396 301 396 347 c 0,32,33
 396 385 396 385 392 404 c 128,-1,34
 388 423 388 423 374.5 434.5 c 128,-1,35
 361 446 361 446 341 449 c 128,-1,36
 321 452 321 452 291 452 c 128,-1,37
 261 452 261 452 249.5 451.5 c 128,-1,38
 238 451 238 451 222.5 450 c 128,-1,39
 207 449 207 449 199 446 c 128,-1,40
 191 443 191 443 180 438 c 128,-1,41
 169 433 169 433 164 425 c 128,-1,42
 159 417 159 417 153 406 c 128,-1,43
 147 395 147 395 145 380 c 0,44,45
 139 343 139 343 139 301 c 1,46,-1
 338 301 l 2,30,31
EndSplineSet
Substitution2: "'smcp' Lowercase to Small Capitals lookup 1 subtable" eacute.smcp
EndChar

StartChar: ecircumflex
Encoding: 234 234 171
Width: 525
GlyphClass: 2
Flags: W
LayerCount: 2
Fore
SplineSet
124 596 m 1,0,-1
 238 728 l 1,1,-1
 318 728 l 1,2,-1
 420 596 l 1,3,-1
 343 596 l 1,4,-1
 275 664 l 1,5,-1
 202 596 l 1,6,-1
 124 596 l 1,0,-1
70 441 m 0,7,8
 83 471 83 471 100 489.5 c 128,-1,9
 117 508 117 508 145 518 c 0,10,11
 193 535 193 535 279 535 c 0,12,13
 381 535 381 535 417 516 c 0,14,15
 456 495 456 495 470 460 c 0,16,17
 488 416 488 416 488 346 c 0,18,19
 488 220 488 220 348 220 c 2,20,-1
 139 220 l 1,21,22
 139 135 139 135 161 107 c 128,-1,23
 183 79 183 79 243 79 c 0,24,25
 408 79 408 79 478 90 c 1,26,-1
 478 23 l 1,27,28
 386 -5 386 -5 222 -5 c 0,29,30
 121 -5 121 -5 84 54 c 128,-1,31
 47 113 47 113 47 250 c 128,-1,32
 47 387 47 387 70 441 c 0,7,8
338 301 m 2,33,34
 396 301 396 301 396 347 c 0,35,36
 396 385 396 385 392 404 c 128,-1,37
 388 423 388 423 374.5 434.5 c 128,-1,38
 361 446 361 446 341 449 c 128,-1,39
 321 452 321 452 291 452 c 128,-1,40
 261 452 261 452 249.5 451.5 c 128,-1,41
 238 451 238 451 222.5 450 c 128,-1,42
 207 449 207 449 199 446 c 128,-1,43
 191 443 191 443 180 438 c 128,-1,44
 169 433 169 433 164 425 c 128,-1,45
 159 417 159 417 153 406 c 128,-1,46
 147 395 147 395 145 380 c 0,47,48
 139 343 139 343 139 301 c 1,49,-1
 338 301 l 2,33,34
EndSplineSet
Substitution2: "'smcp' Lowercase to Small Capitals lookup 1 subtable" ecircumflex.smcp
EndChar

StartChar: edieresis
Encoding: 235 235 172
Width: 525
GlyphClass: 2
Flags: W
LayerCount: 2
Fore
SplineSet
89 649 m 128,-1,1
 89 671 89 671 104.5 686.5 c 128,-1,2
 120 702 120 702 142 702 c 128,-1,3
 164 702 164 702 179.5 686.5 c 128,-1,4
 195 671 195 671 195 649 c 128,-1,5
 195 627 195 627 179.5 611.5 c 128,-1,6
 164 596 164 596 142 596 c 128,-1,7
 120 596 120 596 104.5 611.5 c 128,-1,0
 89 627 89 627 89 649 c 128,-1,1
344 649 m 128,-1,9
 344 671 344 671 359.5 686.5 c 128,-1,10
 375 702 375 702 397 702 c 128,-1,11
 419 702 419 702 434.5 686.5 c 128,-1,12
 450 671 450 671 450 649 c 128,-1,13
 450 627 450 627 434.5 611.5 c 128,-1,14
 419 596 419 596 397 596 c 128,-1,15
 375 596 375 596 359.5 611.5 c 128,-1,8
 344 627 344 627 344 649 c 128,-1,9
70 441 m 0,16,17
 83 471 83 471 100 489.5 c 128,-1,18
 117 508 117 508 145 518 c 0,19,20
 193 535 193 535 279 535 c 0,21,22
 381 535 381 535 417 516 c 0,23,24
 456 495 456 495 470 460 c 0,25,26
 488 416 488 416 488 346 c 0,27,28
 488 220 488 220 348 220 c 2,29,-1
 139 220 l 1,30,31
 139 135 139 135 161 107 c 128,-1,32
 183 79 183 79 243 79 c 0,33,34
 408 79 408 79 478 90 c 1,35,-1
 478 23 l 1,36,37
 386 -5 386 -5 222 -5 c 0,38,39
 121 -5 121 -5 84 54 c 128,-1,40
 47 113 47 113 47 250 c 128,-1,41
 47 387 47 387 70 441 c 0,16,17
338 301 m 2,42,43
 396 301 396 301 396 347 c 0,44,45
 396 385 396 385 392 404 c 128,-1,46
 388 423 388 423 374.5 434.5 c 128,-1,47
 361 446 361 446 341 449 c 128,-1,48
 321 452 321 452 291 452 c 128,-1,49
 261 452 261 452 249.5 451.5 c 128,-1,50
 238 451 238 451 222.5 450 c 128,-1,51
 207 449 207 449 199 446 c 128,-1,52
 191 443 191 443 180 438 c 128,-1,53
 169 433 169 433 164 425 c 128,-1,54
 159 417 159 417 153 406 c 128,-1,55
 147 395 147 395 145 380 c 0,56,57
 139 343 139 343 139 301 c 1,58,-1
 338 301 l 2,42,43
EndSplineSet
Substitution2: "'smcp' Lowercase to Small Capitals lookup 1 subtable" edieresis.smcp
EndChar

StartChar: igrave
Encoding: 236 236 173
Width: 204
GlyphClass: 2
Flags: W
LayerCount: 2
Fore
SplineSet
-65 730 m 1,0,-1
 37 730 l 1,1,-1
 140 596 l 1,2,-1
 65 596 l 1,3,-1
 -65 730 l 1,0,-1
56 0 m 1,4,-1
 56 531 l 1,5,-1
 148 531 l 1,6,-1
 148 0 l 1,7,-1
 56 0 l 1,4,-1
EndSplineSet
Substitution2: "'smcp' Lowercase to Small Capitals lookup 1 subtable" igrave.smcp
EndChar

StartChar: iacute
Encoding: 237 237 174
Width: 204
GlyphClass: 2
Flags: W
LayerCount: 2
Fore
SplineSet
65 596 m 1,0,-1
 167 730 l 1,1,-1
 270 730 l 1,2,-1
 140 596 l 1,3,-1
 65 596 l 1,0,-1
56 0 m 1,4,-1
 56 531 l 1,5,-1
 148 531 l 1,6,-1
 148 0 l 1,7,-1
 56 0 l 1,4,-1
EndSplineSet
Substitution2: "'smcp' Lowercase to Small Capitals lookup 1 subtable" iacute.smcp
EndChar

StartChar: icircumflex
Encoding: 238 238 175
Width: 204
GlyphClass: 2
Flags: W
LayerCount: 2
Fore
SplineSet
-46 596 m 1,0,-1
 68 728 l 1,1,-1
 148 728 l 1,2,-1
 250 596 l 1,3,-1
 173 596 l 1,4,-1
 106 664 l 1,5,-1
 32 596 l 1,6,-1
 -46 596 l 1,0,-1
56 0 m 1,7,-1
 56 531 l 1,8,-1
 148 531 l 1,9,-1
 148 0 l 1,10,-1
 56 0 l 1,7,-1
EndSplineSet
Substitution2: "'smcp' Lowercase to Small Capitals lookup 1 subtable" icircumflex.smcp
EndChar

StartChar: idieresis
Encoding: 239 239 176
Width: 204
GlyphClass: 2
Flags: W
LayerCount: 2
Fore
SplineSet
-78 649 m 128,-1,1
 -78 671 -78 671 -62.5 686.5 c 128,-1,2
 -47 702 -47 702 -25 702 c 128,-1,3
 -3 702 -3 702 12 686.5 c 128,-1,4
 27 671 27 671 27 649 c 128,-1,5
 27 627 27 627 12 611.5 c 128,-1,6
 -3 596 -3 596 -25 596 c 128,-1,7
 -47 596 -47 596 -62.5 611.5 c 128,-1,0
 -78 627 -78 627 -78 649 c 128,-1,1
192.5 611.5 m 128,-1,9
 177 627 177 627 177 643.5 c 128,-1,10
 177 660 177 660 181 669.5 c 128,-1,11
 185 679 185 679 192 686 c 0,12,13
 208 702 208 702 230 702 c 128,-1,14
 252 702 252 702 267 686.5 c 128,-1,15
 282 671 282 671 282 649 c 128,-1,16
 282 627 282 627 267 611.5 c 128,-1,17
 252 596 252 596 230 596 c 128,-1,8
 208 596 208 596 192.5 611.5 c 128,-1,9
56 0 m 1,18,-1
 56 531 l 1,19,-1
 148 531 l 1,20,-1
 148 0 l 1,21,-1
 56 0 l 1,18,-1
EndSplineSet
Substitution2: "'smcp' Lowercase to Small Capitals lookup 1 subtable" idieresis.smcp
EndChar

StartChar: eth
Encoding: 240 240 177
Width: 538
GlyphClass: 2
Flags: W
LayerCount: 2
Fore
SplineSet
77.5 62.5 m 128,-1,1
 37 125 37 125 37 261 c 128,-1,2
 37 397 37 397 78.5 464 c 128,-1,3
 120 531 120 531 218 531 c 2,4,-1
 306 531 l 2,5,6
 362 531 362 531 377 518 c 1,7,8
 354 595 354 595 308 640 c 1,9,-1
 171 583 l 1,10,-1
 146 642 l 1,11,-1
 245 684 l 1,12,13
 201 705 201 705 136 705 c 0,14,15
 126 705 126 705 116 704 c 1,16,-1
 116 783 l 1,17,18
 258 783 258 783 338 724 c 1,19,-1
 449 770 l 1,20,-1
 475 710 l 1,21,-1
 391 676 l 1,22,23
 501 542 501 542 501 264 c 0,24,25
 501 123 501 123 453.5 61.5 c 128,-1,26
 406 0 406 0 319 0 c 2,27,-1
 218 0 l 2,28,0
 118 0 118 0 77.5 62.5 c 128,-1,1
133.5 340.5 m 128,-1,30
 129 309 129 309 129 262.5 c 128,-1,31
 129 216 129 216 134 183.5 c 128,-1,32
 139 151 139 151 146.5 133 c 128,-1,33
 154 115 154 115 167 105.5 c 128,-1,34
 180 96 180 96 192 93.5 c 128,-1,35
 204 91 204 91 224 91 c 2,36,-1
 313 91 l 2,37,38
 369 91 369 91 389 132.5 c 128,-1,39
 409 174 409 174 409 272 c 128,-1,40
 409 370 409 370 390 406 c 128,-1,41
 371 442 371 442 313 442 c 2,42,-1
 224 442 l 2,43,44
 185 442 185 442 168.5 427 c 128,-1,45
 152 412 152 412 145 392 c 128,-1,29
 138 372 138 372 133.5 340.5 c 128,-1,30
EndSplineSet
Substitution2: "'smcp' Lowercase to Small Capitals lookup 1 subtable" eth.smcp
EndChar

StartChar: ntilde
Encoding: 241 241 178
Width: 545
GlyphClass: 2
Flags: W
LayerCount: 2
Fore
SplineSet
335 675 m 0,0,1
 362 675 362 675 425 712 c 1,2,-1
 447 665 l 1,3,4
 445 663 445 663 431.5 651.5 c 128,-1,5
 418 640 418 640 413 636 c 128,-1,6
 408 632 408 632 395.5 623 c 128,-1,7
 383 614 383 614 374 611 c 1,8,9
 328 590 328 590 273 619 c 0,10,11
 242 635 242 635 225 635 c 0,12,13
 194 635 194 635 167.5 620 c 128,-1,14
 141 605 141 605 130 600 c 1,15,-1
 108 645 l 1,16,17
 165 695 165 695 196 705 c 0,18,19
 235 718 235 718 278 697 c 128,-1,20
 321 676 321 676 327.5 675.5 c 128,-1,21
 334 675 334 675 335 675 c 0,0,1
56 0 m 1,22,-1
 56 531 l 1,23,-1
 125 531 l 1,24,-1
 148 470 l 1,25,26
 152 473 152 473 169.5 483.5 c 128,-1,27
 187 494 187 494 201 502 c 128,-1,28
 215 510 215 510 239 520 c 0,29,30
 283 540 283 540 337 540 c 0,31,32
 415 540 415 540 457 489.5 c 128,-1,33
 499 439 499 439 499 366 c 2,34,-1
 499 0 l 1,35,-1
 407 0 l 1,36,-1
 407 366 l 2,37,38
 407 411 407 411 385 433.5 c 128,-1,39
 363 456 363 456 319 456 c 128,-1,40
 275 456 275 456 241 444 c 128,-1,41
 207 432 207 432 148 402 c 1,42,-1
 148 0 l 1,43,-1
 56 0 l 1,22,-1
EndSplineSet
AlternateSubs2: "'salt' Stylistic Alternatives in Latin lookup 16 subtable" ntilde.salt
Substitution2: "'smcp' Lowercase to Small Capitals lookup 1 subtable" ntilde.smcp
EndChar

StartChar: ograve
Encoding: 242 242 179
Width: 565
GlyphClass: 2
Flags: W
LayerCount: 2
Fore
SplineSet
124 730 m 1,0,-1
 226 730 l 1,1,-1
 329 596 l 1,2,-1
 254 596 l 1,3,-1
 124 730 l 1,0,-1
47 258 m 0,4,5
 47 367 47 367 70 427 c 128,-1,6
 93 487 93 487 143 511.5 c 128,-1,7
 193 536 193 536 283 536 c 0,8,9
 418 536 418 536 468.5 476 c 128,-1,10
 519 416 519 416 519 262.5 c 128,-1,11
 519 109 519 109 468.5 52 c 128,-1,12
 418 -5 418 -5 284 -5 c 128,-1,13
 150 -5 150 -5 98.5 54 c 128,-1,14
 47 113 47 113 47 258 c 0,4,5
142 334.5 m 128,-1,16
 139 303 139 303 139 260 c 128,-1,17
 139 217 139 217 142.5 187 c 128,-1,18
 146 157 146 157 155 137.5 c 128,-1,19
 164 118 164 118 174.5 106.5 c 128,-1,20
 185 95 185 95 204 89 c 0,21,22
 233 79 233 79 275 79.5 c 128,-1,23
 317 80 317 80 337 82.5 c 128,-1,24
 357 85 357 85 376.5 94.5 c 128,-1,25
 396 104 396 104 406 124 c 0,26,27
 427 167 427 167 427 258 c 0,28,29
 427 350 427 350 416 379.5 c 128,-1,30
 405 409 405 409 395.5 421.5 c 128,-1,31
 386 434 386 434 368 441 c 0,32,33
 340 452 340 452 297 452 c 128,-1,34
 254 452 254 452 236 450 c 128,-1,35
 218 448 218 448 199.5 441.5 c 128,-1,36
 181 435 181 435 171.5 422.5 c 128,-1,37
 162 410 162 410 153.5 388 c 128,-1,15
 145 366 145 366 142 334.5 c 128,-1,16
EndSplineSet
Substitution2: "'smcp' Lowercase to Small Capitals lookup 1 subtable" ograve.smcp
EndChar

StartChar: oacute
Encoding: 243 243 180
Width: 565
GlyphClass: 2
Flags: W
LayerCount: 2
Fore
SplineSet
245 596 m 1,0,-1
 348 730 l 1,1,-1
 450 730 l 1,2,-1
 320 596 l 1,3,-1
 245 596 l 1,0,-1
47 258 m 0,4,5
 47 367 47 367 70 427 c 128,-1,6
 93 487 93 487 143 511.5 c 128,-1,7
 193 536 193 536 283 536 c 0,8,9
 418 536 418 536 468.5 476 c 128,-1,10
 519 416 519 416 519 262.5 c 128,-1,11
 519 109 519 109 468.5 52 c 128,-1,12
 418 -5 418 -5 284 -5 c 128,-1,13
 150 -5 150 -5 98.5 54 c 128,-1,14
 47 113 47 113 47 258 c 0,4,5
142 334.5 m 128,-1,16
 139 303 139 303 139 260 c 128,-1,17
 139 217 139 217 142.5 187 c 128,-1,18
 146 157 146 157 155 137.5 c 128,-1,19
 164 118 164 118 174.5 106.5 c 128,-1,20
 185 95 185 95 204 89 c 0,21,22
 233 79 233 79 275 79.5 c 128,-1,23
 317 80 317 80 337 82.5 c 128,-1,24
 357 85 357 85 376.5 94.5 c 128,-1,25
 396 104 396 104 406 124 c 0,26,27
 427 167 427 167 427 258 c 0,28,29
 427 350 427 350 416 379.5 c 128,-1,30
 405 409 405 409 395.5 421.5 c 128,-1,31
 386 434 386 434 368 441 c 0,32,33
 340 452 340 452 297 452 c 128,-1,34
 254 452 254 452 236 450 c 128,-1,35
 218 448 218 448 199.5 441.5 c 128,-1,36
 181 435 181 435 171.5 422.5 c 128,-1,37
 162 410 162 410 153.5 388 c 128,-1,15
 145 366 145 366 142 334.5 c 128,-1,16
EndSplineSet
Substitution2: "'smcp' Lowercase to Small Capitals lookup 1 subtable" oacute.smcp
EndChar

StartChar: ocircumflex
Encoding: 244 244 181
Width: 565
GlyphClass: 2
Flags: W
LayerCount: 2
Fore
SplineSet
139 596 m 1,0,-1
 253 728 l 1,1,-1
 333 728 l 1,2,-1
 435 596 l 1,3,-1
 358 596 l 1,4,-1
 291 664 l 1,5,-1
 217 596 l 1,6,-1
 139 596 l 1,0,-1
47 258 m 0,7,8
 47 367 47 367 70 427 c 128,-1,9
 93 487 93 487 143 511.5 c 128,-1,10
 193 536 193 536 283 536 c 0,11,12
 418 536 418 536 468.5 476 c 128,-1,13
 519 416 519 416 519 262.5 c 128,-1,14
 519 109 519 109 468.5 52 c 128,-1,15
 418 -5 418 -5 284 -5 c 128,-1,16
 150 -5 150 -5 98.5 54 c 128,-1,17
 47 113 47 113 47 258 c 0,7,8
142 334.5 m 128,-1,19
 139 303 139 303 139 260 c 128,-1,20
 139 217 139 217 142.5 187 c 128,-1,21
 146 157 146 157 155 137.5 c 128,-1,22
 164 118 164 118 174.5 106.5 c 128,-1,23
 185 95 185 95 204 89 c 0,24,25
 233 79 233 79 275 79.5 c 128,-1,26
 317 80 317 80 337 82.5 c 128,-1,27
 357 85 357 85 376.5 94.5 c 128,-1,28
 396 104 396 104 406 124 c 0,29,30
 427 167 427 167 427 258 c 0,31,32
 427 350 427 350 416 379.5 c 128,-1,33
 405 409 405 409 395.5 421.5 c 128,-1,34
 386 434 386 434 368 441 c 0,35,36
 340 452 340 452 297 452 c 128,-1,37
 254 452 254 452 236 450 c 128,-1,38
 218 448 218 448 199.5 441.5 c 128,-1,39
 181 435 181 435 171.5 422.5 c 128,-1,40
 162 410 162 410 153.5 388 c 128,-1,18
 145 366 145 366 142 334.5 c 128,-1,19
EndSplineSet
Substitution2: "'smcp' Lowercase to Small Capitals lookup 1 subtable" ocircumflex.smcp
EndChar

StartChar: otilde
Encoding: 245 245 182
Width: 565
GlyphClass: 2
Flags: W
LayerCount: 2
Fore
SplineSet
348 671 m 0,0,1
 375 671 375 671 438 708 c 1,2,-1
 460 661 l 1,3,4
 458 659 458 659 444.5 647.5 c 128,-1,5
 431 636 431 636 426 632 c 128,-1,6
 421 628 421 628 408.5 619 c 128,-1,7
 396 610 396 610 387 607 c 1,8,9
 341 586 341 586 286 615 c 0,10,11
 255 631 255 631 238 631 c 0,12,13
 207 631 207 631 180.5 616 c 128,-1,14
 154 601 154 601 143 596 c 1,15,-1
 121 641 l 1,16,17
 145 662 145 662 160 674 c 0,18,19
 202 706 202 706 231.5 705.5 c 128,-1,20
 261 705 261 705 281 696.5 c 128,-1,21
 301 688 301 688 318 680 c 0,22,23
 335 671 335 671 348 671 c 0,0,1
47 258 m 0,24,25
 47 367 47 367 70 427 c 128,-1,26
 93 487 93 487 143 511.5 c 128,-1,27
 193 536 193 536 283 536 c 0,28,29
 418 536 418 536 468.5 476 c 128,-1,30
 519 416 519 416 519 262.5 c 128,-1,31
 519 109 519 109 468.5 52 c 128,-1,32
 418 -5 418 -5 284 -5 c 128,-1,33
 150 -5 150 -5 98.5 54 c 128,-1,34
 47 113 47 113 47 258 c 0,24,25
142 334.5 m 128,-1,36
 139 303 139 303 139 260 c 128,-1,37
 139 217 139 217 142.5 187 c 128,-1,38
 146 157 146 157 155 137.5 c 128,-1,39
 164 118 164 118 174.5 106.5 c 128,-1,40
 185 95 185 95 204 89 c 0,41,42
 233 79 233 79 275 79.5 c 128,-1,43
 317 80 317 80 337 82.5 c 128,-1,44
 357 85 357 85 376.5 94.5 c 128,-1,45
 396 104 396 104 406 124 c 0,46,47
 427 167 427 167 427 258 c 0,48,49
 427 350 427 350 416 379.5 c 128,-1,50
 405 409 405 409 395.5 421.5 c 128,-1,51
 386 434 386 434 368 441 c 0,52,53
 340 452 340 452 297 452 c 128,-1,54
 254 452 254 452 236 450 c 128,-1,55
 218 448 218 448 199.5 441.5 c 128,-1,56
 181 435 181 435 171.5 422.5 c 128,-1,57
 162 410 162 410 153.5 388 c 128,-1,35
 145 366 145 366 142 334.5 c 128,-1,36
EndSplineSet
Substitution2: "'smcp' Lowercase to Small Capitals lookup 1 subtable" otilde.smcp
EndChar

StartChar: odieresis
Encoding: 246 246 183
Width: 565
GlyphClass: 2
Flags: W
LayerCount: 2
Fore
SplineSet
104 649 m 128,-1,1
 104 671 104 671 119.5 686.5 c 128,-1,2
 135 702 135 702 157 702 c 128,-1,3
 179 702 179 702 194 686.5 c 128,-1,4
 209 671 209 671 209 649 c 128,-1,5
 209 627 209 627 194 611.5 c 128,-1,6
 179 596 179 596 157 596 c 128,-1,7
 135 596 135 596 119.5 611.5 c 128,-1,0
 104 627 104 627 104 649 c 128,-1,1
359 649 m 128,-1,9
 359 671 359 671 374.5 686.5 c 128,-1,10
 390 702 390 702 412 702 c 128,-1,11
 434 702 434 702 449 686.5 c 128,-1,12
 464 671 464 671 464 649 c 128,-1,13
 464 627 464 627 449 611.5 c 128,-1,14
 434 596 434 596 412 596 c 128,-1,15
 390 596 390 596 374.5 611.5 c 128,-1,8
 359 627 359 627 359 649 c 128,-1,9
47 258 m 0,16,17
 47 367 47 367 70 427 c 128,-1,18
 93 487 93 487 143 511.5 c 128,-1,19
 193 536 193 536 283 536 c 0,20,21
 418 536 418 536 468.5 476 c 128,-1,22
 519 416 519 416 519 262.5 c 128,-1,23
 519 109 519 109 468.5 52 c 128,-1,24
 418 -5 418 -5 284 -5 c 128,-1,25
 150 -5 150 -5 98.5 54 c 128,-1,26
 47 113 47 113 47 258 c 0,16,17
142 334.5 m 128,-1,28
 139 303 139 303 139 260 c 128,-1,29
 139 217 139 217 142.5 187 c 128,-1,30
 146 157 146 157 155 137.5 c 128,-1,31
 164 118 164 118 174.5 106.5 c 128,-1,32
 185 95 185 95 204 89 c 0,33,34
 233 79 233 79 275 79.5 c 128,-1,35
 317 80 317 80 337 82.5 c 128,-1,36
 357 85 357 85 376.5 94.5 c 128,-1,37
 396 104 396 104 406 124 c 0,38,39
 427 167 427 167 427 258 c 0,40,41
 427 350 427 350 416 379.5 c 128,-1,42
 405 409 405 409 395.5 421.5 c 128,-1,43
 386 434 386 434 368 441 c 0,44,45
 340 452 340 452 297 452 c 128,-1,46
 254 452 254 452 236 450 c 128,-1,47
 218 448 218 448 199.5 441.5 c 128,-1,48
 181 435 181 435 171.5 422.5 c 128,-1,49
 162 410 162 410 153.5 388 c 128,-1,27
 145 366 145 366 142 334.5 c 128,-1,28
EndSplineSet
Substitution2: "'smcp' Lowercase to Small Capitals lookup 1 subtable" odieresis.smcp
EndChar

StartChar: divide
Encoding: 247 247 184
Width: 511
GlyphClass: 2
Flags: W
LayerCount: 2
Fore
SplineSet
47 310 m 1,0,-1
 47 396 l 1,1,-1
 464 396 l 1,2,-1
 464 310 l 1,3,-1
 47 310 l 1,0,-1
205 168 m 2,4,-1
 205 226 l 2,5,6
 205 250 205 250 229 250 c 2,7,-1
 285 250 l 2,8,9
 309 250 309 250 309 226 c 2,10,-1
 309 168 l 2,11,12
 309 145 309 145 285 145 c 2,13,-1
 229 145 l 2,14,15
 218 145 218 145 211.5 151.5 c 128,-1,16
 205 158 205 158 205 168 c 2,4,-1
205 474 m 2,17,-1
 205 531 l 2,18,19
 205 556 205 556 229 556 c 2,20,-1
 285 556 l 2,21,22
 309 556 309 556 309 531 c 2,23,-1
 309 474 l 2,24,25
 309 451 309 451 285 451 c 2,26,-1
 229 451 l 2,27,28
 211 451 211 451 206 466 c 0,29,30
 205 470 205 470 205 474 c 2,17,-1
EndSplineSet
EndChar

StartChar: oslash
Encoding: 248 248 185
Width: 571
GlyphClass: 2
Flags: W
LayerCount: 2
Fore
SplineSet
94 63 m 1,0,1
 50 120 50 120 50 243.5 c 128,-1,2
 50 367 50 367 73 427 c 128,-1,3
 96 487 96 487 146 511.5 c 128,-1,4
 196 536 196 536 288 536 c 128,-1,5
 380 536 380 536 430 510 c 1,6,-1
 446 531 l 1,7,-1
 515 531 l 1,8,-1
 473 475 l 1,9,10
 522 416 522 416 522 262.5 c 128,-1,11
 522 109 522 109 471.5 52 c 128,-1,12
 421 -5 421 -5 286 -5 c 0,13,14
 186 -5 186 -5 133 27 c 1,15,-1
 112 0 l 1,16,-1
 48 0 l 1,17,-1
 94 63 l 1,0,1
145 334.5 m 128,-1,19
 142 303 142 303 142 243 c 128,-1,20
 142 183 142 183 159 146 c 1,21,-1
 375 438 l 1,22,23
 349 452 349 452 303 452 c 128,-1,24
 257 452 257 452 239 450 c 128,-1,25
 221 448 221 448 202.5 441.5 c 128,-1,26
 184 435 184 435 174.5 422.5 c 128,-1,27
 165 410 165 410 156.5 388 c 128,-1,18
 148 366 148 366 145 334.5 c 128,-1,19
374 92 m 128,-1,29
 399 104 399 104 409 124 c 0,30,31
 430 167 430 167 430 262 c 128,-1,32
 430 357 430 357 410 395 c 1,33,-1
 188 99 l 1,34,35
 214 80 214 80 281.5 80 c 128,-1,28
 349 80 349 80 374 92 c 128,-1,29
EndSplineSet
Substitution2: "'smcp' Lowercase to Small Capitals lookup 1 subtable" oslash.smcp
EndChar

StartChar: ugrave
Encoding: 249 249 186
Width: 545
GlyphClass: 2
Flags: W
LayerCount: 2
Fore
SplineSet
109 730 m 1,0,-1
 212 730 l 1,1,-1
 314 596 l 1,2,-1
 239 596 l 1,3,-1
 109 730 l 1,0,-1
47 166 m 2,4,-1
 47 531 l 1,5,-1
 139 531 l 1,6,-1
 139 165 l 2,7,8
 139 120 139 120 161 98 c 128,-1,9
 183 76 183 76 227 76 c 128,-1,10
 271 76 271 76 305 87.5 c 128,-1,11
 339 99 339 99 398 130 c 1,12,-1
 398 531 l 1,13,-1
 490 531 l 1,14,-1
 490 0 l 1,15,-1
 421 0 l 1,16,-1
 398 60 l 1,17,18
 392 57 392 57 374 46 c 128,-1,19
 356 35 356 35 348.5 31.5 c 128,-1,20
 341 28 341 28 325 19.5 c 128,-1,21
 309 11 309 11 298.5 7.5 c 128,-1,22
 288 4 288 4 272 -1 c 0,23,24
 245 -9 245 -9 209 -9 c 0,25,26
 130 -9 130 -9 88.5 41.5 c 128,-1,27
 47 92 47 92 47 166 c 2,4,-1
EndSplineSet
AlternateSubs2: "'salt' Stylistic Alternatives in Latin lookup 16 subtable" ugrave.salt
Substitution2: "'smcp' Lowercase to Small Capitals lookup 1 subtable" ugrave.smcp
EndChar

StartChar: uacute
Encoding: 250 250 187
Width: 545
GlyphClass: 2
Flags: W
LayerCount: 2
Fore
SplineSet
231 596 m 1,0,-1
 333 730 l 1,1,-1
 436 730 l 1,2,-1
 306 596 l 1,3,-1
 231 596 l 1,0,-1
47 166 m 2,4,-1
 47 531 l 1,5,-1
 139 531 l 1,6,-1
 139 165 l 2,7,8
 139 120 139 120 161 98 c 128,-1,9
 183 76 183 76 227 76 c 128,-1,10
 271 76 271 76 305 87.5 c 128,-1,11
 339 99 339 99 398 130 c 1,12,-1
 398 531 l 1,13,-1
 490 531 l 1,14,-1
 490 0 l 1,15,-1
 421 0 l 1,16,-1
 398 60 l 1,17,18
 392 57 392 57 374 46 c 128,-1,19
 356 35 356 35 348.5 31.5 c 128,-1,20
 341 28 341 28 325 19.5 c 128,-1,21
 309 11 309 11 298.5 7.5 c 128,-1,22
 288 4 288 4 272 -1 c 0,23,24
 245 -9 245 -9 209 -9 c 0,25,26
 130 -9 130 -9 88.5 41.5 c 128,-1,27
 47 92 47 92 47 166 c 2,4,-1
EndSplineSet
AlternateSubs2: "'salt' Stylistic Alternatives in Latin lookup 16 subtable" uacute.salt
Substitution2: "'smcp' Lowercase to Small Capitals lookup 1 subtable" uacute.smcp
EndChar

StartChar: ucircumflex
Encoding: 251 251 188
Width: 545
GlyphClass: 2
Flags: W
LayerCount: 2
Fore
SplineSet
120 596 m 1,0,-1
 234 728 l 1,1,-1
 314 728 l 1,2,-1
 416 596 l 1,3,-1
 339 596 l 1,4,-1
 272 664 l 1,5,-1
 198 596 l 1,6,-1
 120 596 l 1,0,-1
47 166 m 2,7,-1
 47 531 l 1,8,-1
 139 531 l 1,9,-1
 139 165 l 2,10,11
 139 120 139 120 161 98 c 128,-1,12
 183 76 183 76 227 76 c 128,-1,13
 271 76 271 76 305 87.5 c 128,-1,14
 339 99 339 99 398 130 c 1,15,-1
 398 531 l 1,16,-1
 490 531 l 1,17,-1
 490 0 l 1,18,-1
 421 0 l 1,19,-1
 398 60 l 1,20,21
 392 57 392 57 374 46 c 128,-1,22
 356 35 356 35 348.5 31.5 c 128,-1,23
 341 28 341 28 325 19.5 c 128,-1,24
 309 11 309 11 298.5 7.5 c 128,-1,25
 288 4 288 4 272 -1 c 0,26,27
 245 -9 245 -9 209 -9 c 0,28,29
 130 -9 130 -9 88.5 41.5 c 128,-1,30
 47 92 47 92 47 166 c 2,7,-1
EndSplineSet
AlternateSubs2: "'salt' Stylistic Alternatives in Latin lookup 16 subtable" ucircumflex.salt
Substitution2: "'smcp' Lowercase to Small Capitals lookup 1 subtable" ucircumflex.smcp
EndChar

StartChar: udieresis
Encoding: 252 252 189
Width: 545
GlyphClass: 2
Flags: W
LayerCount: 2
Fore
SplineSet
88 649 m 128,-1,1
 88 671 88 671 103.5 686.5 c 128,-1,2
 119 702 119 702 141 702 c 128,-1,3
 163 702 163 702 178 686.5 c 128,-1,4
 193 671 193 671 193 649 c 128,-1,5
 193 627 193 627 178 611.5 c 128,-1,6
 163 596 163 596 141 596 c 128,-1,7
 119 596 119 596 103.5 611.5 c 128,-1,0
 88 627 88 627 88 649 c 128,-1,1
343 649 m 128,-1,9
 343 671 343 671 358.5 686.5 c 128,-1,10
 374 702 374 702 396 702 c 128,-1,11
 418 702 418 702 433 686.5 c 128,-1,12
 448 671 448 671 448 649 c 128,-1,13
 448 627 448 627 433 611.5 c 128,-1,14
 418 596 418 596 396 596 c 128,-1,15
 374 596 374 596 358.5 611.5 c 128,-1,8
 343 627 343 627 343 649 c 128,-1,9
47 166 m 2,16,-1
 47 531 l 1,17,-1
 139 531 l 1,18,-1
 139 165 l 2,19,20
 139 120 139 120 161 98 c 128,-1,21
 183 76 183 76 227 76 c 128,-1,22
 271 76 271 76 305 87.5 c 128,-1,23
 339 99 339 99 398 130 c 1,24,-1
 398 531 l 1,25,-1
 490 531 l 1,26,-1
 490 0 l 1,27,-1
 421 0 l 1,28,-1
 398 60 l 1,29,30
 392 57 392 57 374 46 c 128,-1,31
 356 35 356 35 348.5 31.5 c 128,-1,32
 341 28 341 28 325 19.5 c 128,-1,33
 309 11 309 11 298.5 7.5 c 128,-1,34
 288 4 288 4 272 -1 c 0,35,36
 245 -9 245 -9 209 -9 c 0,37,38
 130 -9 130 -9 88.5 41.5 c 128,-1,39
 47 92 47 92 47 166 c 2,16,-1
EndSplineSet
AlternateSubs2: "'salt' Stylistic Alternatives in Latin lookup 16 subtable" udieresis.salt
Substitution2: "'smcp' Lowercase to Small Capitals lookup 1 subtable" udieresis.smcp
EndChar

StartChar: yacute
Encoding: 253 253 190
Width: 560
GlyphClass: 2
Flags: W
LayerCount: 2
Fore
SplineSet
242 596 m 1,0,-1
 345 730 l 1,1,-1
 447 730 l 1,2,-1
 317 596 l 1,3,-1
 242 596 l 1,0,-1
20 531 m 1,4,-1
 119 531 l 1,5,-1
 237 128 l 2,6,7
 252 79 252 79 298 88 c 0,8,9
 300 89 300 89 300 89 c 1,10,-1
 440 531 l 1,11,-1
 540 531 l 1,12,-1
 319 -168 l 1,13,-1
 245 -270 l 1,14,-1
 184 -270 l 1,15,-1
 273 0 l 1,16,17
 177 0 177 0 143 117 c 2,18,-1
 20 531 l 1,4,-1
EndSplineSet
Substitution2: "'smcp' Lowercase to Small Capitals lookup 1 subtable" yacute.smcp
EndChar

StartChar: thorn
Encoding: 254 254 191
Width: 554
GlyphClass: 2
Flags: W
LayerCount: 2
Fore
SplineSet
65 -270 m 1,0,-1
 65 782 l 1,1,-1
 157 782 l 1,2,-1
 157 472 l 1,3,4
 198 503 198 503 255 520.5 c 128,-1,5
 312 538 312 538 347 538 c 128,-1,6
 382 538 382 538 412 523.5 c 128,-1,7
 442 509 442 509 461.5 484 c 128,-1,8
 481 459 481 459 494 424 c 0,9,10
 517 359 517 359 517 266 c 0,11,12
 517 109 517 109 470 46 c 0,13,14
 428 -11 428 -11 343 -11 c 0,15,16
 305 -11 305 -11 252 -0.5 c 128,-1,17
 199 10 199 10 157 28 c 1,18,-1
 157 -270 l 1,19,-1
 65 -270 l 1,0,-1
413 146.5 m 128,-1,21
 425 190 425 190 425 273.5 c 128,-1,22
 425 357 425 357 400.5 404.5 c 128,-1,23
 376 452 376 452 333 452 c 1,24,25
 255 448 255 448 157 406 c 1,26,-1
 157 96 l 1,27,28
 219 78 219 78 309 74 c 0,29,30
 328 73 328 73 333 73 c 0,31,32
 363 73 363 73 382 88 c 128,-1,20
 401 103 401 103 413 146.5 c 128,-1,21
EndSplineSet
Substitution2: "'smcp' Lowercase to Small Capitals lookup 1 subtable" thorn.smcp
EndChar

StartChar: ydieresis
Encoding: 255 255 192
Width: 560
GlyphClass: 2
Flags: W
LayerCount: 2
Fore
SplineSet
99 649 m 128,-1,1
 99 671 99 671 115 686.5 c 128,-1,2
 131 702 131 702 153 702 c 128,-1,3
 175 702 175 702 190 686.5 c 128,-1,4
 205 671 205 671 205 649 c 128,-1,5
 205 627 205 627 189.5 611.5 c 128,-1,6
 174 596 174 596 152.5 596 c 128,-1,7
 131 596 131 596 115 611.5 c 128,-1,0
 99 627 99 627 99 649 c 128,-1,1
354 649 m 128,-1,9
 354 671 354 671 370 686.5 c 128,-1,10
 386 702 386 702 408 702 c 128,-1,11
 430 702 430 702 445 686.5 c 128,-1,12
 460 671 460 671 460 649 c 128,-1,13
 460 627 460 627 444.5 611.5 c 128,-1,14
 429 596 429 596 407.5 596 c 128,-1,15
 386 596 386 596 370 611.5 c 128,-1,8
 354 627 354 627 354 649 c 128,-1,9
20 531 m 1,16,-1
 119 531 l 1,17,-1
 237 128 l 2,18,19
 252 79 252 79 298 88 c 0,20,21
 300 89 300 89 300 89 c 1,22,-1
 440 531 l 1,23,-1
 540 531 l 1,24,-1
 319 -168 l 1,25,-1
 245 -270 l 1,26,-1
 184 -270 l 1,27,-1
 273 0 l 1,28,29
 177 0 177 0 143 117 c 2,30,-1
 20 531 l 1,16,-1
EndSplineSet
Substitution2: "'smcp' Lowercase to Small Capitals lookup 1 subtable" ydieresis.smcp
EndChar

StartChar: Amacron
Encoding: 256 256 193
Width: 676
GlyphClass: 2
Flags: W
LayerCount: 2
Fore
SplineSet
208 797 m 1,0,-1
 208 864 l 1,1,-1
 500 864 l 1,2,-1
 500 797 l 1,3,-1
 208 797 l 1,0,-1
42 0 m 1,4,-1
 305 732 l 1,5,-1
 402 732 l 1,6,-1
 654 0 l 1,7,-1
 549 0 l 1,8,-1
 489 193 l 1,9,-1
 212 193 l 1,10,-1
 149 0 l 1,11,-1
 42 0 l 1,4,-1
241 280 m 1,12,-1
 461 280 l 1,13,-1
 353 600 l 1,14,-1
 241 280 l 1,12,-1
EndSplineSet
Substitution2: "'c2sc' Capitals to Small Capitals in Latin lookup 2 subtable" amacron.smcp
EndChar

StartChar: amacron
Encoding: 257 257 194
Width: 519
GlyphClass: 2
Flags: W
LayerCount: 2
Fore
SplineSet
126 601 m 1,0,-1
 126 668 l 1,1,-1
 418 668 l 1,2,-1
 418 601 l 1,3,-1
 126 601 l 1,0,-1
54 510 m 1,4,5
 156 541 156 541 312 541 c 0,6,7
 410 541 410 541 450 475 c 0,8,9
 472 438 472 438 472 382 c 2,10,-1
 472 0 l 1,11,-1
 402 0 l 1,12,-1
 380 62 l 1,13,14
 377 59 377 59 347 43.5 c 128,-1,15
 317 28 317 28 266 11 c 128,-1,16
 215 -6 215 -6 176 -6 c 0,17,18
 114 -6 114 -6 75.5 31 c 128,-1,19
 37 68 37 68 37 129 c 2,20,-1
 37 187 l 2,21,22
 37 248 37 248 73.5 285.5 c 128,-1,23
 110 323 110 323 176 323 c 0,24,25
 278 323 278 323 329 323 c 128,-1,26
 380 323 380 323 380 323 c 1,27,28
 381 352 381 352 381 366.5 c 128,-1,29
 381 381 381 381 380.5 390 c 128,-1,30
 380 399 380 399 376.5 412 c 128,-1,31
 373 425 373 425 366.5 434 c 128,-1,32
 360 443 360 443 350 448 c 0,33,34
 332 459 332 459 301 458 c 1,35,36
 219 458 219 458 54 447 c 1,37,-1
 54 510 l 1,4,5
129 138 m 2,38,39
 129 78 129 78 186 78 c 0,40,41
 219 78 219 78 267.5 90.5 c 128,-1,42
 316 103 316 103 348 115 c 2,43,-1
 380 127 l 1,44,-1
 380 257 l 1,45,-1
 184 243 l 1,46,47
 129 238 129 238 129 181 c 2,48,-1
 129 138 l 2,38,39
EndSplineSet
AlternateSubs2: "'salt' Stylistic Alternatives in Latin lookup 16 subtable" amacron.salt
Substitution2: "'smcp' Lowercase to Small Capitals lookup 1 subtable" amacron.smcp
EndChar

StartChar: Abreve
Encoding: 258 258 195
Width: 676
GlyphClass: 2
Flags: W
LayerCount: 2
Fore
SplineSet
239 911 m 1,0,-1
 289 911 l 1,1,2
 289 884 289 884 308 865.5 c 128,-1,3
 327 847 327 847 354.5 847 c 128,-1,4
 382 847 382 847 400.5 864.5 c 128,-1,5
 419 882 419 882 419 911 c 1,6,-1
 469 911 l 1,7,8
 469 858 469 858 434 827.5 c 128,-1,9
 399 797 399 797 353 797 c 128,-1,10
 307 797 307 797 273 828.5 c 128,-1,11
 239 860 239 860 239 911 c 1,0,-1
42 0 m 1,12,-1
 305 732 l 1,13,-1
 402 732 l 1,14,-1
 654 0 l 1,15,-1
 549 0 l 1,16,-1
 489 193 l 1,17,-1
 212 193 l 1,18,-1
 149 0 l 1,19,-1
 42 0 l 1,12,-1
241 280 m 1,20,-1
 461 280 l 1,21,-1
 353 600 l 1,22,-1
 241 280 l 1,20,-1
EndSplineSet
Substitution2: "'c2sc' Capitals to Small Capitals in Latin lookup 2 subtable" abreve.smcp
EndChar

StartChar: abreve
Encoding: 259 259 196
Width: 519
GlyphClass: 2
Flags: W
LayerCount: 2
Fore
SplineSet
157 715 m 1,0,-1
 207 715 l 1,1,2
 207 688 207 688 226.5 669.5 c 128,-1,3
 246 651 246 651 273 651 c 128,-1,4
 300 651 300 651 318.5 668.5 c 128,-1,5
 337 686 337 686 337 715 c 1,6,-1
 387 715 l 1,7,8
 387 662 387 662 352.5 631.5 c 128,-1,9
 318 601 318 601 272 601 c 128,-1,10
 226 601 226 601 191.5 632.5 c 128,-1,11
 157 664 157 664 157 715 c 1,0,-1
54 510 m 1,12,13
 156 541 156 541 312 541 c 0,14,15
 410 541 410 541 450 475 c 0,16,17
 472 438 472 438 472 382 c 2,18,-1
 472 0 l 1,19,-1
 402 0 l 1,20,-1
 380 62 l 1,21,22
 377 59 377 59 347 43.5 c 128,-1,23
 317 28 317 28 266 11 c 128,-1,24
 215 -6 215 -6 176 -6 c 0,25,26
 114 -6 114 -6 75.5 31 c 128,-1,27
 37 68 37 68 37 129 c 2,28,-1
 37 187 l 2,29,30
 37 248 37 248 73.5 285.5 c 128,-1,31
 110 323 110 323 176 323 c 0,32,33
 278 323 278 323 329 323 c 128,-1,34
 380 323 380 323 380 323 c 1,35,36
 381 352 381 352 381 366.5 c 128,-1,37
 381 381 381 381 380.5 390 c 128,-1,38
 380 399 380 399 376.5 412 c 128,-1,39
 373 425 373 425 366.5 434 c 128,-1,40
 360 443 360 443 350 448 c 0,41,42
 332 459 332 459 301 458 c 1,43,44
 219 458 219 458 54 447 c 1,45,-1
 54 510 l 1,12,13
129 138 m 2,46,47
 129 78 129 78 186 78 c 0,48,49
 219 78 219 78 267.5 90.5 c 128,-1,50
 316 103 316 103 348 115 c 2,51,-1
 380 127 l 1,52,-1
 380 257 l 1,53,-1
 184 243 l 1,54,55
 129 238 129 238 129 181 c 2,56,-1
 129 138 l 2,46,47
EndSplineSet
Substitution2: "'smcp' Lowercase to Small Capitals lookup 1 subtable" abreve.smcp
EndChar

StartChar: Aogonek
Encoding: 260 260 197
Width: 676
GlyphClass: 2
Flags: W
LayerCount: 2
Fore
SplineSet
570 -79 m 0,0,1
 570 -117 570 -117 631 -118 c 1,2,-1
 631 -182 l 1,3,4
 620 -184 620 -184 604 -184 c 128,-1,5
 588 -184 588 -184 563.5 -175 c 128,-1,6
 539 -166 539 -166 523 -145 c 0,7,8
 503 -118 503 -118 503 -93.5 c 128,-1,9
 503 -69 503 -69 522 -44 c 128,-1,10
 541 -19 541 -19 583 0 c 1,11,-1
 626 0 l 1,12,13
 570 -46 570 -46 570 -79 c 0,0,1
42 0 m 1,14,-1
 305 732 l 1,15,-1
 402 732 l 1,16,-1
 654 0 l 1,17,-1
 549 0 l 1,18,-1
 489 193 l 1,19,-1
 212 193 l 1,20,-1
 149 0 l 1,21,-1
 42 0 l 1,14,-1
241 280 m 1,22,-1
 461 280 l 1,23,-1
 353 600 l 1,24,-1
 241 280 l 1,22,-1
EndSplineSet
Substitution2: "'c2sc' Capitals to Small Capitals in Latin lookup 2 subtable" aogonek.smcp
EndChar

StartChar: aogonek
Encoding: 261 261 198
Width: 519
GlyphClass: 2
Flags: W
LayerCount: 2
Fore
SplineSet
405 -79 m 0,0,1
 405 -117 405 -117 465 -118 c 1,2,-1
 465 -182 l 1,3,4
 454 -184 454 -184 438 -184 c 128,-1,5
 422 -184 422 -184 397.5 -175.5 c 128,-1,6
 373 -167 373 -167 357 -145 c 0,7,8
 337 -118 337 -118 337 -93.5 c 128,-1,9
 337 -69 337 -69 356 -44 c 128,-1,10
 375 -19 375 -19 417 0 c 1,11,-1
 460 0 l 1,12,13
 405 -46 405 -46 405 -79 c 0,0,1
54 510 m 1,14,15
 156 541 156 541 312 541 c 0,16,17
 410 541 410 541 450 475 c 0,18,19
 472 438 472 438 472 382 c 2,20,-1
 472 0 l 1,21,-1
 402 0 l 1,22,-1
 380 62 l 1,23,24
 377 59 377 59 347 43.5 c 128,-1,25
 317 28 317 28 266 11 c 128,-1,26
 215 -6 215 -6 176 -6 c 0,27,28
 114 -6 114 -6 75.5 31 c 128,-1,29
 37 68 37 68 37 129 c 2,30,-1
 37 187 l 2,31,32
 37 248 37 248 73.5 285.5 c 128,-1,33
 110 323 110 323 176 323 c 0,34,35
 278 323 278 323 329 323 c 128,-1,36
 380 323 380 323 380 323 c 1,37,38
 381 352 381 352 381 366.5 c 128,-1,39
 381 381 381 381 380.5 390 c 128,-1,40
 380 399 380 399 376.5 412 c 128,-1,41
 373 425 373 425 366.5 434 c 128,-1,42
 360 443 360 443 350 448 c 0,43,44
 332 459 332 459 301 458 c 1,45,46
 219 458 219 458 54 447 c 1,47,-1
 54 510 l 1,14,15
129 138 m 2,48,49
 129 78 129 78 186 78 c 0,50,51
 219 78 219 78 267.5 90.5 c 128,-1,52
 316 103 316 103 348 115 c 2,53,-1
 380 127 l 1,54,-1
 380 257 l 1,55,-1
 184 243 l 1,56,57
 129 238 129 238 129 181 c 2,58,-1
 129 138 l 2,48,49
EndSplineSet
AlternateSubs2: "'salt' Stylistic Alternatives in Latin lookup 16 subtable" aogonek.salt
Substitution2: "'smcp' Lowercase to Small Capitals lookup 1 subtable" aogonek.smcp
EndChar

StartChar: Cacute
Encoding: 262 262 199
Width: 576
GlyphClass: 2
Flags: W
LayerCount: 2
Fore
SplineSet
292 800 m 1,0,-1
 395 934 l 1,1,-1
 497 934 l 1,2,-1
 367 800 l 1,3,-1
 292 800 l 1,0,-1
51 362 m 0,4,5
 51 442 51 442 57.5 497 c 128,-1,6
 64 552 64 552 80.5 599.5 c 128,-1,7
 97 647 97 647 124 677 c 0,8,9
 183 740 183 740 297 740 c 0,10,11
 419 740 419 740 544 713 c 1,12,-1
 544 640 l 1,13,14
 544 640 544 640 538.5 640.5 c 128,-1,15
 533 641 533 641 524 641.5 c 128,-1,16
 515 642 515 642 502.5 643 c 128,-1,17
 490 644 490 644 475 644.5 c 128,-1,18
 460 645 460 645 443.5 646 c 128,-1,19
 427 647 427 647 409 648 c 128,-1,20
 391 649 391 649 373 650 c 0,21,22
 336 651 336 651 297.5 651 c 128,-1,23
 259 651 259 651 230 640 c 128,-1,24
 201 629 201 629 180.5 597.5 c 128,-1,25
 160 566 160 566 151.5 510.5 c 128,-1,26
 143 455 143 455 143 392.5 c 128,-1,27
 143 330 143 330 145.5 299 c 128,-1,28
 148 268 148 268 153.5 238.5 c 128,-1,29
 159 209 159 209 167 185.5 c 128,-1,30
 175 162 175 162 188 142.5 c 128,-1,31
 201 123 201 123 218 110 c 0,32,33
 253 83 253 83 303 83 c 0,34,35
 399 83 399 83 508 88 c 1,36,-1
 544 90 l 1,37,-1
 544 18 l 1,38,39
 494 7 494 7 423.5 0.5 c 128,-1,40
 353 -6 353 -6 326 -6 c 128,-1,41
 299 -6 299 -6 297 -6 c 0,42,43
 161 -6 161 -6 104 99 c 0,44,45
 51 197 51 197 51 362 c 0,4,5
EndSplineSet
Substitution2: "'c2sc' Capitals to Small Capitals in Latin lookup 2 subtable" cacute.smcp
EndChar

StartChar: cacute
Encoding: 263 263 200
Width: 498
GlyphClass: 2
Flags: W
LayerCount: 2
Fore
SplineSet
233 598 m 1,0,-1
 335 732 l 1,1,-1
 438 732 l 1,2,-1
 308 598 l 1,3,-1
 233 598 l 1,0,-1
47 266 m 128,-1,5
 47 333 47 333 55.5 381.5 c 128,-1,6
 64 430 64 430 78.5 459.5 c 128,-1,7
 93 489 93 489 116 507 c 1,8,9
 156 536 156 536 210 536 c 0,10,11
 335 536 335 536 454 508 c 1,12,-1
 454 446 l 1,13,14
 327 452 327 452 271.5 452 c 128,-1,15
 216 452 216 452 203.5 449.5 c 128,-1,16
 191 447 191 447 177 437 c 128,-1,17
 163 427 163 427 156 407 c 0,18,19
 139 360 139 360 139 274 c 128,-1,20
 139 188 139 188 149 148.5 c 128,-1,21
 159 109 159 109 179.5 94.5 c 128,-1,22
 200 80 200 80 240 80 c 0,23,24
 320 80 320 80 426 87 c 1,25,-1
 461 90 l 1,26,-1
 461 25 l 1,27,28
 407 7 407 7 353.5 1.5 c 128,-1,29
 300 -4 300 -4 245 -4.5 c 128,-1,30
 190 -5 190 -5 165.5 1 c 128,-1,31
 141 7 141 7 117.5 24.5 c 128,-1,32
 94 42 94 42 79.5 71.5 c 128,-1,33
 65 101 65 101 56 150 c 128,-1,4
 47 199 47 199 47 266 c 128,-1,5
EndSplineSet
Substitution2: "'smcp' Lowercase to Small Capitals lookup 1 subtable" cacute.smcp
EndChar

StartChar: Ccircumflex
Encoding: 264 264 201
Width: 576
GlyphClass: 2
Flags: W
LayerCount: 2
Fore
SplineSet
181 800 m 1,0,-1
 296 932 l 1,1,-1
 376 932 l 1,2,-1
 478 800 l 1,3,-1
 401 800 l 1,4,-1
 333 868 l 1,5,-1
 259 800 l 1,6,-1
 181 800 l 1,0,-1
51 362 m 0,7,8
 51 442 51 442 57.5 497 c 128,-1,9
 64 552 64 552 80.5 599.5 c 128,-1,10
 97 647 97 647 124 677 c 0,11,12
 183 740 183 740 297 740 c 0,13,14
 419 740 419 740 544 713 c 1,15,-1
 544 640 l 1,16,17
 544 640 544 640 538.5 640.5 c 128,-1,18
 533 641 533 641 524 641.5 c 128,-1,19
 515 642 515 642 502.5 643 c 128,-1,20
 490 644 490 644 475 644.5 c 128,-1,21
 460 645 460 645 443.5 646 c 128,-1,22
 427 647 427 647 409 648 c 128,-1,23
 391 649 391 649 373 650 c 0,24,25
 336 651 336 651 297.5 651 c 128,-1,26
 259 651 259 651 230 640 c 128,-1,27
 201 629 201 629 180.5 597.5 c 128,-1,28
 160 566 160 566 151.5 510.5 c 128,-1,29
 143 455 143 455 143 392.5 c 128,-1,30
 143 330 143 330 145.5 299 c 128,-1,31
 148 268 148 268 153.5 238.5 c 128,-1,32
 159 209 159 209 167 185.5 c 128,-1,33
 175 162 175 162 188 142.5 c 128,-1,34
 201 123 201 123 218 110 c 0,35,36
 253 83 253 83 303 83 c 0,37,38
 399 83 399 83 508 88 c 1,39,-1
 544 90 l 1,40,-1
 544 18 l 1,41,42
 494 7 494 7 423.5 0.5 c 128,-1,43
 353 -6 353 -6 326 -6 c 128,-1,44
 299 -6 299 -6 297 -6 c 0,45,46
 161 -6 161 -6 104 99 c 0,47,48
 51 197 51 197 51 362 c 0,7,8
EndSplineSet
Substitution2: "'c2sc' Capitals to Small Capitals in Latin lookup 2 subtable" ccircumflex.smcp
EndChar

StartChar: ccircumflex
Encoding: 265 265 202
Width: 498
GlyphClass: 2
Flags: W
LayerCount: 2
Fore
SplineSet
131 598 m 1,0,-1
 246 729 l 1,1,-1
 326 729 l 1,2,-1
 428 598 l 1,3,-1
 351 598 l 1,4,-1
 283 666 l 1,5,-1
 209 598 l 1,6,-1
 131 598 l 1,0,-1
47 266 m 128,-1,8
 47 333 47 333 55.5 381.5 c 128,-1,9
 64 430 64 430 78.5 459.5 c 128,-1,10
 93 489 93 489 116 507 c 1,11,12
 156 536 156 536 210 536 c 0,13,14
 335 536 335 536 454 508 c 1,15,-1
 454 446 l 1,16,17
 327 452 327 452 271.5 452 c 128,-1,18
 216 452 216 452 203.5 449.5 c 128,-1,19
 191 447 191 447 177 437 c 128,-1,20
 163 427 163 427 156 407 c 0,21,22
 139 360 139 360 139 274 c 128,-1,23
 139 188 139 188 149 148.5 c 128,-1,24
 159 109 159 109 179.5 94.5 c 128,-1,25
 200 80 200 80 240 80 c 0,26,27
 320 80 320 80 426 87 c 1,28,-1
 461 90 l 1,29,-1
 461 25 l 1,30,31
 407 7 407 7 353.5 1.5 c 128,-1,32
 300 -4 300 -4 245 -4.5 c 128,-1,33
 190 -5 190 -5 165.5 1 c 128,-1,34
 141 7 141 7 117.5 24.5 c 128,-1,35
 94 42 94 42 79.5 71.5 c 128,-1,36
 65 101 65 101 56 150 c 128,-1,7
 47 199 47 199 47 266 c 128,-1,8
EndSplineSet
Substitution2: "'smcp' Lowercase to Small Capitals lookup 1 subtable" ccircumflex.smcp
EndChar

StartChar: Cdotaccent
Encoding: 266 266 203
Width: 576
GlyphClass: 2
Flags: W
LayerCount: 2
Fore
SplineSet
285 825 m 2,0,-1
 285 885 l 2,1,2
 285 910 285 910 309 910 c 2,3,-1
 365 910 l 2,4,5
 376 910 376 910 382 903 c 128,-1,6
 388 896 388 896 388 885 c 2,7,-1
 388 825 l 2,8,9
 388 802 388 802 365 802 c 2,10,-1
 309 802 l 2,11,12
 298 802 298 802 291.5 808 c 128,-1,13
 285 814 285 814 285 825 c 2,0,-1
51 362 m 0,14,15
 51 442 51 442 57.5 497 c 128,-1,16
 64 552 64 552 80.5 599.5 c 128,-1,17
 97 647 97 647 124 677 c 0,18,19
 183 740 183 740 297 740 c 0,20,21
 419 740 419 740 544 713 c 1,22,-1
 544 640 l 1,23,24
 544 640 544 640 538.5 640.5 c 128,-1,25
 533 641 533 641 524 641.5 c 128,-1,26
 515 642 515 642 502.5 643 c 128,-1,27
 490 644 490 644 475 644.5 c 128,-1,28
 460 645 460 645 443.5 646 c 128,-1,29
 427 647 427 647 409 648 c 128,-1,30
 391 649 391 649 373 650 c 0,31,32
 336 651 336 651 297.5 651 c 128,-1,33
 259 651 259 651 230 640 c 128,-1,34
 201 629 201 629 180.5 597.5 c 128,-1,35
 160 566 160 566 151.5 510.5 c 128,-1,36
 143 455 143 455 143 392.5 c 128,-1,37
 143 330 143 330 145.5 299 c 128,-1,38
 148 268 148 268 153.5 238.5 c 128,-1,39
 159 209 159 209 167 185.5 c 128,-1,40
 175 162 175 162 188 142.5 c 128,-1,41
 201 123 201 123 218 110 c 0,42,43
 253 83 253 83 303 83 c 0,44,45
 399 83 399 83 508 88 c 1,46,-1
 544 90 l 1,47,-1
 544 18 l 1,48,49
 494 7 494 7 423.5 0.5 c 128,-1,50
 353 -6 353 -6 326 -6 c 128,-1,51
 299 -6 299 -6 297 -6 c 0,52,53
 161 -6 161 -6 104 99 c 0,54,55
 51 197 51 197 51 362 c 0,14,15
EndSplineSet
Substitution2: "'c2sc' Capitals to Small Capitals in Latin lookup 2 subtable" cdotaccent.smcp
EndChar

